<svg version="1.1" xmlns="http://www.w3.org/2000/svg" xmlns:xlink="http://www.w3.org/1999/xlink" width="86.65664" height="91.47823" viewBox="0,0,86.65664,91.47823"><defs><linearGradient x1="212.9" y1="191.0803" x2="272.4" y2="191.0803" gradientUnits="userSpaceOnUse" id="color-1"><stop offset="0" stop-color="#cccccc"/><stop offset="1" stop-color="#ffffff"/></linearGradient></defs><g transform="translate(-204.55872,-170.39616)"><g data-paper-data="{&quot;isPaintingLayer&quot;:true}" fill-rule="nonzero" stroke-linejoin="miter" stroke-miterlimit="10" stroke-dasharray="" stroke-dashoffset="0" style="mix-blend-mode: normal"><g fill="#ffae52" stroke-linecap="butt"><path d="M239.7606,239.1352l21.8497,-10.0884l9.2507,18.4623l-21.8496,10.0885z" stroke="none" stroke-width="0.84941"/><path d="M240.9686,241.113l22.0459,-10.1791l8.3697,16.704l-22.0459,10.1792z" stroke="#000000" stroke-width="0.94418"/></g><g fill="#ffffff"><path d="M208.6142,210.9281l4.7593,-10.5431l5.016,-2.4628l7.0863,-0.7982l9.4801,1.5202l-4.8739,1.4211l-3.028,4.4191l-3.2722,4.3839l-3.2405,6.9684l-4.1246,10.6347l-11.3507,-2.0938z" stroke="#000000" stroke-width="0.81685" stroke-linecap="round"/><path d="M207.0055,216.834l12.2633,2.3378l-1.6524,3.9992l-12.2633,-2.3378z" stroke="#000000" stroke-width="0.81402" stroke-linecap="butt"/><path d="M217.4144,219.2092l-9.7671,-1.4038" stroke="#d0cdd2" stroke-width="1.39546" stroke-linecap="round"/><path d="M216.8464,221.9288l-9.2166,-1.5186" stroke="#d0cdd2" stroke-width="1.33975" stroke-linecap="round"/><path d="M207.7152,219.1947l9.2935,1.4611" stroke="#d0cdd2" stroke-width="1.44403" stroke-linecap="round"/></g><path d="M215.15,204.2349l1.75,-3.008l2.5,-2.9632l4.5,-2.6938l8.5,-3.1427l10,-1.3469l17.75,3.5917l5,3.053l3,3.008l1.5,4.2652l1.5,5.4773l1.25,7.0038v10.2813l-1,9.4731l-2.5,7.9466h-52.5l-3.5,-9.9221v-7.9915v-13.5138l0.5,-4.759z" fill="url(#color-1)" stroke="none" stroke-width="0.95033" stroke-linecap="round"/><path d="M213.0321,223.25h59.55v6h-59.55z" fill="#b07900" stroke="none" stroke-width="1.00901" stroke-linecap="butt"/><path d="M213.9,223.125h58v6.125h-58z" fill="none" stroke="#000000" stroke-width="0.93958" stroke-linecap="butt"/><path d="M224.65,195.75l18,1.5l20.25,-1.75l4.25,3.75l2.5,7l2.5,7.5l0.25,11l-0.5,10.5l-2.5,9.25l-52.5,1l-3.5,-9.75v-27.25l2.25,-5.75l3.5,-4.75z" fill="none" stroke="#000000" stroke-width="1" stroke-linecap="round"/><g fill="#ffffff"><path d="M290.4838,224.5072l-13.1918,6.1582l-7.911,-11.9342l-6.0298,-6.6643l-4.7377,-4.2811l-6.4747,-4.1796l-7.106,-1.4078l11.0961,-4.8615l8.9576,-1.2489l6.9911,1.4559l9.447,11.4991z" stroke="#000000" stroke-width="1.03551" stroke-linecap="round"/><path d="M288.9893,220.1258l-14.2264,6.7466l-3.396,-4.4101l14.2264,-6.7466z" stroke="#000000" stroke-width="1.03173" stroke-linecap="butt"/><path d="M273.5637,222.0237l11.4877,-4.8085" stroke="#d0cdd2" stroke-width="1.76117" stroke-linecap="round"/><path d="M285.8943,220.3906l-10.7737,4.7765" stroke="#d0cdd2" stroke-width="1.69517" stroke-linecap="round"/><path d="M285.4536,218.8824l-10.8878,4.7299" stroke="#d0cdd2" stroke-width="1.82444" stroke-linecap="round"/></g><g fill="#af7600" stroke-linecap="round"><g><path d="M231.6,172.5073l21.1423,0.9477l4.6311,6.0655l1.7451,6.8868l2.282,14.8477l-19.1958,1.9586l-15.907,-2.5904l-0.2685,-15.4796l1.8793,-7.5186z" stroke="#ffffff" stroke-width="2.60719"/><path d="M228.1775,196.2409l0.5617,-13.9l2.5275,-7.5818" stroke="#f9f9f9" stroke-width="2.3911"/><path d="M231.7161,196.2409l0.3931,-13.5209l1.6851,-7.7082" stroke="#f9f9f9" stroke-width="2.3911"/><path d="M235.4793,197.5045l0.2808,-12.7627l0.4494,-9.6036" stroke="#f9f9f9" stroke-width="2.3911"/><path d="M239.2425,175.1382l0.7302,7.4554l-0.5617,15.29" stroke="#f9f9f9" stroke-width="2.3911"/><path d="M242.2194,174.7591l1.4042,7.2027l0.8425,17.6277" stroke="#f9f9f9" stroke-width="2.3911"/><path d="M248.2293,180.4455l-1.7974,-4.5491z" stroke="#f9f9f9" stroke-width="2.3911"/><path d="M248.2293,180.4455v18.7018" stroke="#f9f9f9" stroke-width="2.3911"/><path d="M245.7579,174.9486l1.348,2.3378z" stroke="#f9f9f9" stroke-width="2.3911"/><path d="M248.5663,175.0118l2.6399,5.0546l0.7301,18.7018" stroke="#f9f9f9" stroke-width="2.3911"/><path d="M252.3295,174.7591l2.2467,5.56l1.2919,18.9545" stroke="#f9f9f9" stroke-width="2.3911"/></g><path d="M230.95,170.9659h21.5l6.25,8.2136l3.75,23.3773l-20.75,1.8955l-10.5,-1.5796l-7,-0.6318l0.5,-17.0591l1.75,-7.2659z" stroke="#000000" stroke-width="1.13947"/></g><g fill="#ffac4e" stroke-linecap="butt"><path d="M219.4438,232.7736l21.6669,8.9607l-8.6548,19.1636l-21.6669,-8.9606z" stroke="none" stroke-width="0.84376"/><path d="M219.4923,233.4061l21.1863,8.7619l-8.6215,19.0899l-21.1863,-8.7619z" stroke="#000000" stroke-width="0.95271"/></g></g></g></svg>