<svg xmlns="http://www.w3.org/2000/svg" xmlns:xlink="http://www.w3.org/1999/xlink" version="1.1" width="117.27909851074219" height="161.04319763183594" viewBox="-0.19126731157302856 2.4568064212799072 117.27909851074219 161.04319763183594">
  <!-- Exported by Scratch - http://scratch.mit.edu/ -->
  <path id="ID0.026405561715364456" fill="#663B00" stroke="#663B00" stroke-width="2" d="M 47 151.5 L 79 151.5 L 79 162.5 L 47 162.5 L 47 151.5 Z "/>
  <g id="Bottom">
    <g id="Bottom_1_">
      <path id="ID0.8444251050241292" fill="#20891D" d="M 65.4043 152.1892 C 34.4813 152.1866 6.4771 131.9231 2.6496 129.0387 C 40.5513 113.6531 62.1804 49.6617 65.2473 40.0168 C 78.1263 105.5985 106.4355 131.9014 109.5535 134.6275 C 97.0357 146.28 82.1861 152.1892 65.4094 152.1892 C 65.4094 152.1892 65.4056 152.1892 65.4043 152.1892 Z " stroke-width="1.276281476020813"/>
      <path id="ID0.994631611276418" d="M 65.1746 41.2905 C 72.2554 76.5542 83.7419 99.9842 92.2254 113.5281 C 100.3259 126.4593 107.1158 132.911 109.0723 134.6365 C 96.6707 146.0732 81.9819 151.8701 65.403 151.8701 C 35.584 151.8701 8.4694 132.948 3.289 129.1191 C 24.377 120.2783 40.1824 96.5395 49.7852 78.0206 C 58.1193 61.9497 63.3278 46.9662 65.1746 41.2905 M 65.3188 38.7124 C 65.3188 38.7124 43.4906 112.6717 2.0101 128.9506 C 2.0101 128.9506 31.7807 152.5083 65.4056 152.5083 C 80.2743 152.5083 95.8947 147.9047 110.0333 134.6161 C 110.0321 134.6161 78.8959 109.444 65.3188 38.7124 L 65.3188 38.7124 Z " stroke-width="1.276281476020813" fill="undefined"/>
    </g>
    <path id="Snow_10_" fill="#FFFFFF" stroke="#000000" stroke-width="0.6381407380104065" d="M 113.8303 130.5549 C 112.0613 129.4382 106.1764 128.2946 105.015 130.6992 C 104.7955 131.1535 105.0354 131.6079 105.3583 131.9218 C 106.7048 133.2351 102.6743 134.1119 102.0055 135.0002 C 101.5614 135.5899 101.3482 136.3339 101.1938 137.0436 C 100.5889 139.8118 99.5461 140.6273 96.723 140.9554 C 94.1385 141.2553 91.0844 143.1697 90.1042 145.7759 C 87.9945 145.4134 85.8797 145.3764 85.0667 145.5053 C 83.7943 145.7069 82.6992 146.3527 81.6463 147.0483 C 81.0847 147.5116 80.5321 147.9928 79.9935 148.4867 C 78.1901 150.1012 77.2827 149.4031 75.5929 149.4643 C 74.0499 149.5205 72.5706 149.8778 71.2688 150.5785 C 71.0506 150.4407 70.8183 150.3182 70.5733 150.2173 C 66.8261 148.6603 62.9117 151.5281 58.9897 150.1459 C 57.194 149.5141 55.4442 148.4803 53.4507 148.7585 C 52.6811 148.8683 51.3193 149.2614 50.0545 149.3635 C 48.9773 148.3578 48.4617 147.0879 47.4675 145.7695 C 45.5352 143.2118 41.5621 143.342 38.9942 144.6221 C 37.7294 145.2513 35.7538 143.7593 34.3218 143.9572 C 34.2311 143.9712 34.1214 143.9559 34.0244 143.9584 C 33.5139 143.67 32.9612 143.4403 32.4597 143.2361 C 31.2153 142.7307 29.9735 142.007 28.6551 142.0083 C 27.9914 141.619 27.3839 141.2298 26.8976 140.8979 C 26.3705 140.538 25.8243 139.5731 25.1964 138.7818 C 27.2537 139.2222 29.5561 139.0448 31.0724 137.5056 C 31.1642 137.4124 31.0826 137.2235 30.9447 137.2924 C 28.2505 138.6491 24.7994 137.1776 22.2979 135.9115 C 21.6751 135.5962 21.0561 135.3474 20.4371 135.1253 C 19.4212 134.648 18.3389 134.3008 17.3166 134.0724 C 16.6963 133.7801 15.9293 133.6627 15.3141 133.5567 C 14.4794 133.4138 13.7953 133.0386 13.0934 132.6799 C 12.3416 131.7865 11.775 130.7196 10.828 129.9423 C 9.5045 128.8575 8.6085 127.9845 8.6877 126.416 C 8.7821 126.3866 8.8753 126.3624 8.9672 126.3458 C 9.5594 126.2475 10.0928 125.9833 10.4272 125.4843 C 11.2006 124.3356 6.4708 122.9955 3.8301 123.9859 C 1.8213 124.7389 1.0134 126.7529 0.8219 128.638 C 0.6701 130.1274 1.8544 131.9984 3.1575 132.6493 C 5.3961 133.7661 7.7381 134.1885 9.1752 136.4105 C 10.0686 137.7902 10.8101 138.6427 12.3927 139.2821 C 13.2823 139.6408 14.3326 139.5961 15.2809 139.5527 C 21.3101 139.2745 21.6151 142.5686 24.0796 146.3323 C 25.2551 148.1281 25.4797 148.0617 27.5753 148.9934 C 28.3858 149.3533 31.4067 152.4304 32.7213 152.8299 C 36.3791 153.9364 39.3414 151.7629 42.8856 152.4508 C 44.5473 153.2077 45.5339 155.4692 47.2007 156.2886 C 49.6065 157.4717 51.6384 156.7327 54.1067 156.1214 C 57.0945 155.3799 60.6719 158.0703 63.7796 158.3243 C 66.2594 158.5272 68.7329 157.8942 70.8311 156.5975 C 71.2395 156.3473 71.5688 156.0576 71.8406 155.7487 C 72.7978 156.078 73.6938 156.6664 74.8118 157.1845 C 77.1423 158.263 79.146 157.4245 81.2136 156.124 C 82.398 155.3799 83.3565 154.1993 84.4018 153.2791 C 86.4668 151.454 89.0449 152.1879 91.4915 152.3372 C 93.2362 152.4419 94.6771 151.5204 95.2859 149.934 C 95.5182 149.3265 95.4773 148.8045 95.2719 148.3412 C 95.4237 148.0693 95.5756 147.8064 95.7377 147.5703 C 97.5641 144.9246 101.0419 145.8627 103.7106 144.9246 C 105.6723 144.2328 106.5504 141.7288 107.5254 140.1258 C 108.8821 137.8948 112.0524 138.45 114.1902 137.5426 C 117.3477 136.1974 116.0969 131.9869 113.8303 130.5549 Z "/>
    <path id="Snow_9_" fill="#FFFFFF" stroke="#000000" stroke-width="0.6381407380104065" d="M 93.0103 130.3022 C 93.1315 130.0036 92.7652 129.7279 92.5113 129.9308 C 90.2893 131.6768 88.5752 133.9039 85.4534 133.7903 C 83.0502 133.7022 80.9111 131.7138 78.416 132.477 C 77.5022 132.7565 76.7862 133.1458 75.9821 133.6423 C 74.2247 134.7258 73.2241 134.089 71.5305 133.3985 C 69.9402 132.7501 67.8382 133.9384 66.6768 134.8841 C 66.5402 134.9951 66.6717 135.2236 66.8363 135.1495 C 67.7616 134.7348 68.6474 134.685 69.5114 134.8254 C 71.108 135.6792 72.7851 137.138 74.5731 137.3448 C 75.0696 137.4022 75.6261 137.2222 76.0804 137.0244 C 77.6873 136.3173 79.1384 135.6384 80.9788 135.8196 C 83.89 136.1055 86.8063 137.0857 88.8764 135.1036 C 90.7309 134.1336 92.2037 132.3315 93.0103 130.3022 Z "/>
    <path id="Snow_8_" fill="#FFFFFF" stroke="#000000" stroke-width="0.6381407380104065" d="M 57.91 126.5972 C 52.9504 127.4536 48.551 122.9585 43.5199 122.4135 C 40.4084 122.074 37.6873 120.8833 34.9816 119.3977 C 33.4118 118.5349 23.8346 119.3773 24.9475 115.5612 C 25.2002 114.6959 24.7828 113.7323 23.7988 113.6225 C 18.3899 113.0278 21.2131 120.7123 23.8882 122.4608 C 27.2384 124.6496 33.9453 123.3248 36.9752 126.319 C 41.2954 130.5894 43.4255 126.7963 48.8829 127.2277 C 52.2701 128.5563 54.293 129.3948 58.1346 127.3693 C 58.5277 127.1639 58.3835 126.5168 57.91 126.5972 Z "/>
    <path id="Snow_7_" fill="#FFFFFF" stroke="#000000" stroke-width="0.6381407380104065" d="M 97.1978 113.6302 C 96.261 113.0367 95.2859 113.1975 94.5444 114.0079 C 94.4206 114.1432 94.2981 114.2811 94.1704 114.4176 C 93.8284 114.7941 93.8514 115.3263 94.0581 115.7577 C 93.3026 115.9122 92.5585 116.1138 91.9484 116.3576 C 89.8068 117.2076 88.579 119.1565 85.9486 119.0697 C 83.4994 118.9905 81.3629 119.2279 78.9125 118.743 C 78.3548 118.6306 77.8225 118.6306 77.3031 118.6881 C 76.2936 118.3128 75.3325 117.944 74.5731 117.69 C 71.3097 116.5975 68.5108 119.7155 64.9985 118.6064 C 62.5327 117.8279 60.8148 118.2095 58.5456 119.2356 C 58.335 119.33 58.4346 119.6338 58.6553 119.6134 C 66.59 118.8425 61.518 121.7294 66.396 121.8367 C 69.8228 121.9132 72.9676 120.0243 76.3765 122.2412 C 77.4256 122.9228 78.5194 123.3503 79.6438 123.6158 C 81.7407 126.6227 87.1853 124.7389 90.1093 124.4479 C 94.2496 124.0319 97.5551 122.7939 98.5417 118.4111 C 99.5985 116.8234 99.5449 115.1158 97.1978 113.6302 Z "/>
    <g id="Lights_4_">
      <path id="String_3_" d="M 97.8206 120.5106 C 97.1021 120.5642 97.2986 121.621 97.9916 121.6018 C 101.8498 121.501 100.1141 126.6521 99.3138 128.4759 C 98.2137 130.9761 95.924 132.7514 93.7556 134.2715 C 89.2491 137.4341 83.7394 139.046 78.3139 139.5872 C 67.611 140.6554 56.5916 136.5841 48.4323 129.793 C 41.8135 124.2871 38.993 114.7367 30.9345 111.0189 C 24.7394 108.1613 20.2916 112.0603 19.5833 118.1482 C 19.5616 118.332 19.8219 118.392 19.8934 118.2273 C 22.1869 112.9167 23.892 109.2359 30.6231 111.7923 C 35.8265 113.7693 38.6611 119.3441 41.6617 123.6439 C 47.5798 132.126 56.866 137.6243 66.8389 139.8897 C 76.5999 142.104 87.133 140.4525 95.3676 134.662 C 98.6017 132.3877 101.1045 129.1076 101.569 125.1052 C 101.8804 122.425 100.6348 120.3051 97.8206 120.5106 Z " stroke-width="1.276281476020813" fill="undefined"/>
      <g id="Light_17_">
        <path id="Base_8_" fill="#B7B7B7" stroke="#000000" stroke-width="0.6381407380104065" d="M 18.0045 116.7392 C 17.6599 116.572 17.5795 116.0398 17.8169 115.5459 L 17.8169 115.5459 C 18.0556 115.0532 18.5265 114.7852 18.8698 114.9549 L 20.5813 115.7833 C 20.9246 115.9504 21.0076 116.4839 20.7702 116.9766 L 20.7702 116.9766 C 20.5303 117.4692 20.0593 117.7347 19.7173 117.5688 L 18.0045 116.7392 Z "/>
        <path id="Light_18_" fill="#EA0000" stroke="#000000" stroke-width="0.6381407380104065" d="M 16.1769 116.9817 C 14.6441 115.893 13.4558 114.6652 13.9395 113.6672 C 14.422 112.6717 16.1182 112.8453 17.9267 113.3736 C 19.7607 113.9046 20.321 115.5318 19.8398 116.5286 C 19.3586 117.5254 17.7339 118.0908 16.1769 116.9817 Z "/>
        <path id="Highlight_10_" fill="#FFFFFF" d="M 17.9088 114.4917 C 16.9631 113.948 16.3862 114.045 16.4998 113.8088 C 16.6172 113.5689 16.8801 113.5408 17.8922 113.948 C 18.9196 114.3615 19.4327 114.9345 19.3178 115.1732 C 19.2029 115.4119 18.8724 115.0405 17.9088 114.4917 Z " stroke-width="1.276281476020813"/>
      </g>
      <g id="Light_19_">
        <path id="Base_9_" fill="#B7B7B7" stroke="#000000" stroke-width="0.6381407380104065" d="M 39.4294 116.2682 C 39.746 116.0551 40.2475 116.2504 40.5564 116.7035 L 40.5564 116.7035 C 40.864 117.1553 40.8602 117.6964 40.5424 117.9108 L 38.97 118.9791 C 38.6547 119.1922 38.1506 118.9995 37.8417 118.5464 L 37.8417 118.5464 C 37.5367 118.0946 37.5405 117.5509 37.8558 117.339 L 39.4294 116.2682 Z "/>
        <path id="Light_20_" fill="#FFF533" stroke="#000000" stroke-width="0.6381407380104065" d="M 40.1327 114.5631 C 41.8416 113.7808 43.4995 113.3634 44.1211 114.2811 C 44.7439 115.1962 43.7471 116.5784 42.3853 117.8815 C 41.0095 119.205 39.321 118.8782 38.6969 117.9644 C 38.074 117.0493 38.3944 115.3595 40.1327 114.5631 Z "/>
        <path id="Highlight_11_" fill="#FFFFFF" d="M 41.4255 117.3097 C 42.3687 116.7609 42.5716 116.2121 42.721 116.4291 C 42.869 116.6511 42.7631 116.8911 41.9042 117.5649 C 41.0312 118.2478 40.2807 118.4073 40.1301 118.1903 C 39.9808 117.9708 40.4683 117.8674 41.4255 117.3097 Z " stroke-width="1.276281476020813"/>
      </g>
      <g id="Light_21_">
        <path id="Base_10_" fill="#B7B7B7" stroke="#000000" stroke-width="0.6381407380104065" d="M 53.4366 136.4667 C 53.1878 136.7551 52.653 136.699 52.2357 136.3416 L 52.2357 136.3416 C 51.8209 135.9842 51.6843 135.461 51.9344 135.1725 L 53.175 133.7303 C 53.4239 133.4419 53.9625 133.4993 54.3785 133.8541 L 54.3785 133.8541 C 54.7908 134.2128 54.9273 134.7373 54.6785 135.0245 L 53.4366 136.4667 Z "/>
        <path id="Light_22_" fill="#FF6D00" stroke="#000000" stroke-width="0.6381407380104065" d="M 53.2018 138.2969 C 51.7558 139.4953 50.2638 140.3325 49.4253 139.6076 C 48.5842 138.8852 49.1879 137.2924 50.163 135.6792 C 51.147 134.043 52.8649 133.9167 53.7034 134.639 C 54.5419 135.3614 54.6733 137.0767 53.2018 138.2969 Z "/>
        <path id="Highlight_12_" fill="#FFFFFF" d="M 51.2376 135.983 C 50.4706 136.7564 50.4157 137.3396 50.2153 137.1699 C 50.0149 136.9951 50.0558 136.7347 50.7092 135.8617 C 51.3729 134.9734 52.0582 134.625 52.2586 134.7973 C 52.4616 134.9683 52.0174 135.1929 51.2376 135.983 Z " stroke-width="1.276281476020813"/>
      </g>
      <g id="Light_23_">
        <path id="Base_11_" fill="#B7B7B7" stroke="#000000" stroke-width="0.6381407380104065" d="M 75.5661 138.8839 C 75.621 138.5087 76.1098 138.2726 76.6509 138.3556 L 76.6509 138.3556 C 77.1921 138.4398 77.5852 138.8138 77.5226 139.1903 L 77.2316 141.0702 C 77.1716 141.448 76.6828 141.6816 76.1417 141.5999 L 76.1417 141.5999 C 75.6031 141.5131 75.21 141.1404 75.27 140.7639 L 75.5661 138.8839 Z "/>
        <path id="Light_24_" fill="#EA0000" stroke="#000000" stroke-width="0.6381407380104065" d="M 74.7978 137.2056 C 75.3951 135.4214 76.2195 133.9256 77.3159 134.0979 C 78.4096 134.2689 78.7389 135.9408 78.7632 137.8259 C 78.7887 139.734 77.3963 140.746 76.3025 140.5763 C 75.2087 140.4053 74.1928 139.018 74.7978 137.2056 Z "/>
        <path id="Highlight_13_" fill="#FFFFFF" d="M 77.686 138.136 C 77.931 137.0742 77.6694 136.5496 77.9298 136.5892 C 78.1901 136.63 78.2922 136.8751 78.2003 137.9612 C 78.1033 139.0639 77.7051 139.7212 77.4448 139.6829 C 77.1831 139.6433 77.4422 139.2171 77.686 138.136 Z " stroke-width="1.276281476020813"/>
      </g>
      <g id="Light_25_">
        <path id="Base_12_" fill="#B7B7B7" stroke="#000000" stroke-width="0.6381407380104065" d="M 102.1957 123.7651 C 102.4726 123.5073 102.9985 123.6235 103.3763 124.0229 L 103.3763 124.0229 C 103.7489 124.4262 103.8229 124.961 103.5434 125.2201 L 102.1497 126.5142 C 101.8677 126.7733 101.3406 126.6559 100.9654 126.2577 L 100.9654 126.2577 C 100.5978 125.8544 100.5174 125.3184 100.7994 125.0605 L 102.1957 123.7651 Z "/>
        <path id="Light_26_" fill="#0074FF" stroke="#000000" stroke-width="0.6381407380104065" d="M 102.6309 121.9745 C 104.2058 120.942 105.7795 120.2796 106.5325 121.0939 C 107.2868 121.9069 106.507 123.4218 105.3609 124.9176 C 104.2007 126.4325 102.4765 126.3649 101.7235 125.5545 C 100.9705 124.7427 101.033 123.021 102.6309 121.9745 Z "/>
        <path id="Highlight_14_" fill="#FFFFFF" d="M 104.322 124.4926 C 105.1745 123.8085 105.2907 123.2367 105.4719 123.4282 C 105.6519 123.6235 105.5817 123.8787 104.8325 124.6738 C 104.0744 125.4817 103.3558 125.751 103.1759 125.5583 C 102.9959 125.363 103.4618 125.1907 104.322 124.4926 Z " stroke-width="1.276281476020813"/>
      </g>
    </g>
  </g>
  <g id="Middle">
    <g id="Middle_1_">
      <path id="ID0.028397698886692524" fill="#20891D" d="M 77.2125 108.1383 C 50.2702 108.1371 27.3673 92.8 23.9813 90.4235 C 50.5152 77.1272 65.546 36.5887 68.0858 29.2412 C 80.1071 90.0407 93.2758 103.1876 96.1946 105.4313 C 90.1553 107.2271 83.7726 108.1383 77.2138 108.1383 C 77.215 108.1383 77.2138 108.1383 77.2125 108.1383 Z " stroke-width="1.276281476020813"/>
      <path id="ID0.5585026354528964" d="M 68.0003 30.446 C 79.3975 87.4447 91.8208 102.062 95.5309 105.2935 C 89.6907 106.9693 83.5352 107.8193 77.2112 107.8193 C 51.3231 107.8193 29.1669 93.5989 24.6016 90.4657 C 49.8286 77.4463 64.5722 40.027 68.0003 30.446 M 68.1675 27.9993 C 68.1675 27.9993 52.9631 75.9799 23.3636 90.3738 C 23.3636 90.3738 47.7061 108.4574 77.2125 108.4574 C 83.6067 108.4574 90.2395 107.6087 96.9234 105.5436 C 96.9234 105.5436 81.6782 97.1125 68.1675 27.9993 L 68.1675 27.9993 Z " stroke-width="1.276281476020813" fill="undefined"/>
    </g>
    <path id="Snow_3_" fill="#FFFFFF" stroke="#000000" stroke-width="0.6381407380104065" d="M 88.237 90.0662 C 88.2344 89.4689 87.8962 88.7593 87.3308 88.4887 C 87.1381 88.3981 86.9441 88.3049 86.7501 88.2169 C 86.1618 87.9361 85.4445 88.0318 85.0961 88.6444 C 84.1299 90.3342 82.25 89.6782 80.4657 90.0126 C 79.6489 90.167 78.767 90.5039 78.1569 91.0974 C 76.5092 92.7055 75.1436 91.2378 73.3122 91.2608 C 70.0398 91.3055 68.1215 93.641 64.6922 92.6328 C 62.2927 91.9244 60.4243 92.4567 58.6783 94.1094 C 58.4869 94.292 58.6349 94.6072 58.8851 94.6097 C 61.3534 94.657 62.9641 95.2173 65.269 95.9907 C 66.3411 96.348 67.588 96.8177 68.7495 96.5037 C 70.5873 95.9983 72.1788 94.791 74.2477 95.5759 C 75.8622 96.1898 76.97 96.2727 78.61 95.7252 C 79.7587 95.3423 80.4262 93.9818 81.7254 93.8886 C 82.8013 93.807 83.844 93.7355 84.9136 93.5785 C 86.8459 93.2939 88.2498 92.0291 88.237 90.0662 Z "/>
    <path id="Snow_2_" fill="#FFFFFF" stroke="#000000" stroke-width="0.6381407380104065" d="M 72.3294 84.0843 C 69.7271 86.8487 67.0226 82.8463 64.502 82.6599 C 62.4 82.5068 60.7587 83.4219 58.9425 83.0556 C 58.8634 82.993 58.7817 82.9343 58.6834 82.8807 C 58.2367 82.6421 57.8066 82.4915 57.3829 82.4008 C 57.2476 82.314 57.1098 82.2222 56.9681 82.1175 C 55.2655 80.8144 52.5509 82.5489 50.8126 82.7442 C 50.551 82.7735 50.2804 82.7607 50.0264 82.7607 C 48.6314 82.2515 47.3015 81.3492 46.1529 80.6077 C 46.0214 80.5221 45.8517 80.6625 45.8925 80.8055 C 46.4962 82.9879 47.904 84.6637 49.8209 85.8174 C 50.8522 86.4339 52.0366 86.6024 53.2107 86.4875 C 53.9765 86.4109 55.0677 85.8366 55.9917 85.7345 C 57.3663 86.5768 58.6222 88.0943 60.5685 87.1805 C 62.3081 86.3586 63.9455 84.9062 65.948 85.4014 C 67.015 85.6694 67.9492 85.9502 69.0379 86.0765 C 70.5452 86.2514 71.7487 85.3567 72.5081 84.2234 C 72.5809 84.1174 72.4188 83.9911 72.3294 84.0843 Z "/>
    <path id="Snow_1_" fill="#FFFFFF" stroke="#000000" stroke-width="0.6381407380104065" d="M 97.462 101.0971 C 95.9853 99.4443 93.8641 100.0875 91.9867 99.7493 C 91.4022 99.6472 88.6212 101.822 88.0545 103.2349 C 87.4763 104.6643 81.6897 104.4728 81.2047 104.5801 C 78.0816 105.259 77.1665 105.6024 73.8112 104.6349 C 73.667 104.5928 73.5304 104.5724 73.3875 104.5392 C 73.2343 104.3439 69.8905 104.1308 68.2913 104.3669 C 64.9563 104.857 65.7055 103.933 62.9705 103.6599 C 59.0778 103.2642 55.7939 103.5284 51.9268 101.8041 C 50.6109 101.2196 48.8586 100.4896 47.3934 100.4845 C 47.1471 100.4845 46.9148 100.4692 46.6813 100.4577 C 44.8549 99.9267 42.6916 99.1814 40.7746 98.2242 C 39.3082 97.1393 37.9502 95.7992 36.2706 94.4974 C 36.2706 94.4949 36.2694 94.4949 36.2694 94.4949 C 34.9931 91.9576 28.5772 89.3846 28.3641 89.16 C 28.3283 89.123 28.4955 87.2469 27.3979 87.2558 C 25.0994 87.2724 19.8806 87.2635 20.917 91.0693 C 21.2501 92.2856 22.885 92.6672 23.9086 92.957 C 26.091 93.5721 28.1216 96.5637 30.6601 96.2102 C 31.3148 96.1145 31.8917 96.251 32.4176 96.5471 C 32.6626 96.7296 32.9076 96.9109 33.1514 97.0921 C 33.7015 97.6039 38.873 108.0822 42.9673 106.945 C 47.0271 105.8117 49.8401 105.8729 51.8668 107.5525 C 54.2739 109.5435 56.8634 112.5785 59.6215 112.7546 C 62.4063 112.9371 64.8364 111.7872 66.4496 114.7469 C 67.2434 116.2006 68.6856 116.4929 70.1317 116.5733 C 71.2701 116.6371 72.3562 115.454 73.0977 114.7571 C 74.1328 113.782 79.7063 114.1241 79.8965 114.0118 C 80.9979 114.0564 82.2946 113.9161 82.9009 112.8848 C 82.9979 112.7189 83.0795 112.5172 83.1612 112.3181 C 84.7374 111.3035 88.3429 110.1944 88.4067 110.1791 C 90.0149 110.0476 91.6893 109.7924 93.0345 109.1849 C 93.7135 109.0994 94.3797 108.922 95.1379 108.6271 C 96.6094 108.0579 98.0146 107.2258 98.6464 105.7185 C 99.3202 104.1155 98.5481 102.3108 97.462 101.0971 Z "/>
    <g id="Lights_3_">
      <path id="String_2_" d="M 90.2599 92.4924 C 88.8688 91.151 86.2409 92.5332 85.0986 93.4802 C 77.7192 99.5834 69.7041 102.2598 60.095 100.7793 C 55.7327 100.1054 51.3142 98.325 47.4356 96.2676 C 43.4867 94.172 40.938 90.8651 38.1519 87.5123 C 36.7926 85.871 34.0933 83.0275 31.6212 83.672 C 29.6046 84.1966 28.9422 85.3235 29.2639 87.3043 C 29.2996 87.5226 29.6455 87.4651 29.6416 87.2533 C 30.5057 83.8941 33.667 83.9745 35.5151 85.9578 C 36.0103 86.3867 36.4774 86.8423 36.9152 87.3273 C 37.8264 88.2781 38.6113 89.3642 39.4192 90.398 C 40.9087 92.3061 42.5614 93.9703 44.4771 95.4444 C 48.7284 98.7117 54.6363 100.7282 59.8321 101.7467 C 65.024 102.7677 70.5171 102.3887 75.5125 100.6721 C 77.5481 99.9765 79.4307 98.8968 81.2251 97.7251 C 82.0598 97.1815 82.8702 96.5752 83.6539 95.9613 C 84.1899 95.5427 84.7196 95.1215 85.2428 94.6901 C 85.6232 94.3966 86.0035 94.1069 86.3838 93.8146 C 88.3723 92.2844 90.773 92.9697 89.4099 96.6914 C 89.0474 97.0143 89.6128 97.5822 89.937 97.2248 C 90.958 96.0915 92.0684 94.2345 90.2599 92.4924 Z " stroke-width="1.276281476020813" fill="undefined"/>
      <g id="Light_11_">
        <path id="Base_5_" fill="#B7B7B7" stroke="#000000" stroke-width="0.6381407380104065" d="M 92.7065 92.9442 C 93.0818 92.8791 93.4595 93.2671 93.554 93.807 L 93.554 93.807 C 93.6459 94.3456 93.4174 94.8344 93.0422 94.8982 L 91.1686 95.2198 C 90.7921 95.2849 90.4118 94.902 90.3186 94.3609 L 90.3186 94.3609 C 90.228 93.8223 90.4552 93.3322 90.8304 93.2684 L 92.7065 92.9442 Z "/>
        <path id="Light_12_" fill="#FFF533" stroke="#000000" stroke-width="0.6381407380104065" d="M 94.0492 91.6832 C 95.9304 91.6781 97.6113 91.9819 97.7989 93.0744 C 97.9878 94.1669 96.506 95.0143 94.7307 95.6372 C 92.9286 96.2689 91.5273 95.2747 91.3384 94.1847 C 91.1482 93.0948 92.1386 91.6883 94.0492 91.6832 Z "/>
        <path id="Highlight_7_" fill="#FFFFFF" d="M 94.0939 94.717 C 95.1787 94.6085 95.5909 94.1911 95.6369 94.4515 C 95.6815 94.7118 95.4837 94.8892 94.4231 95.1458 C 93.3472 95.4074 92.5955 95.2415 92.5496 94.9837 C 92.5049 94.7208 92.9899 94.8293 94.0939 94.717 Z " stroke-width="1.276281476020813"/>
      </g>
      <g id="Light_15_">
        <path id="Base_7_" fill="#B7B7B7" stroke="#000000" stroke-width="0.6381407380104065" d="M 44.8536 98.1182 C 44.5499 98.348 44.0381 98.1757 43.7075 97.7405 L 43.7075 97.7405 C 43.3795 97.3027 43.3566 96.7616 43.6641 96.5305 L 45.1829 95.3896 C 45.4867 95.1573 45.9997 95.3296 46.3316 95.7673 L 46.3316 95.7673 C 46.6583 96.2025 46.68 96.7437 46.375 96.9721 L 44.8536 98.1182 Z "/>
        <path id="Light_16_" fill="#0074FF" stroke="#000000" stroke-width="0.6381407380104065" d="M 44.2346 99.854 C 42.5653 100.7193 40.9291 101.2171 40.2641 100.33 C 39.5979 99.4469 40.527 98.0174 41.8237 96.6492 C 43.1358 95.2606 44.8383 95.507 45.5045 96.3889 C 46.1708 97.2708 45.9308 98.9759 44.2346 99.854 Z "/>
        <path id="Highlight_9_" fill="#FFFFFF" d="M 42.8103 97.1751 C 41.8952 97.7673 41.7191 98.3276 41.5583 98.117 C 41.4 97.9038 41.4945 97.6575 42.3202 96.9441 C 43.1575 96.2191 43.9015 96.0213 44.0611 96.2332 C 44.2206 96.445 43.7394 96.5714 42.8103 97.1751 Z " stroke-width="1.276281476020813"/>
      </g>
      <g id="Light_13_">
        <path id="Base_6_" fill="#B7B7B7" stroke="#000000" stroke-width="0.6381407380104065" d="M 74.0473 101.8003 C 74.2362 102.1334 74.009 102.621 73.5368 102.8928 L 73.5368 102.8928 C 73.0633 103.1698 72.5209 103.1264 72.3307 102.7958 L 71.3786 101.152 C 71.1872 100.8189 71.4156 100.3288 71.8904 100.0556 L 71.8904 100.0556 C 72.3652 99.7825 72.9038 99.8259 73.0926 100.1565 L 74.0473 101.8003 Z "/>
        <path id="Light_14_" fill="#FF6D00" stroke="#000000" stroke-width="0.6381407380104065" d="M 75.6975 102.6261 C 76.3574 104.3873 76.6547 106.0708 75.6963 106.6259 C 74.7365 107.1786 73.4283 106.0848 72.2248 104.6375 C 71.0046 103.1685 71.4513 101.508 72.4086 100.9503 C 73.3645 100.3964 75.0262 100.8354 75.6975 102.6261 Z "/>
        <path id="Highlight_1_" fill="#FFFFFF" d="M 74.4161 102.7818 C 73.8086 101.8756 73.2483 101.7046 73.4589 101.5425 C 73.6682 101.3804 73.9158 101.4723 74.6408 102.2891 C 75.3746 103.1162 75.5801 103.859 75.3708 104.021 C 75.1602 104.1831 75.03 103.7032 74.4161 102.7818 Z " stroke-width="1.276281476020813"/>
      </g>
    </g>
  </g>
  <g id="Top">
    <g id="Top_1_">
      <path id="ID0.8162294235080481" fill="#20891D" d="M 81.7378 66.4884 C 61.9839 71.2662 42.8526 64.3487 39.7048 63.1209 C 52.1622 50.9035 59.4164 34.2815 61.2707 13.7069 C 61.3606 12.7214 61.3252 10.6539 61.2763 9.0296 C 76.4108 54.6356 86.7713 62.517 89.7569 63.872 C 87.1974 64.9403 84.5054 65.8188 81.7428 66.4872 C 81.7428 66.4872 81.7403 66.4878 81.7378 66.4884 Z " stroke-width="1.2762814410545933"/>
      <path id="ID0.5223679905757308" d="M 61.6398 11.124 C 75.4943 52.2259 85.3452 61.6645 89.0242 63.8287 C 86.6631 64.7781 84.1934 65.566 81.664 66.178 C 62.7999 70.7419 44.4927 64.5822 40.2821 62.9996 C 52.5781 50.7608 59.7452 34.1914 61.59 13.7347 C 61.6434 13.1414 61.6524 12.1636 61.6398 11.124 M 60.8745 6.7882 C 60.8745 6.7882 61.1097 11.9614 60.9537 13.6773 C 59.8599 25.8189 56.1886 46.7477 39.131 63.2348 C 39.131 63.2348 59.9479 72.0884 81.8129 66.7985 C 84.7603 66.0854 87.7235 65.1177 90.6592 63.8349 C 90.6601 63.8334 79.1352 62.6889 60.8745 6.7882 L 60.8745 6.7882 Z " stroke-width="1.2762814410545933" fill="undefined"/>
    </g>
    <path id="Snow_6_" fill="#FFFFFF" stroke="#000000" stroke-width="0.6381407205272966" d="M 93.1857 64.0037 C 91.4149 59.8704 84.9427 57.8029 80.7007 57.6316 C 78.6478 57.5479 75.6853 59.9086 77.5513 61.9823 C 78.385 62.9151 77.3154 62.2718 76.1956 62.4626 C 75.2716 62.6218 74.6861 62.8829 73.9466 63.2404 C 72.4549 63.3164 70.9565 63.3375 69.4627 63.3667 C 67.6791 62.149 65.5995 61.1354 63.3861 61.9139 C 61.2327 62.6738 58.8137 63.7856 56.4666 63.3542 C 54.104 62.9187 52.1193 61.2283 49.8558 60.8226 C 47.6193 60.4195 44.6843 58.8396 42.4874 59.0073 C 39.1271 59.2622 32.9128 61.1478 37.4941 65.6306 C 39.2544 67.3543 43.2434 65.7524 45.413 67.2247 C 45.923 67.5688 46.7094 67.7633 47.3243 67.7484 C 49.8101 67.6893 51.652 67.769 53.9616 68.9356 C 56.2121 70.0693 58.7163 68.9841 61.1633 68.7808 C 61.9498 68.8676 63.7579 69.0407 63.8752 69.0859 C 64.9727 69.5032 66.5472 69.2483 67.6419 69.1161 C 69.5384 68.8844 71.0545 69.9896 72.9342 69.4547 C 74.7968 68.9253 77.8977 67.7286 79.3243 67.6172 C 81.4442 67.451 82.7052 67.8327 84.7112 67.0493 C 87.7227 65.8742 90.0447 68.1501 92.7872 65.6023 C 93.1713 65.2467 93.4026 64.504 93.1857 64.0037 Z "/>
    <path id="Snow_5_" fill="#FFFFFF" stroke="#000000" stroke-width="0.6381407205272966" d="M 76.0317 45.6656 C 74.5646 45.8866 73.2409 46.7492 72.2889 47.8619 C 71.9606 48.2473 70.1079 47.4875 69.6986 47.3646 C 68.9259 47.134 68.0332 47.4064 67.3028 47.6435 C 65.2378 48.3243 64.2233 49.4824 61.8232 49.3803 C 60.2499 49.3144 59.1492 49.7908 58.3569 51.1183 C 58.312 51.1935 58.3746 51.2677 58.4498 51.2744 C 60.7137 51.4647 63.0901 52.6034 65.3136 52.3556 C 66.099 52.2693 66.7661 51.9005 67.4337 51.5065 C 69.1418 50.4958 70.2131 51.7703 71.8163 51.716 C 73.9451 52.3355 77.0162 51.5097 78.5473 50.4841 C 81.4278 48.5555 78.7983 45.2471 76.0317 45.6656 Z "/>
    <path id="Snow_4_" fill="#FFFFFF" stroke="#000000" stroke-width="0.6381407205272966" d="M 63.529 38.9381 C 63.6031 38.7941 63.5302 38.6555 63.3848 38.6027 C 62.4769 38.2695 61.756 38.4702 60.8856 37.885 C 60.14 37.3813 59.3474 36.7917 58.4009 36.7765 C 57.3582 36.7596 56.6092 37.2349 55.8234 37.8676 C 55.6644 38.0084 55.5282 38.1674 55.4145 38.3486 C 55.3535 38.4277 55.3144 38.4884 55.2917 38.5359 C 54.9977 38.5689 54.711 38.6212 54.4429 38.7832 C 52.5475 39.9207 53.8262 42.9046 55.9122 42.6744 C 56.7843 42.5776 57.4451 42.2588 58.1082 41.6887 C 58.3709 41.461 58.6223 41.2138 58.903 41.0119 C 59.2554 40.7586 59.7285 40.7767 60.0984 40.5034 C 60.2145 40.4189 60.3171 40.3113 60.4081 40.1934 C 61.6133 40.4691 62.9382 40.1328 63.529 38.9381 Z "/>
    <g id="Lights_2_">
      <path id="String_1_" d="M 83.3195 54.0514 C 82.0613 52.1669 80.2177 52.7534 78.5554 53.7307 C 75.9323 55.274 73.7773 57.4657 71.892 60.1593 C 69.7098 63.2806 68.2076 67.0634 65.1256 69.0171 C 61.0235 71.6168 55.4986 70.431 50.9977 71.5777 C 48.465 72.2246 44.2003 73.7724 46.2508 77.7054 C 46.382 77.9599 46.6638 77.7407 46.5627 77.4802 C 43.9276 70.6318 59.6649 72.1779 62.8892 70.9159 C 66.0008 69.6983 68.1639 67.8001 70.0473 64.692 C 71.4821 62.3292 72.9109 60.0178 74.6705 58.0098 C 75.6245 56.9216 76.7183 56.1238 77.8168 55.2908 C 78.3608 54.8966 78.9295 54.566 79.5238 54.2974 C 80.5218 53.6844 84.257 53.91 82.2926 55.6524 C 82.0396 55.8226 82.2311 56.2936 82.4985 56.2158 C 83.2136 56.0073 84.0733 55.1808 83.3195 54.0514 Z " stroke-width="1.2762814410545933" fill="undefined"/>
      <g id="Light_4_">
        <path id="Base" fill="#B7B7B7" stroke="#000000" stroke-width="0.6381407205272966" d="M 63.306 72.7795 C 63.2366 73.1442 62.8007 73.318 62.3341 73.1695 L 62.3341 73.1695 C 61.8653 73.023 61.5428 72.6073 61.6125 72.2438 L 61.9578 70.4256 C 62.0274 70.0621 62.4618 69.8874 62.9297 70.0355 L 62.9297 70.0355 C 63.3975 70.1836 63.721 70.5978 63.6516 70.9626 L 63.306 72.7795 Z "/>
        <path id="Light_1_" fill="#EA0000" stroke="#000000" stroke-width="0.6381407205272966" d="M 63.8923 74.5245 C 63.2882 76.2123 62.498 77.5866 61.5509 77.2865 C 60.6044 76.989 60.3959 75.2969 60.4642 73.4407 C 60.533 71.5542 61.7946 70.7225 62.7402 71.0216 C 63.6873 71.3216 64.5059 72.8109 63.8923 74.5245 Z "/>
        <path id="Highlight_2_" fill="#FFFFFF" d="M 61.4177 73.2626 C 61.1549 74.2821 61.36 74.8312 61.1339 74.7599 C 60.9079 74.6885 60.8296 74.4356 60.9631 73.3752 C 61.0979 72.2987 61.4764 71.6976 61.7024 71.769 C 61.9272 71.8406 61.6822 72.2282 61.4177 73.2626 Z " stroke-width="1.2762814410545933"/>
      </g>
      <g id="Light_5_">
        <path id="Base_2_" fill="#B7B7B7" stroke="#000000" stroke-width="0.6381407205272966" d="M 43.75 76.3618 C 43.4162 76.3336 43.1516 75.8697 43.1558 75.3277 L 43.1558 75.3277 C 43.1611 74.7854 43.4348 74.3699 43.7689 74.3994 L 45.4298 74.5451 C 45.7627 74.5749 46.0281 75.0372 46.0215 75.5798 L 46.0215 75.5798 C 46.0174 76.1218 45.744 76.5385 45.4112 76.5088 L 43.75 76.3618 Z "/>
        <path id="Light_6_" fill="#FF6D00" stroke="#000000" stroke-width="0.6381407205272966" d="M 42.3942 77.2492 C 40.7777 76.7986 39.3817 76.0977 39.3926 74.9973 C 39.4021 73.9025 40.8094 73.4451 42.4337 73.2767 C 44.0806 73.1041 45.1303 74.4035 45.1186 75.5002 C 45.1093 76.5963 44.0363 77.7081 42.3942 77.2492 Z "/>
        <path id="Highlight_4_" fill="#FFFFFF" d="M 42.8378 74.3174 C 41.8884 74.1597 41.4672 74.4599 41.4692 74.1968 C 41.4715 73.9349 41.6684 73.8151 42.6208 73.8223 C 43.5856 73.8318 44.2068 74.1739 44.2033 74.4361 C 44.201 74.698 43.8021 74.4767 42.8378 74.3174 Z " stroke-width="1.2762814410545933"/>
      </g>
      <g id="Light_3_">
        <path id="Base_1_" fill="#B7B7B7" stroke="#000000" stroke-width="0.6381407205272966" d="M 77.8813 57.9566 C 78.1403 58.2077 78.1171 58.7412 77.8227 59.1473 L 77.8227 59.1473 C 77.5311 59.554 77.081 59.6799 76.8176 59.4272 L 75.5054 58.1716 C 75.2426 57.9213 75.2684 57.3872 75.5615 56.9815 L 75.5615 56.9815 C 75.8546 56.5757 76.3048 56.4497 76.5703 56.7006 L 77.8813 57.9566 Z "/>
        <path id="Light_2_" fill="#FFF533" stroke="#000000" stroke-width="0.6381407205272966" d="M 79.4865 58.2195 C 80.6003 59.6754 81.391 61.1689 80.7979 61.9899 C 80.2038 62.8125 78.7862 62.1851 77.336 61.1953 C 75.8649 60.1895 75.6822 58.4847 76.2742 57.6639 C 76.8698 56.8422 78.3595 56.7418 79.4865 58.2195 Z "/>
        <path id="Highlight_3_" fill="#FFFFFF" d="M 77.5527 60.1318 C 78.2625 60.9055 78.7753 60.9679 78.6339 61.1649 C 78.4897 61.3613 78.2622 61.3166 77.4704 60.6546 C 76.6692 59.9805 76.3336 59.2935 76.4741 59.098 C 76.6161 58.9035 76.8309 59.3465 77.5527 60.1318 Z " stroke-width="1.2762814410545933"/>
      </g>
    </g>
    <g id="Lights">
      <path id="String" d="M 72.1449 34.3114 C 67.7001 34.1052 65.6581 39.4183 62.8681 41.8187 C 60.0657 44.2327 56.8912 46.428 52.9771 46.7329 C 51.2927 46.8646 49.6025 46.9938 48.2226 47.9659 C 46.3674 49.2748 46.816 52.3124 49.3053 51.6866 C 49.7159 51.582 49.1322 51.0745 48.6981 51.0929 C 47.113 50.4298 48.7018 48.2859 50.3545 48.0777 C 50.9983 47.9272 51.6565 47.831 52.3242 47.7903 C 53.1926 47.705 54.0584 47.6636 54.9212 47.5336 C 57.5579 47.132 59.9153 45.397 61.9278 43.8859 C 64.1644 42.205 65.7386 40.272 67.4336 38.1326 C 68.4163 36.8917 71.2288 33.6021 73.0851 35.8908 C 73.9785 36.9891 73.4728 39.127 73.2155 40.3212 C 73.1054 40.8376 73.9393 41.0495 74.0596 40.5319 C 74.4495 38.8815 75.1407 34.4493 72.1449 34.3114 Z " stroke-width="1.2762814410545933" fill="undefined"/>
      <g id="Light_7_">
        <path id="Base_3_" fill="#B7B7B7" stroke="#000000" stroke-width="0.6381407205272966" d="M 56.662 47.6298 C 56.3557 47.8562 55.8444 47.6805 55.5177 47.2422 L 55.5177 47.2422 C 55.1917 46.8011 55.1779 46.2608 55.4842 46.0344 L 57.0155 44.9063 C 57.3218 44.6798 57.834 44.854 58.1594 45.2926 L 58.1594 45.2926 C 58.4842 45.734 56.6109 47.0552 56.3031 47.2807 L 56.662 47.6298 Z "/>
        <path id="Light_8_" fill="#EA0000" stroke="#000000" stroke-width="0.6381407205272966" d="M 56.0251 49.3609 C 54.3476 50.2106 52.7102 50.6934 52.0517 49.8009 C 51.3936 48.9097 52.3389 47.4873 53.6447 46.1328 C 54.9705 44.7576 56.6707 45.0172 57.3273 45.9076 C 57.9855 46.7988 57.7298 48.4994 56.0251 49.3609 Z "/>
        <path id="Highlight_5_" fill="#FFFFFF" d="M 54.6263 46.6674 C 53.7055 47.2526 53.5239 47.8099 53.3661 47.5973 C 53.2096 47.3844 53.3065 47.139 54.1359 46.4315 C 54.9814 45.7148 55.7274 45.5252 55.8839 45.7381 C 56.0436 45.9529 55.5604 46.0724 54.6263 46.6674 Z " stroke-width="1.2762814410545933"/>
      </g>
      <g id="Light_9_">
        <path id="Base_4_" fill="#B7B7B7" stroke="#000000" stroke-width="0.6381407205272966" d="M 72.3381 35.1313 C 72.7118 35.1998 72.9346 35.6921 72.8364 36.2306 L 72.8364 36.2306 C 72.7373 36.7707 72.3549 37.1494 71.9772 37.0806 L 70.1094 36.7368 C 69.7348 36.6646 69.5095 36.1728 69.6102 35.6337 L 69.6102 35.6337 C 69.7077 35.098 70.092 34.7162 70.4701 34.7862 L 72.3381 35.1313 Z "/>
        <path id="Light_10_" fill="#0074FF" stroke="#000000" stroke-width="0.6381407205272966" d="M 74.0371 34.4143 C 75.805 35.0568 77.2756 35.9248 77.0732 37.0151 C 76.8721 38.105 75.19 38.3872 73.3078 38.3581 C 71.3984 38.3302 70.4251 36.9125 70.6262 35.8225 C 70.8264 34.7341 72.2436 33.7584 74.0371 34.4143 Z "/>
        <path id="Highlight_6_" fill="#FFFFFF" d="M 73.026 37.2746 C 74.0832 37.5467 74.6144 37.3 74.5682 37.5594 C 74.517 37.82 74.272 37.9147 73.188 37.7922 C 72.0869 37.6647 71.4391 37.2502 71.4888 36.9887 C 71.5378 36.73 71.9549 36.9994 73.026 37.2746 Z " stroke-width="1.2762814410545933"/>
      </g>
    </g>
    <g id="Star_2_">
      <path id="Star" fill="#FFF533" stroke="#000000" stroke-width="0.6381407205272966" d="M 69.8777 22.9265 C 68.5271 24.2643 62.6858 20.4514 62.6858 20.4514 C 62.6858 20.4514 58.2593 25.8463 56.5687 24.9751 C 54.8768 24.1042 56.6993 17.3682 56.6993 17.3682 C 56.6993 17.3682 50.2013 14.825 50.5075 12.9481 C 50.8133 11.0699 57.7818 10.722 57.7818 10.722 C 57.7818 10.722 58.1911 3.7568 60.0708 3.4662 C 61.9532 3.1762 64.4382 9.6972 64.4382 9.6972 C 64.4382 9.6972 71.189 7.934 72.0441 9.6337 C 72.9026 11.3313 67.4688 15.7107 67.4688 15.7107 C 67.4688 15.7107 71.2319 21.5877 69.8777 22.9265 Z "/>
      <path id="Star_1_" fill="#FFFFFF" d="M 65.6592 18.9665 C 64.9789 19.6392 62.0425 17.7221 62.0425 17.7221 C 62.0425 17.7221 59.8188 20.4333 58.9697 19.9953 C 58.1205 19.5573 59.0352 16.1741 59.0352 16.1741 C 59.0352 16.1741 55.7712 14.8943 55.9241 13.9526 C 56.078 13.0093 59.5785 12.8347 59.5785 12.8347 C 59.5785 12.8347 59.7847 9.334 60.7305 9.1892 C 61.6749 9.0435 62.9219 12.32 62.9219 12.32 C 62.9219 12.32 66.3161 11.4345 66.7457 12.2878 C 67.1782 13.1417 64.4485 15.3411 64.4485 15.3411 C 64.4485 15.3411 66.3369 18.2943 65.6592 18.9665 Z " stroke-width="1.2762814410545933"/>
    </g>
  </g>
</svg>