<svg xmlns="http://www.w3.org/2000/svg" xmlns:xlink="http://www.w3.org/1999/xlink" version="1.1" width="41.48006077013264" height="38.63858432970295" viewBox="0.016220056008052097 -0.24380478959207608 41.48006077013264 38.63858432970295">
  <!-- Exported by Scratch - http://scratch.mit.edu/ -->
  <g id="Gift">
    <g id="Box">
      <path id="Box_Fill" fill="#1F519B" d="M 4.4269 9.5141 L 5.6821 31.1718 L 18.5364 37.5285 L 34.2543 30.6129 L 35.7476 9.5141 L 18.9555 4.9737 L 4.4269 9.5141 " stroke-width="1.117759897329904"/>
      <path id="Box_Top" fill="#3579BC" d="M 4.4269 9.5141 L 18.8627 14.1483 L 35.8616 9.5141 L 18.9555 4.9737 L 4.4269 9.5141 " stroke-width="1.117759897329904"/>
      <path id="Box_Side" fill="#2964AA" d="M 18.8627 14.1483 L 18.5364 37.5285 L 34.2543 30.6129 L 35.8616 9.5141 L 18.8627 14.1483 " stroke-width="1.117759897329904"/>
      <path id="Box_Outline" d="M 18.5297 37.8359 L 5.4127 31.3484 L 4.1363 9.3129 L 18.9499 4.6831 L 36.0427 9.3051 L 34.5214 30.7996 L 18.5297 37.8359 L 18.5297 37.8359 Z M 5.9515 30.993 L 18.5431 37.22 L 33.9883 30.424 L 35.4537 9.7231 L 18.9611 5.2644 L 4.7186 9.7153 L 5.9515 30.993 L 5.9515 30.993 Z " stroke-width="1.117759897329904" fill="undefined"/>
    </g>
    <path id="R_Ribbon" fill="#CECECE" stroke="#000000" stroke-width="0.558879948664952" d="M 10.0134 7.6754 L 24.9322 12.4951 C 24.9322 12.4951 24.2649 35.312 24.1978 35.3422 C 24.1307 35.3723 29.714 33.0921 29.714 33.0921 L 30.7099 10.9191 L 14.9394 6.0311 L 10.0134 7.6754 Z "/>
    <path id="L_Ribbon" fill="#CECECE" stroke="#000000" stroke-width="0.558879948664952" d="M 24.4046 6.3709 L 9.032 10.9929 L 9.3942 33.3179 L 13.8049 35.4998 L 13.7333 12.5019 L 29.714 7.8374 L 24.4046 6.3709 "/>
    <g id="Bow">
      <g id="ID0.16421956615522504">
        <path id="ID0.3979996433481574" fill="#CECECE" d="M 29.1741 10.9772 C 24.6907 10.9772 20.6601 10.225 19.3881 9.9612 L 20.023 9.0882 C 21.143 9.1475 22.2462 9.1776 23.307 9.1776 C 33.6272 9.1776 38.3732 6.4235 39.8576 5.3225 C 39.5838 6.6023 38.4459 8.0934 38.4336 8.1113 L 38.1877 8.4299 L 38.5733 8.5483 C 39.0752 8.7037 39.557 8.7808 39.9482 8.8177 C 37.2734 10.2507 33.6541 10.9772 29.1741 10.9772 L 29.1741 10.9772 Z " stroke-width="1.117759897329904"/>
        <path id="ID0.905133131891489" d="M 39.3423 6.0054 C 39.0081 6.8024 38.4783 7.5938 38.2112 7.9403 L 37.7216 8.5785 L 38.4906 8.8155 C 38.6762 8.8725 38.8584 8.9194 39.0338 8.9574 C 36.4909 10.1132 33.1846 10.6978 29.1741 10.6978 C 25.1334 10.6978 21.4627 10.083 19.871 9.7734 L 20.1605 9.3755 C 21.2335 9.4291 22.2909 9.4571 23.3081 9.4571 C 32.4514 9.456 37.2801 7.292 39.3423 6.0054 M 40.193 4.6831 C 40.193 4.6831 35.96 8.8982 23.3081 8.8982 C 22.2294 8.8982 21.0916 8.868 19.8866 8.8009 L 18.9086 10.1445 C 18.9086 10.1445 23.668 11.2578 29.173 11.2578 C 33.2248 11.2578 37.6791 10.6553 40.9374 8.5617 C 40.9374 8.5617 40.8178 8.5718 40.6132 8.5718 C 40.2064 8.5718 39.4597 8.5305 38.6538 8.2823 C 38.6549 8.2801 40.2857 6.1619 40.193 4.6831 L 40.193 4.6831 Z " stroke-width="1.117759897329904" fill="undefined"/>
      </g>
      <g id="ID0.7600986659526825">
        <path id="ID0.16094404179602861" fill="#CECECE" d="M 9.1058 11.2678 C 5.8654 11.2678 3.2532 10.5413 1.3284 9.1039 C 1.6179 9.0647 1.9712 8.9854 2.3389 8.8278 L 2.625 8.7059 L 2.473 8.4343 C 2.4641 8.4176 1.6928 7.0226 1.4581 5.7595 C 2.7189 6.9611 6.2041 9.466 13.3589 9.466 C 14.1078 9.466 14.888 9.4381 15.6771 9.3811 L 16.1421 10.2619 C 15.2021 10.5301 12.3138 11.2678 9.1058 11.2678 L 9.1058 11.2678 Z " stroke-width="1.117759897329904"/>
        <path id="ID0.39298297418281436" d="M 1.9589 6.5543 C 3.6523 7.8699 7.1531 9.7466 13.3589 9.7466 C 14.0575 9.7466 14.7807 9.722 15.5151 9.6739 L 15.7319 10.0853 C 14.5661 10.3949 11.9628 10.9873 9.1047 10.9873 C 6.2119 10.9873 3.8356 10.4005 2.017 9.2402 C 2.1567 9.1978 2.3009 9.1475 2.4473 9.0849 L 3.0196 8.8412 L 2.7167 8.298 C 2.5401 7.9805 2.2037 7.2897 1.9589 6.5543 M 1.115 4.9737 C 1.0468 6.4525 2.2305 8.5718 2.2305 8.5718 C 1.6459 8.8199 1.1049 8.8613 0.8098 8.8613 C 0.6623 8.8613 0.5751 8.8512 0.5751 8.8512 C 2.938 10.9448 6.1683 11.5473 9.1069 11.5473 C 13.0985 11.5473 16.5501 10.434 16.5501 10.434 L 15.8414 9.0904 C 14.9685 9.1575 14.1424 9.1877 13.3611 9.1877 C 4.1843 9.1888 1.115 4.9737 1.115 4.9737 L 1.115 4.9737 Z " stroke-width="1.117759897329904" fill="undefined"/>
      </g>
      <path id="ID0.8502797214314342" fill="#CECECE" stroke="#000000" stroke-width="0.558879948664952" d="M 18.5364 7.2786 C 18.5364 7.2786 22.5178 4.1488 23.9854 2.4722 C 25.4531 0.7956 28.8958 -0.7335 29.3496 1.2583 C 29.8034 3.2502 29.7844 3.0881 31.0061 4.0661 C 32.2278 5.0442 33.0672 7.5938 29.2244 8.9563 C 25.3815 10.3189 21.7734 10.5871 19.5725 10.273 C 17.3717 9.9589 17.8322 7.8386 18.5364 7.2786 Z "/>
      <path id="ID0.009513366967439651" fill="#CECECE" stroke="#000000" stroke-width="0.558879948664952" d="M 16.3355 6.8773 C 16.3355 6.8773 14.2989 4.6708 13.2505 4.0192 C 12.202 3.3675 10.9915 1.6205 9.99 2.9707 C 8.9885 4.321 7.5913 4.6474 6.6132 5.6019 C 5.6352 6.5565 6.8457 7.2551 8.6386 8.0476 C 10.4315 8.8401 14.7382 9.4213 16.3344 9.5141 C 17.9305 9.6069 17.1615 7.5233 16.3355 6.8773 Z "/>
      <path id="ID0.3380579291842878" fill="#CECECE" stroke="#000000" stroke-width="0.558879948664952" d="M 16.0683 10.3759 C 16.7714 10.7693 17.1749 11.1907 19.283 10.5894 C 19.6765 10.4776 19.7458 9.9567 19.188 8.839 C 18.6291 7.7212 19.9336 7.1154 18.4894 6.8359 C 17.0453 6.5565 15.7878 6.6951 15.8347 7.6742 C 15.8817 8.6534 15.0378 9.8002 16.0683 10.3759 Z "/>
    </g>
  </g>
</svg>