<svg version="1.1" xmlns="http://www.w3.org/2000/svg" xmlns:xlink="http://www.w3.org/1999/xlink" width="72.63833" height="77.19364" viewBox="0,0,72.63833,77.19364"><defs><linearGradient x1="212.9" y1="212.506" x2="272.4" y2="212.506" gradientUnits="userSpaceOnUse" id="color-1"><stop offset="0" stop-color="#cccccc"/><stop offset="1" stop-color="#ffffff"/></linearGradient></defs><g transform="translate(-204.23084,-192.20137)"><g data-paper-data="{&quot;isPaintingLayer&quot;:true}" fill-rule="nonzero" stroke-linejoin="miter" stroke-miterlimit="10" stroke-dasharray="" stroke-dashoffset="0" style="mix-blend-mode: normal"><g fill="#ffffff"><path d="M275.8,209.8716l-1.75,13.4085l-4.25,3.8052l-6.75,2.1743l-9.75,-0.1812l4.35,-3.8051l2.75,-5.9795l1.5,-5.4359l1.4,-7.9726l0.5,-13.2274l11.75,0.5436z" stroke="#000000" stroke-width="0.8733" stroke-linecap="round"/><path d="M275.8754,202.5734l-12.7157,-0.6776l0.5133,-5.0599l12.7157,0.6777z" stroke="#000000" stroke-width="0.87296" stroke-linecap="butt"/><path d="M274.8,201.3455l-10,0.0073" stroke="#d0cdd2" stroke-width="1.41436" stroke-linecap="round"/><path d="M274.1047,198.4106l-9.4902,-0.2247" stroke="#d0cdd2" stroke-width="1.40092" stroke-linecap="round"/><path d="M264.9,199.7619l9.55,0.1427" stroke="#d0cdd2" stroke-width="1.48361" stroke-linecap="round"/></g><g fill="#ffffff"><path d="M205.5,193.9424l11.75,-0.5436l1.1,13.4085l1.25,8.8787l2,5.7983l1.75,5.7982l4.4,2.5368l-9.75,0.1812l-6.75,-2.1744l-4.25,-3.8051l-1.75,-13.4085z" stroke="#000000" stroke-width="0.8733" stroke-linecap="round"/><path d="M204.7113,198.2545l12.7157,-0.6777l0.5133,5.0599l-12.7157,0.6776z" stroke="#000000" stroke-width="0.87296" stroke-linecap="butt"/><path d="M216.25,202.0937l-10,-0.0073" stroke="#d0cdd2" stroke-width="1.41436" stroke-linecap="round"/><path d="M206.9453,199.1079l9.4902,-0.2247" stroke="#d0cdd2" stroke-width="1.40092" stroke-linecap="round"/><path d="M206.65,200.6018l9.55,-0.1427" stroke="#d0cdd2" stroke-width="1.48361" stroke-linecap="round"/></g><g fill="#ffb856" stroke-linecap="butt"><path d="M241.4267,250.1596l23.3059,-4.5872l6.8794,18.3606l-23.3059,4.5872z" stroke="none" stroke-width="0.8205"/><path d="M242.3779,252.2587l23.5153,-4.6284l6.2243,16.612l-23.5153,4.6284z" stroke="#000000" stroke-width="0.91587"/></g><g fill="#ffad50" stroke-linecap="butt"><path d="M219.3471,244.464l22.4731,4.9798l-7.6748,18.1943l-22.4731,-4.9798z" stroke="none" stroke-width="0.80685"/><path d="M218.6635,246.612l21.9747,4.8693l-6.9439,16.4615l-21.9746,-4.8693z" stroke="#000000" stroke-width="0.87983"/></g><path d="M215.15,222.0403l1.75,-2.1802l2.5,-2.1477l4.5,-1.9524l8.5,-2.2778l10,-0.9762l17.75,2.6032l5,2.2127l3,2.1802l1.5,3.0913l1.5,3.9699l1.25,5.0763v7.4517l-1,6.866l-2.5,5.7596h-52.5l-3.5,-7.1914v-5.7921v-9.7946l0.5,-3.4493z" fill="url(#color-1)" stroke="none" stroke-width="0.84367" stroke-linecap="round"/><path d="M213.0321,235.8284h59.55v4.3488h-59.55z" fill="#b27a00" stroke="none" stroke-width="0.88361" stroke-linecap="butt"/><path d="M213.9,235.7363h58v4.4393h-58z" fill="none" stroke="#000000" stroke-width="0.83732" stroke-linecap="butt"/><path d="M224.65,215.8969l18,1.0872l20.25,-1.2683l4.25,2.7179l2.5,5.0735l2.5,5.4359l0.25,7.9726l-0.5,7.6103l-2.5,6.7043l-52.5,0.7247l-3.5,-7.0666v-19.7504l2.25,-4.1676l3.5,-3.4427z" fill="none" stroke="#000000" stroke-width="0.8733" stroke-linecap="round"/><g fill="#b16f00" stroke-linecap="round"><g><path d="M231.6,199.0725l21.1423,0.6869l4.6311,4.3961l1.7451,4.9915l2.282,10.7614l-19.1958,1.4196l-15.907,-1.8775l-0.2685,-11.2194l1.8793,-5.4494z" stroke="#ffffff" stroke-width="2.29815"/><path d="M228.1775,216.2485l0.5617,-10.0745l2.5275,-5.4952" stroke="#f9f9f9" stroke-width="2.04974"/><path d="M231.7161,216.2485l0.3931,-9.7997l1.6851,-5.5868" stroke="#f9f9f9" stroke-width="2.04974"/><path d="M235.4793,217.1644l0.2808,-9.2503l0.4494,-6.9605" stroke="#f9f9f9" stroke-width="2.04974"/><path d="M239.2425,200.9536l0.7302,5.4036l-0.5617,11.0819" stroke="#f9f9f9" stroke-width="2.04974"/><path d="M242.2194,200.6788l1.4042,5.2204l0.8425,12.7764" stroke="#f9f9f9" stroke-width="2.04974"/><path d="M246.4319,201.5031l1.7974,3.2971z" stroke="#f9f9f9" stroke-width="2.04974"/><path d="M248.2293,204.8002v13.5548" stroke="#f9f9f9" stroke-width="2.04974"/><path d="M245.7579,200.8162l1.348,1.6943z" stroke="#f9f9f9" stroke-width="2.04974"/><path d="M248.5663,200.862l2.6399,3.6634l0.7301,13.5548" stroke="#f9f9f9" stroke-width="2.04974"/><path d="M252.3295,200.6788l2.2467,4.0298l1.2919,13.738" stroke="#f9f9f9" stroke-width="2.04974"/></g><path d="M230.95,197.9208h21.5l6.25,5.9532l3.75,16.9435l-20.75,1.3738l-10.5,-1.1449l-7,-0.4579l0.5,-12.3642l1.75,-5.2662z" stroke="#000000" stroke-width="0.95886"/></g></g></g></svg>