<svg version="1.1" xmlns="http://www.w3.org/2000/svg" xmlns:xlink="http://www.w3.org/1999/xlink" width="87.70237" height="98.49963" viewBox="0,0,87.70237,98.49963"><defs><linearGradient x1="212.9" y1="191.0803" x2="272.4" y2="191.0803" gradientUnits="userSpaceOnUse" id="color-1"><stop offset="0" stop-color="#cccccc"/><stop offset="1" stop-color="#ffffff"/></linearGradient></defs><g transform="translate(-197.863,-170.39616)"><g data-paper-data="{&quot;isPaintingLayer&quot;:true}" fill-rule="nonzero" stroke-linejoin="miter" stroke-miterlimit="10" stroke-dasharray="" stroke-dashoffset="0" style="mix-blend-mode: normal"><g fill="#ffffff"><path d="M285.0238,237.726l-11.4731,2.6264l-3.2574,-16.3249l-3.0468,-9.6571l-2.6152,-6.4938l-3.9614,-6.9604l-5.0848,-3.9974l9.5766,-1.8446l7.1106,1.5758l4.9862,4.014l4.5279,16.342z" stroke="#000000" stroke-width="0.95689" stroke-linecap="round"/><path d="M284.8995,232.2526l-12.3973,2.9532l-1.5637,-6.1913l12.3974,-2.9531z" stroke="#000000" stroke-width="0.95685" stroke-linecap="butt"/><path d="M272.7274,229.2623l9.8625,-1.6523" stroke="#d0cdd2" stroke-width="1.41445" stroke-linecap="round"/><path d="M282.5016,231.5283l-9.3114,1.8554" stroke="#d0cdd2" stroke-width="1.4825" stroke-linecap="round"/><path d="M282.4772,229.6629l-9.3875,1.7636" stroke="#d0cdd2" stroke-width="1.52257" stroke-linecap="round"/></g><g fill="#ffa652" stroke-linecap="butt"><path d="M218.8562,238.0936l22.9885,4.8764l-4.6974,22.1448l-22.9885,-4.8763z" stroke="none" stroke-width="0.87468"/><path d="M218.4514,240.6661l22.4786,4.7682l-4.2501,20.0358l-22.4785,-4.7681z" stroke="#000000" stroke-width="0.94518"/></g><path d="M215.15,204.2349l1.75,-3.008l2.5,-2.9632l4.5,-2.6938l8.5,-3.1427l10,-1.3469l17.75,3.5917l5,3.053l3,3.008l1.5,4.2652l1.5,5.4773l1.25,7.0038v10.2813l-1,9.4731l-2.5,7.9466h-52.5l-3.5,-9.9221v-7.9915v-13.5138l0.5,-4.759z" fill="url(#color-1)" stroke="none" stroke-width="0.95034" stroke-linecap="round"/><path d="M213.0321,223.25h59.55v6h-59.55z" fill="#996900" stroke="none" stroke-width="1.00902" stroke-linecap="butt"/><path d="M213.9,223.125h58v6.125h-58z" fill="none" stroke="#000000" stroke-width="0.93958" stroke-linecap="butt"/><path d="M224.65,195.75l18,1.5l20.25,-1.75l4.25,3.75l2.5,7l2.5,7.5l0.25,11l-0.5,10.5l-2.5,9.25l-52.5,1l-3.5,-9.75v-27.25l2.25,-5.75l3.5,-4.75z" fill="none" stroke="#000000" stroke-width="1" stroke-linecap="round"/><g fill="#ffffff"><path d="M203.9879,216.9725l6.3361,-16.5924l5.4194,-3.7216l7.2662,-0.9903l9.344,2.7943l-5.1244,2.0691l-3.6983,6.9139l-3.9394,6.8482l-4.2836,10.9628l-5.7091,16.7633l-11.148,-3.7811z" stroke="#000000" stroke-width="0.97795" stroke-linecap="round"/><path d="M201.4292,226.2508l12.0333,4.2055l-2.2492,6.3l-12.0332,-4.2056z" stroke="#000000" stroke-width="0.97794" stroke-linecap="butt"/><path d="M202.0367,227.9139l9.6506,2.6204" stroke="#d0cdd2" stroke-width="1.41447" stroke-linecap="round"/><path d="M201.6457,231.9976l9.0783,2.7814" stroke="#d0cdd2" stroke-width="1.50348" stroke-linecap="round"/><path d="M201.8925,230.0455l9.1644,2.6927" stroke="#d0cdd2" stroke-width="1.53278" stroke-linecap="round"/></g><g fill="#b17800" stroke-linecap="round"><g><path d="M231.6,172.5073l21.1423,0.9477l4.6311,6.0655l1.7451,6.8868l2.282,14.8477l-19.1958,1.9586l-15.907,-2.5904l-0.2685,-15.4796l1.8793,-7.5186z" stroke="#ffffff" stroke-width="2.60719"/><path d="M228.1775,196.2409l0.5617,-13.9l2.5275,-7.5818" stroke="#f9f9f9" stroke-width="2.39111"/><path d="M231.7161,196.2409l0.3931,-13.5209l1.6851,-7.7082" stroke="#f9f9f9" stroke-width="2.39111"/><path d="M235.4793,197.5045l0.2808,-12.7627l0.4494,-9.6036" stroke="#f9f9f9" stroke-width="2.39111"/><path d="M239.2425,175.1382l0.7302,7.4554l-0.5617,15.29" stroke="#f9f9f9" stroke-width="2.39111"/><path d="M242.2194,174.7591l1.4042,7.2027l0.8425,17.6277" stroke="#f9f9f9" stroke-width="2.39111"/><path d="M246.4319,175.8964l1.7974,4.5491z" stroke="#f9f9f9" stroke-width="2.39111"/><path d="M248.2293,180.4455v18.7018" stroke="#f9f9f9" stroke-width="2.39111"/><path d="M247.1059,177.2864l-1.348,-2.3378z" stroke="#f9f9f9" stroke-width="2.39111"/><path d="M248.5663,175.0118l2.6399,5.0546l0.7301,18.7018" stroke="#f9f9f9" stroke-width="2.39111"/><path d="M252.3295,174.7591l2.2467,5.56l1.2919,18.9545" stroke="#f9f9f9" stroke-width="2.39111"/></g><path d="M230.95,170.9659h21.5l6.25,8.2136l3.75,23.3773l-20.75,1.8955l-10.5,-1.5796l-7,-0.6318l0.5,-17.0591l1.75,-7.2659z" stroke="#000000" stroke-width="1.13947"/></g><g fill="#ffa652" stroke-linecap="butt"><path d="M244.0009,244.5511l23.645,-4.9128l4.8352,23.2712l-23.6451,4.9128z" stroke="none" stroke-width="0.90839"/><path d="M244.2545,244.8835l23.8575,-4.957l4.8608,23.3943l-23.8575,4.957z" stroke="#000000" stroke-width="1.04523"/></g></g></g></svg>