<svg xmlns="http://www.w3.org/2000/svg" xmlns:xlink="http://www.w3.org/1999/xlink" version="1.1" width="224.75" height="45" viewBox="0 0.75 224.75 45">
  <!-- Exported by Scratch - http://scratch.mit.edu/ -->
  <g id="ID0.7051118859089911">
    <path id="ID0.14512195903807878" fill="#FFFF00" stroke="#000000" stroke-width="0.12524948185415227" d="M 96.446 29.7861 L 116.9772 29.7861 L 116.9772 32.9227 L 96.446 32.9227 L 96.446 29.7861 Z "/>
    <g id="ID0.5551520101726055">
      <path id="ID0.5600243406370282" fill="#000000" stroke="#000000" stroke-width="0.1374987009445923" d="M 106.1795 30.3782 L 106.5339 30.3782 L 106.5339 32.4312 L 106.1795 32.4312 L 106.1795 30.3782 Z "/>
      <path id="ID0.5600243406370282" fill="#000000" stroke="#000000" stroke-width="0.11303034719120902" d="M 106.1309 30.3796 L 106.4698 30.5413 L 105.5592 31.4645 L 105.2709 31.3154 L 106.1309 30.3796 Z "/>
      <path id="ID0.5600243406370282" fill="#000000" stroke="#000000" stroke-width="0.11303034719120902" d="M 106.5849 30.3773 L 106.2147 30.5514 L 107.1253 31.4746 L 107.4136 31.3255 L 106.5849 30.3773 Z "/>
    </g>
  </g>
  <path id="ID0.6524071265012026" fill="#666666" stroke="#000000" stroke-width="2" d="M 29.75 22 C 37.682 22 44.869 23.261 50.074 25.297 C 55.278 27.334 58.5 30.146 58.5 33.25 C 58.5 36.354 55.278 39.166 50.074 41.203 C 44.869 43.239 37.682 44.5 29.75 44.5 C 21.818 44.5 14.631 43.239 9.426 41.203 C 4.222 39.166 1 36.354 1 33.25 C 1 30.146 4.222 27.334 9.426 25.297 C 14.631 23.261 21.818 22 29.75 22 Z "/>
  <path id="ID0.6524071265012026" fill="#666666" stroke="#000000" stroke-width="2" d="M 69.5 20.75 C 77.432 20.75 84.619 22.011 89.824 24.047 C 95.028 26.084 98.25 28.896 98.25 32 C 98.25 35.104 95.028 37.916 89.824 39.953 C 84.619 41.989 77.432 43.25 69.5 43.25 C 61.568 43.25 54.381 41.989 49.176 39.953 C 43.972 37.916 40.75 35.104 40.75 32 C 40.75 28.896 43.972 26.084 49.176 24.047 C 54.381 22.011 61.568 20.75 69.5 20.75 Z "/>
  <path id="ID0.6524071265012026" fill="#666666" stroke="#000000" stroke-width="2" d="M 51.5 1.75 C 59.432 1.75 66.619 3.011 71.824 5.047 C 77.028 7.084 80.25 9.896 80.25 13 C 80.25 16.104 77.028 18.916 71.824 20.953 C 66.619 22.989 59.432 24.25 51.5 24.25 C 43.568 24.25 36.381 22.989 31.176 20.953 C 25.972 18.916 22.75 16.104 22.75 13 C 22.75 9.896 25.972 7.084 31.176 5.047 C 36.381 3.011 43.568 1.75 51.5 1.75 Z "/>
  <path id="ID0.6524071265012026" fill="#666666" stroke="#000000" stroke-width="2" d="M 101.5 19.75 C 109.432 19.75 116.619 21.011 121.824 23.047 C 127.028 25.084 130.25 27.896 130.25 31 C 130.25 34.104 127.028 36.916 121.824 38.953 C 116.619 40.989 109.432 42.25 101.5 42.25 C 93.568 42.25 86.381 40.989 81.176 38.953 C 75.972 36.916 72.75 34.104 72.75 31 C 72.75 27.896 75.972 25.084 81.176 23.047 C 86.381 21.011 93.568 19.75 101.5 19.75 Z "/>
  <path id="ID0.6524071265012026" fill="#666666" stroke="#000000" stroke-width="2" d="M 105 2.25 C 112.932 2.25 120.119 3.511 125.324 5.547 C 130.528 7.584 133.75 10.396 133.75 13.5 C 133.75 16.604 130.528 19.416 125.324 21.453 C 120.119 23.489 112.932 24.75 105 24.75 C 97.068 24.75 89.881 23.489 84.676 21.453 C 79.472 19.416 76.25 16.604 76.25 13.5 C 76.25 10.396 79.472 7.584 84.676 5.547 C 89.881 3.511 97.068 2.25 105 2.25 Z "/>
  <path id="ID0.6524071265012026" fill="#666666" stroke="#000000" stroke-width="2" d="M 149 22.25 C 156.932 22.25 164.119 23.511 169.324 25.547 C 174.528 27.584 177.75 30.396 177.75 33.5 C 177.75 36.604 174.528 39.416 169.324 41.453 C 164.119 43.489 156.932 44.75 149 44.75 C 141.068 44.75 133.881 43.489 128.676 41.453 C 123.472 39.416 120.25 36.604 120.25 33.5 C 120.25 30.396 123.472 27.584 128.676 25.547 C 133.881 23.511 141.068 22.25 149 22.25 Z "/>
  <path id="ID0.6524071265012026" fill="#666666" stroke="#000000" stroke-width="2" d="M 157 2.75 C 164.932 2.75 172.119 4.011 177.324 6.047 C 182.528 8.084 185.75 10.896 185.75 14 C 185.75 17.104 182.528 19.916 177.324 21.953 C 172.119 23.989 164.932 25.25 157 25.25 C 149.068 25.25 141.881 23.989 136.676 21.953 C 131.472 19.916 128.25 17.104 128.25 14 C 128.25 10.896 131.472 8.084 136.676 6.047 C 141.881 4.011 149.068 2.75 157 2.75 Z "/>
  <path id="ID0.6524071265012026" fill="#666666" stroke="#000000" stroke-width="2" d="M 195 21.25 C 202.932 21.25 210.119 22.511 215.324 24.547 C 220.528 26.584 223.75 29.396 223.75 32.5 C 223.75 35.604 220.528 38.416 215.324 40.453 C 210.119 42.489 202.932 43.75 195 43.75 C 187.068 43.75 179.881 42.489 174.676 40.453 C 169.472 38.416 166.25 35.604 166.25 32.5 C 166.25 29.396 169.472 26.584 174.676 24.547 C 179.881 22.511 187.068 21.25 195 21.25 Z "/>
</svg>