<svg xmlns="http://www.w3.org/2000/svg" xmlns:xlink="http://www.w3.org/1999/xlink" version="1.1" width="359.14037615554145" height="328.11806780593207" viewBox="0.9298119222292787 0.9406118070254212 359.14037615554145 328.11806780593207">
  <!-- Exported by Scratch - http://scratch.mit.edu/ -->
  <g id="ID0.8560157683677971">
    <path id="ID0.3641564240679145" fill="#006622" stroke="#000000" stroke-width="2" d="M 122 56 C 146.554 56 168.804 62.387 184.916 72.706 C 201.027 83.024 211 97.274 211 113 C 211 128.726 201.027 142.976 184.916 153.294 C 168.804 163.613 146.554 170 122 170 C 97.446 170 75.196 163.613 59.084 153.294 C 42.973 142.976 33 128.726 33 113 C 33 97.274 42.973 83.024 59.084 72.706 C 75.196 62.387 97.446 56 122 56 Z "/>
    <g id="ID0.7051118859089911">
      <path id="ID0.14512195903807878" fill="#FFFF00" stroke="#000000" stroke-width="0.0037954390520544322" d="M 195.0971 294.4695 L 195.7193 294.4695 L 195.7193 294.5645 L 195.0971 294.5645 L 195.0971 294.4695 Z "/>
      <g id="ID0.5551520101726055">
        <path id="ID0.5600243406370282" fill="#000000" stroke="#000000" stroke-width="0.004166627480086628" d="M 195.3786 294.4885 L 195.3894 294.4885 L 195.3894 294.5507 L 195.3786 294.5507 L 195.3786 294.4885 Z "/>
        <path id="ID0.5600243406370282" fill="#000000" stroke="#000000" stroke-width="0.0034251619846293753" d="M 195.4136 294.5004 L 195.4238 294.5054 L 195.3962 294.5333 L 195.3875 294.5288 L 195.4136 294.5004 Z "/>
        <path id="ID0.5600243406370282" fill="#000000" stroke="#000000" stroke-width="0.0034251619846293753" d="M 195.3874 294.5001 L 195.3762 294.5054 L 195.4038 294.5333 L 195.4125 294.5288 L 195.3874 294.5001 Z "/>
      </g>
    </g>
    <path id="ID0.6524071265012026" fill="#666666" stroke="#000000" stroke-width="0.06060606241226196" d="M 193.0545 294.3 C 193.2949 294.3 193.5127 294.3382 193.6704 294.3999 C 193.8281 294.4616 193.9258 294.5468 193.9258 294.6409 C 193.9258 294.735 193.8281 294.8202 193.6704 294.8819 C 193.5127 294.9436 193.2949 294.9818 193.0545 294.9818 C 192.8142 294.9818 192.6085 294.9576 192.4387 294.8819 C 192.3024 294.8232 192.2288 294.7045 192.2439 294.5727 C 192.2288 294.5012 192.314 294.4467 192.4387 294.3999 C 192.6135 294.3362 192.8142 294.3 193.0545 294.3 Z "/>
    <path id="ID0.6524071265012026" fill="#666666" stroke="#000000" stroke-width="0.06060606241226196" d="M 194.3045 294.25 C 194.5449 294.25 194.7627 294.2882 194.9204 294.3499 C 195.0781 294.4116 195.1758 294.4968 195.1758 294.5909 C 195.1758 294.685 195.0781 294.7702 194.9204 294.8319 C 194.7627 294.8936 194.5449 294.9318 194.3045 294.9318 C 194.0642 294.9318 193.8464 294.8936 193.6887 294.8319 C 193.531 294.7702 193.4333 294.685 193.4333 294.5909 C 193.4333 294.4968 193.531 294.4116 193.6887 294.3499 C 193.8464 294.2882 194.0642 294.25 194.3045 294.25 Z "/>
    <path id="ID0.6524071265012026" fill="#666666" stroke="#000000" stroke-width="0.06060606241226196" d="M 193.7545 293.65 C 193.9949 293.65 194.2127 293.6882 194.3704 293.7499 C 194.5281 293.8116 194.6258 293.8968 194.6258 293.9909 C 194.6258 294.085 194.5281 294.1702 194.3704 294.2319 C 194.2127 294.2936 193.9949 294.3318 193.7545 294.3318 C 193.5142 294.3318 193.2964 294.2936 193.1387 294.2319 C 192.981 294.1702 192.8833 294.085 192.8833 293.9909 C 192.8833 293.8968 192.981 293.8116 193.1387 293.7499 C 193.2964 293.6882 193.5142 293.65 193.7545 293.65 Z "/>
    <path id="ID0.6524071265012026" fill="#666666" stroke="#000000" stroke-width="0.06060606241226196" d="M 195.2545 294.2 C 195.4949 294.2 195.7127 294.2382 195.8704 294.2999 C 196.0281 294.3616 196.1258 294.4468 196.1258 294.5409 C 196.1258 294.635 196.0281 294.7202 195.8704 294.7819 C 195.7127 294.8436 195.4949 294.8818 195.2545 294.8818 C 195.0142 294.8818 194.7964 294.8436 194.6387 294.7819 C 194.481 294.7202 194.3833 294.635 194.3833 294.5409 C 194.3833 294.4468 194.481 294.3616 194.6387 294.2999 C 194.7964 294.2382 195.0142 294.2 195.2545 294.2 Z "/>
    <path id="ID0.6524071265012026" fill="#666666" stroke="#000000" stroke-width="0.06060606241226196" d="M 195.3045 293.7 C 195.5449 293.7 195.7627 293.7382 195.9204 293.7999 C 196.0781 293.8616 196.1758 293.9468 196.1758 294.0409 C 196.1758 294.135 196.0781 294.2202 195.9204 294.2819 C 195.7627 294.3436 195.5449 294.3818 195.3045 294.3818 C 195.0642 294.3818 194.8464 294.3436 194.6887 294.2819 C 194.531 294.2202 194.4333 294.135 194.4333 294.0409 C 194.4333 293.9468 194.531 293.8616 194.6887 293.7999 C 194.8464 293.7382 195.0642 293.7 195.3045 293.7 Z "/>
    <path id="ID0.6524071265012026" fill="#666666" stroke="#000000" stroke-width="0.06060606241226196" d="M 196.7045 294.3 C 196.9449 294.3 197.1627 294.3382 197.3204 294.3999 C 197.4781 294.4616 197.5758 294.5468 197.5758 294.6409 C 197.5758 294.735 197.4781 294.8202 197.3204 294.8819 C 197.1627 294.9436 196.9449 294.9818 196.7045 294.9818 C 196.4642 294.9818 196.2464 294.9436 196.0887 294.8819 C 195.931 294.8202 195.8333 294.735 195.8333 294.6409 C 195.8333 294.5468 195.931 294.4616 196.0887 294.3999 C 196.2464 294.3382 196.4642 294.3 196.7045 294.3 Z "/>
    <path id="ID0.6524071265012026" fill="#666666" stroke="#000000" stroke-width="0.06060606241226196" d="M 196.9545 293.7 C 197.1949 293.7 197.4127 293.7382 197.5704 293.7999 C 197.7281 293.8616 197.8258 293.9468 197.8258 294.0409 C 197.8258 294.135 197.7281 294.2202 197.5704 294.2819 C 197.4127 294.3436 197.1949 294.3818 196.9545 294.3818 C 196.7142 294.3818 196.4964 294.3436 196.3387 294.2819 C 196.181 294.2202 196.0833 294.135 196.0833 294.0409 C 196.0833 293.9468 196.181 293.8616 196.3387 293.7999 C 196.4964 293.7382 196.7142 293.7 196.9545 293.7 Z "/>
    <path id="ID0.6524071265012026" fill="#666666" stroke="#000000" stroke-width="0.06060606241226196" d="M 198.0545 294.25 C 198.2949 294.25 198.5127 294.2882 198.6704 294.3499 C 198.8281 294.4116 198.9258 294.4968 198.9258 294.5909 C 198.9258 294.685 198.8281 294.7702 198.6704 294.8319 C 198.5127 294.8936 198.2949 294.9318 198.0545 294.9318 C 197.8142 294.9318 197.5964 294.8936 197.4387 294.8319 C 197.281 294.7702 197.1833 294.685 197.1833 294.5909 C 197.1833 294.4968 197.281 294.4116 197.4387 294.3499 C 197.5964 294.2882 197.8142 294.25 198.0545 294.25 Z "/>
    <path id="ID0.038849669974297285" fill="#995900" stroke="#000000" stroke-width="2.003381239833938" stroke-linecap="round" d="M 51 284.8432 L 161 283.8399 L 159 101.0243 L 230 100.0209 L 236 327.9885 L 2 327.9885 L 8 312.9378 L 20 297.8872 L 51 284.8432 Z "/>
    <path id="ID0.09964071353897452" fill="none" stroke="#663B00" stroke-width="2" stroke-linecap="round" d="M 171 116 L 171 163 "/>
    <path id="ID0.0833345390856266" fill="none" stroke="#663B00" stroke-width="2" stroke-linecap="round" d="M 186 105 L 185 172 "/>
    <path id="ID0.6746797440573573" fill="none" stroke="#663B00" stroke-width="2" stroke-linecap="round" d="M 203 131.95 L 205 178.95 "/>
    <path id="ID0.7339316494762897" fill="none" stroke="#663B00" stroke-width="2" stroke-linecap="round" d="M 220 108 L 220 178 "/>
    <path id="ID0.3643505503423512" fill="none" stroke="#663B00" stroke-width="0.06060606241226196" stroke-linecap="round" d="M 198.0924 293.3 L 198.0924 294.7242 "/>
    <path id="ID0.7577131288126111" fill="none" stroke="#663B00" stroke-width="2" stroke-linecap="round" d="M 168 178 L 170 219 "/>
    <path id="ID0.3157559549435973" fill="none" stroke="#663B00" stroke-width="2" stroke-linecap="round" d="M 185 201 L 185 242 "/>
    <path id="ID0.5259083351120353" fill="none" stroke="#663B00" stroke-width="2" stroke-linecap="round" d="M 207 182 L 207 230 "/>
    <path id="ID0.5306832939386368" fill="none" stroke="#663B00" stroke-width="2" stroke-linecap="round" d="M 172 235 L 172 294 "/>
    <path id="ID0.4402362280525267" fill="none" stroke="#663B00" stroke-width="2" stroke-linecap="round" d="M 187 278 L 190 309 "/>
    <path id="ID0.32376628601923585" fill="none" stroke="#663B00" stroke-width="2" stroke-linecap="round" d="M 211 252 L 217 312 "/>
    <path id="ID0.14349524630233645" fill="none" stroke="#663B00" stroke-width="2" stroke-linecap="round" d="M 194 239 L 193 269 "/>
    <path id="ID0.5692618102766573" fill="none" stroke="#663B00" stroke-width="2" stroke-linecap="round" d="M 225 206 L 225 236 "/>
    <path id="ID0.1527024176903069" fill="none" stroke="#663B00" stroke-width="2" stroke-linecap="round" d="M 39 313 L 62 296 "/>
    <path id="ID0.7404324910603464" fill="none" stroke="#663B00" stroke-width="2" stroke-linecap="round" d="M 78 294 L 141 295 "/>
    <path id="ID0.5934421834535897" fill="none" stroke="#663B00" stroke-width="2" stroke-linecap="round" d="M 61 320 L 157 320 "/>
    <path id="ID0.20501573802903295" fill="none" stroke="#663B00" stroke-width="2" stroke-linecap="round" d="M 76 302 L 164 302 "/>
    <path id="ID0.5761372591368854" fill="none" stroke="#663B00" stroke-width="2" stroke-linecap="round" d="M 8 325 L 62 313 "/>
    <path id="ID0.6373671786859632" fill="#995900" stroke="#000000" stroke-width="1.9999999794226717" d="M 243.5103 44.8324 L 157.9988 134.631 L 142.0668 119.4596 L 227.5783 29.661 L 243.5103 44.8324 Z "/>
    <path id="ID0.8417429677210748" fill="none" stroke="#663B00" stroke-width="2" stroke-linecap="round" d="M 192 89 L 226 52 "/>
    <path id="ID0.011055781971663237" fill="none" stroke="#663B00" stroke-width="2" stroke-linecap="round" d="M 234 26.05 L 174 91.05 "/>
    <path id="ID0.7261597490869462" fill="#006622" stroke="#000000" stroke-width="2.1403761555414427" d="M 193.0031 2.0108 C 229.6859 2.0108 262.9262 10.4599 286.9963 24.1088 C 311.0654 37.7578 325.9643 56.6076 325.9643 77.4101 C 325.9643 98.2126 311.0654 117.0624 286.9963 130.7113 C 262.9262 144.3602 229.6859 152.8094 193.0031 152.8094 C 156.3203 152.8094 123.08 144.3602 99.0099 130.7113 C 74.9408 117.0624 60.0419 98.2126 60.0419 77.4101 C 60.0419 56.6076 74.9408 37.7578 99.0099 24.1088 C 123.08 10.4599 156.3203 2.0108 193.0031 2.0108 Z "/>
    <path id="ID0.3641564240679145" fill="#006622" stroke="#000000" stroke-width="2" d="M 270 52 C 294.554 52 316.804 58.387 332.916 68.706 C 349.027 79.024 359 93.274 359 109 C 359 124.726 349.027 138.976 332.916 149.294 C 316.804 159.613 294.554 166 270 166 C 245.446 166 223.196 159.613 207.084 149.294 C 190.973 138.976 181 124.726 181 109 C 181 93.274 190.973 79.024 207.084 68.706 C 223.196 58.387 245.446 52 270 52 Z "/>
  </g>
</svg>