<svg xmlns="http://www.w3.org/2000/svg" xmlns:xlink="http://www.w3.org/1999/xlink" version="1.1" width="134.44850969314575" height="33.37003755569458" viewBox="0.7308940887451172 -0.10533088445663452 134.44850969314575 33.37003755569458">
  <!-- Exported by Scratch - http://scratch.mit.edu/ -->
  <path id="ID0.6489545395597816" fill="#FF9400" stroke="#FF9400" stroke-width="1" d="M 1.75 1.75 L 133.75 1.75 L 133.75 16.75 L 1.75 16.75 L 1.75 1.75 Z "/>
  <path id="ID0.6489545395597816" fill="#CC7700" stroke="#FF9400" stroke-width="1" d="M 1.75 17.25 L 133.75 17.25 L 133.75 32.25 L 1.75 32.25 L 1.75 17.25 Z "/>
  <path id="ID0.8392949406988919" fill="none" stroke="#000000" stroke-width="2.029411792755127" d="M 1.7456 1.7456 L 134.1647 1.7456 L 134.1647 32.1868 L 1.7456 32.1868 L 1.7456 1.7456 Z "/>
  <g id="ID0.5563653986901045">
    <text id="ID0.16412566741928458" fill="#E5E5E5" text-anchor="start" font-family="Sans Serif" font-size="22" transform="matrix(1 0 0 1 11.65 0.05)" stroke-width="1" alignment-baseline="text-before-edge" xml:space="preserve"><tspan x="0" style="white-space: pre" dy="1.13em">PLAY</tspan></text>
    <text id="ID0.16412566741928458" fill="#FFFFFF" text-anchor="start" font-family="Sans Serif" font-size="22" transform="matrix(1 0 0 1 10.5 0.15)" stroke-width="1" alignment-baseline="text-before-edge" xml:space="preserve"><tspan x="0" style="white-space: pre" dy="1.13em">PLAY</tspan></text>
  </g>
  <g id="ID0.4420147663913667">
    <path id="ID0.688658619299531" fill="#E5E5E5" stroke="none" stroke-linecap="round" d="M 110.6034 5.8412 L 127.9446 17.0101 L 127.9446 16.8926 L 110.6034 27.5912 L 110.6034 5.8412 Z " stroke-width="1.175675630569458"/>
    <path id="ID0.688658619299531" fill="#FFFFFF" stroke="none" stroke-linecap="round" d="M 108.9534 6.1912 L 126.2946 17.3601 L 126.2946 17.2426 L 108.9534 27.9412 L 108.9534 6.1912 Z " stroke-width="1.175675630569458"/>
  </g>
</svg>