<svg xmlns="http://www.w3.org/2000/svg" xmlns:xlink="http://www.w3.org/1999/xlink" version="1.1" width="359.14037615554145" height="328.11806780593207" viewBox="0.42981192222927866 0.9406118070254212 359.14037615554145 328.11806780593207">
  <!-- Exported by Scratch - http://scratch.mit.edu/ -->
  <g id="ID0.8560157683677971">
    <path id="ID0.3641564240679145" fill="#006622" stroke="#000000" stroke-width="2" d="M 238.5 56 C 213.946 56 191.696 62.387 175.584 72.706 C 159.473 83.024 149.5 97.274 149.5 113 C 149.5 128.726 159.473 142.976 175.584 153.294 C 191.696 163.613 213.946 170 238.5 170 C 263.054 170 285.304 163.613 301.416 153.294 C 317.527 142.976 327.5 128.726 327.5 113 C 327.5 97.274 317.527 83.024 301.416 72.706 C 285.304 62.387 263.054 56 238.5 56 Z "/>
    <g id="ID0.7051118859089911">
      <path id="ID0.14512195903807878" fill="#FFFF00" stroke="#000000" stroke-width="0.0037954390520544322" d="M 165.4029 294.4695 L 164.7807 294.4695 L 164.7807 294.5645 L 165.4029 294.5645 L 165.4029 294.4695 Z "/>
      <g id="ID0.5551520101726055">
        <path id="ID0.5600243406370282" fill="#000000" stroke="#000000" stroke-width="0.004166627480086628" d="M 165.1214 294.4885 L 165.1106 294.4885 L 165.1106 294.5507 L 165.1214 294.5507 L 165.1214 294.4885 Z "/>
        <path id="ID0.5600243406370282" fill="#000000" stroke="#000000" stroke-width="0.0034251619846293753" d="M 165.0864 294.5004 L 165.0762 294.5054 L 165.1038 294.5333 L 165.1125 294.5288 L 165.0864 294.5004 Z "/>
        <path id="ID0.5600243406370282" fill="#000000" stroke="#000000" stroke-width="0.0034251619846293753" d="M 165.1126 294.5001 L 165.1238 294.5054 L 165.0962 294.5333 L 165.0875 294.5288 L 165.1126 294.5001 Z "/>
      </g>
    </g>
    <path id="ID0.6524071265012026" fill="#666666" stroke="#000000" stroke-width="0.06060606241226196" d="M 167.4455 294.3 C 167.2051 294.3 166.9873 294.3382 166.8296 294.3999 C 166.6719 294.4616 166.5742 294.5468 166.5742 294.6409 C 166.5742 294.735 166.6719 294.8202 166.8296 294.8819 C 166.9873 294.9436 167.2051 294.9818 167.4455 294.9818 C 167.6858 294.9818 167.8915 294.9576 168.0613 294.8819 C 168.1976 294.8232 168.2712 294.7045 168.2561 294.5727 C 168.2712 294.5012 168.186 294.4467 168.0613 294.3999 C 167.8865 294.3362 167.6858 294.3 167.4455 294.3 Z "/>
    <path id="ID0.6524071265012026" fill="#666666" stroke="#000000" stroke-width="0.06060606241226196" d="M 166.1955 294.25 C 165.9551 294.25 165.7373 294.2882 165.5796 294.3499 C 165.4219 294.4116 165.3242 294.4968 165.3242 294.5909 C 165.3242 294.685 165.4219 294.7702 165.5796 294.8319 C 165.7373 294.8936 165.9551 294.9318 166.1955 294.9318 C 166.4358 294.9318 166.6536 294.8936 166.8113 294.8319 C 166.969 294.7702 167.0667 294.685 167.0667 294.5909 C 167.0667 294.4968 166.969 294.4116 166.8113 294.3499 C 166.6536 294.2882 166.4358 294.25 166.1955 294.25 Z "/>
    <path id="ID0.6524071265012026" fill="#666666" stroke="#000000" stroke-width="0.06060606241226196" d="M 166.7455 293.65 C 166.5051 293.65 166.2873 293.6882 166.1296 293.7499 C 165.9719 293.8116 165.8742 293.8968 165.8742 293.9909 C 165.8742 294.085 165.9719 294.1702 166.1296 294.2319 C 166.2873 294.2936 166.5051 294.3318 166.7455 294.3318 C 166.9858 294.3318 167.2036 294.2936 167.3613 294.2319 C 167.519 294.1702 167.6167 294.085 167.6167 293.9909 C 167.6167 293.8968 167.519 293.8116 167.3613 293.7499 C 167.2036 293.6882 166.9858 293.65 166.7455 293.65 Z "/>
    <path id="ID0.6524071265012026" fill="#666666" stroke="#000000" stroke-width="0.06060606241226196" d="M 165.2455 294.2 C 165.0051 294.2 164.7873 294.2382 164.6296 294.2999 C 164.4719 294.3616 164.3742 294.4468 164.3742 294.5409 C 164.3742 294.635 164.4719 294.7202 164.6296 294.7819 C 164.7873 294.8436 165.0051 294.8818 165.2455 294.8818 C 165.4858 294.8818 165.7036 294.8436 165.8613 294.7819 C 166.019 294.7202 166.1167 294.635 166.1167 294.5409 C 166.1167 294.4468 166.019 294.3616 165.8613 294.2999 C 165.7036 294.2382 165.4858 294.2 165.2455 294.2 Z "/>
    <path id="ID0.6524071265012026" fill="#666666" stroke="#000000" stroke-width="0.06060606241226196" d="M 165.1955 293.7 C 164.9551 293.7 164.7373 293.7382 164.5796 293.7999 C 164.4219 293.8616 164.3242 293.9468 164.3242 294.0409 C 164.3242 294.135 164.4219 294.2202 164.5796 294.2819 C 164.7373 294.3436 164.9551 294.3818 165.1955 294.3818 C 165.4358 294.3818 165.6536 294.3436 165.8113 294.2819 C 165.969 294.2202 166.0667 294.135 166.0667 294.0409 C 166.0667 293.9468 165.969 293.8616 165.8113 293.7999 C 165.6536 293.7382 165.4358 293.7 165.1955 293.7 Z "/>
    <path id="ID0.6524071265012026" fill="#666666" stroke="#000000" stroke-width="0.06060606241226196" d="M 163.7955 294.3 C 163.5551 294.3 163.3373 294.3382 163.1796 294.3999 C 163.0219 294.4616 162.9242 294.5468 162.9242 294.6409 C 162.9242 294.735 163.0219 294.8202 163.1796 294.8819 C 163.3373 294.9436 163.5551 294.9818 163.7955 294.9818 C 164.0358 294.9818 164.2536 294.9436 164.4113 294.8819 C 164.569 294.8202 164.6667 294.735 164.6667 294.6409 C 164.6667 294.5468 164.569 294.4616 164.4113 294.3999 C 164.2536 294.3382 164.0358 294.3 163.7955 294.3 Z "/>
    <path id="ID0.6524071265012026" fill="#666666" stroke="#000000" stroke-width="0.06060606241226196" d="M 163.5455 293.7 C 163.3051 293.7 163.0873 293.7382 162.9296 293.7999 C 162.7719 293.8616 162.6742 293.9468 162.6742 294.0409 C 162.6742 294.135 162.7719 294.2202 162.9296 294.2819 C 163.0873 294.3436 163.3051 294.3818 163.5455 294.3818 C 163.7858 294.3818 164.0036 294.3436 164.1613 294.2819 C 164.319 294.2202 164.4167 294.135 164.4167 294.0409 C 164.4167 293.9468 164.319 293.8616 164.1613 293.7999 C 164.0036 293.7382 163.7858 293.7 163.5455 293.7 Z "/>
    <path id="ID0.6524071265012026" fill="#666666" stroke="#000000" stroke-width="0.06060606241226196" d="M 162.4455 294.25 C 162.2051 294.25 161.9873 294.2882 161.8296 294.3499 C 161.6719 294.4116 161.5742 294.4968 161.5742 294.5909 C 161.5742 294.685 161.6719 294.7702 161.8296 294.8319 C 161.9873 294.8936 162.2051 294.9318 162.4455 294.9318 C 162.6858 294.9318 162.9036 294.8936 163.0613 294.8319 C 163.219 294.7702 163.3167 294.685 163.3167 294.5909 C 163.3167 294.4968 163.219 294.4116 163.0613 294.3499 C 162.9036 294.2882 162.6858 294.25 162.4455 294.25 Z "/>
    <path id="ID0.038849669974297285" fill="#995900" stroke="#000000" stroke-width="2.003381239833938" stroke-linecap="round" d="M 309.5 284.8432 L 199.5 283.8399 L 201.5 101.0243 L 130.5 100.0209 L 124.5 327.9885 L 358.5 327.9885 L 352.5 312.9378 L 340.5 297.8872 L 309.5 284.8432 Z "/>
    <path id="ID0.09964071353897452" fill="none" stroke="#663B00" stroke-width="2" stroke-linecap="round" d="M 189.5 116 L 189.5 163 "/>
    <path id="ID0.0833345390856266" fill="none" stroke="#663B00" stroke-width="2" stroke-linecap="round" d="M 174.5 105 L 175.5 172 "/>
    <path id="ID0.6746797440573573" fill="none" stroke="#663B00" stroke-width="2" stroke-linecap="round" d="M 157.5 131.95 L 155.5 178.95 "/>
    <path id="ID0.7339316494762897" fill="none" stroke="#663B00" stroke-width="2" stroke-linecap="round" d="M 140.5 108 L 140.5 178 "/>
    <path id="ID0.3643505503423512" fill="none" stroke="#663B00" stroke-width="0.06060606241226196" stroke-linecap="round" d="M 162.4076 293.3 L 162.4076 294.7242 "/>
    <path id="ID0.7577131288126111" fill="none" stroke="#663B00" stroke-width="2" stroke-linecap="round" d="M 192.5 178 L 190.5 219 "/>
    <path id="ID0.3157559549435973" fill="none" stroke="#663B00" stroke-width="2" stroke-linecap="round" d="M 175.5 201 L 175.5 242 "/>
    <path id="ID0.5259083351120353" fill="none" stroke="#663B00" stroke-width="2" stroke-linecap="round" d="M 153.5 182 L 153.5 230 "/>
    <path id="ID0.5306832939386368" fill="none" stroke="#663B00" stroke-width="2" stroke-linecap="round" d="M 188.5 235 L 188.5 294 "/>
    <path id="ID0.4402362280525267" fill="none" stroke="#663B00" stroke-width="2" stroke-linecap="round" d="M 173.5 278 L 170.5 309 "/>
    <path id="ID0.32376628601923585" fill="none" stroke="#663B00" stroke-width="2" stroke-linecap="round" d="M 149.5 252 L 143.5 312 "/>
    <path id="ID0.14349524630233645" fill="none" stroke="#663B00" stroke-width="2" stroke-linecap="round" d="M 166.5 239 L 167.5 269 "/>
    <path id="ID0.5692618102766573" fill="none" stroke="#663B00" stroke-width="2" stroke-linecap="round" d="M 135.5 206 L 135.5 236 "/>
    <path id="ID0.1527024176903069" fill="none" stroke="#663B00" stroke-width="2" stroke-linecap="round" d="M 321.5 313 L 298.5 296 "/>
    <path id="ID0.7404324910603464" fill="none" stroke="#663B00" stroke-width="2" stroke-linecap="round" d="M 282.5 294 L 219.5 295 "/>
    <path id="ID0.5934421834535897" fill="none" stroke="#663B00" stroke-width="2" stroke-linecap="round" d="M 299.5 320 L 203.5 320 "/>
    <path id="ID0.20501573802903295" fill="none" stroke="#663B00" stroke-width="2" stroke-linecap="round" d="M 284.5 302 L 196.5 302 "/>
    <path id="ID0.5761372591368854" fill="none" stroke="#663B00" stroke-width="2" stroke-linecap="round" d="M 352.5 325 L 298.5 313 "/>
    <path id="ID0.6373671786859632" fill="#995900" stroke="#000000" stroke-width="1.9999999794226717" d="M 117.0397 44.8324 L 202.5512 134.631 L 218.4832 119.4596 L 132.9717 29.661 L 117.0397 44.8324 Z "/>
    <path id="ID0.8417429677210748" fill="none" stroke="#663B00" stroke-width="2" stroke-linecap="round" d="M 168.5 89 L 134.5 52 "/>
    <path id="ID0.011055781971663237" fill="none" stroke="#663B00" stroke-width="2" stroke-linecap="round" d="M 126.5 26.05 L 186.5 91.05 "/>
    <path id="ID0.7261597490869462" fill="#006622" stroke="#000000" stroke-width="2.1403761555414427" d="M 167.4969 2.0108 C 130.8141 2.0108 97.5738 10.4599 73.5037 24.1088 C 49.4346 37.7578 34.5357 56.6076 34.5357 77.4101 C 34.5357 98.2126 49.4346 117.0624 73.5037 130.7113 C 97.5738 144.3602 130.8141 152.8094 167.4969 152.8094 C 204.1797 152.8094 237.42 144.3602 261.4901 130.7113 C 285.5592 117.0624 300.4581 98.2126 300.4581 77.4101 C 300.4581 56.6076 285.5592 37.7578 261.4901 24.1088 C 237.42 10.4599 204.1797 2.0108 167.4969 2.0108 Z "/>
    <path id="ID0.3641564240679145" fill="#006622" stroke="#000000" stroke-width="2" d="M 90.5 52 C 65.946 52 43.696 58.387 27.584 68.706 C 11.473 79.024 1.5 93.274 1.5 109 C 1.5 124.726 11.473 138.976 27.584 149.294 C 43.696 159.613 65.946 166 90.5 166 C 115.054 166 137.304 159.613 153.416 149.294 C 169.527 138.976 179.5 124.726 179.5 109 C 179.5 93.274 169.527 79.024 153.416 68.706 C 137.304 58.387 115.054 52 90.5 52 Z "/>
  </g>
</svg>