<svg xmlns="http://www.w3.org/2000/svg" xmlns:xlink="http://www.w3.org/1999/xlink" version="1.1" width="134.44850969314575" height="32.533812046051025" viewBox="0.7308940887451172 0.7308940887451172 134.44850969314575 32.533812046051025">
  <!-- Exported by Scratch - http://scratch.mit.edu/ -->
  <g id="ID0.3024542797356844">
    <g id="ID0.45447447383776307">
      <g id="ID0.84568802267313">
        <path id="ID0.7356370552442968" fill="#E5E5E5" stroke="none" stroke-linecap="round" d="M 119.029 8.9726 C 120.5343 8.9773 122.2427 8.5126 123.5339 9.2436 C 124.3861 9.7286 124.4958 11.0753 124.4145 12.0548 C 124.3149 13.2586 123.8645 14.5308 122.975 15.383 C 122.0862 16.2352 120.8581 16.7629 119.5032 16.7629 C 118.1484 16.7629 116.9202 16.2352 116.0315 15.383 C 115.142 14.5308 114.68 13.262 114.5919 12.0548 C 114.5222 11.0678 114.6143 9.8417 115.4048 9.3113 C 116.4264 8.6278 117.8198 9.0004 119.029 8.9726 Z " stroke-width="0.6774193644523621"/>
        <path id="ID0.755144601687789" fill="#E5E5E5" stroke="none" d="M 117.979 15.4419 L 121.0952 15.4419 L 121.0952 21.6403 L 117.979 21.6403 L 117.979 15.4419 Z " stroke-width="0.6774193644523621"/>
        <path id="ID0.7236620127223432" fill="#E5E5E5" stroke="none" stroke-linecap="round" d="M 114.9306 23.8081 L 118.2161 21.3694 L 121.0274 21.979 L 124.1436 23.9436 L 124.1436 24.9597 L 114.829 24.9258 L 114.9306 23.8081 Z " stroke-width="0.6774193644523621"/>
      </g>
      <g id="ID0.84568802267313">
        <path id="ID0.7356370552442968" fill="#FFFFFF" stroke="none" stroke-linecap="round" d="M 118.721 9.6726 C 120.0419 9.6794 121.5553 9.2451 122.6839 9.9436 C 123.5144 10.4638 123.6458 11.7753 123.5645 12.7548 C 123.4649 13.9586 123.0145 15.2308 122.125 16.083 C 121.2362 16.9352 120.0081 17.4629 118.6532 17.4629 C 117.2984 17.4629 116.0702 16.9352 115.1815 16.083 C 114.292 15.2308 113.83 13.962 113.7419 12.7548 C 113.6722 11.7678 113.7399 10.5031 114.5548 10.0113 C 115.7424 9.2953 117.3282 9.7017 118.721 9.6726 Z " stroke-width="0.6774193644523621"/>
        <path id="ID0.755144601687789" fill="#FFFFFF" stroke="none" d="M 117.129 16.1419 L 120.2452 16.1419 L 120.2452 22.3403 L 117.129 22.3403 L 117.129 16.1419 Z " stroke-width="0.6774193644523621"/>
        <path id="ID0.7236620127223432" fill="#FFFFFF" stroke="none" stroke-linecap="round" d="M 113.979 24.1016 L 117.3661 22.0694 L 120.1774 22.0694 L 123.5645 24.2032 L 123.6323 25.6258 L 113.979 25.6258 L 113.979 24.1016 Z " stroke-width="0.6774193644523621"/>
      </g>
    </g>
    <path id="ID0.5466492930427194" fill="none" stroke="#FFFFFF" stroke-width="1.3548387289047241" d="M 111.1065 10.7677 L 116.4242 10.7677 L 116.4242 15.4758 L 111.1065 15.4758 L 111.1065 10.7677 Z "/>
    <path id="ID0.5466492930427194" fill="none" stroke="#FFFFFF" stroke-width="1.3548387289047241" d="M 121.2065 10.7677 L 126.5242 10.7677 L 126.5242 15.4758 L 121.2065 15.4758 L 121.2065 10.7677 Z "/>
  </g>
  <g id="ID0.6104965382255614">
    <g id="ID0.4420147663913667">
      <path id="ID0.688658619299531" fill="#E5E5E5" stroke="none" stroke-linecap="round" d="M 109.7385 22.9044 L 108.2325 21.9344 L 108.2325 21.9446 L 109.7385 21.0154 L 109.7385 22.9044 Z " stroke-width="0.10210582613945007"/>
      <path id="ID0.688658619299531" fill="#FFFFFF" stroke="none" stroke-linecap="round" d="M 109.8385 22.9044 L 108.3325 21.9344 L 108.3325 21.9446 L 109.8385 21.0154 L 109.8385 22.9044 Z " stroke-width="0.10210582613945007"/>
    </g>
    <path id="ID0.6687271576374769" fill="#FFFFFF" stroke="none" d="M 108.0176 20.306 L 107.4618 20.306 L 107.4618 19.4071 L 108.0176 19.4071 L 108.0176 20.306 Z " stroke-width="0.08684863895177841"/>
    <path id="ID0.6687271576374769" fill="#FFFFFF" stroke="none" d="M 107.7176 21.5188 L 107.1618 21.5188 L 107.1618 20.1422 L 107.7176 20.1422 L 107.7176 21.5188 Z " stroke-width="0.11232032367039421"/>
    <path id="ID0.6687271576374769" fill="#FFFFFF" stroke="none" d="M 106.9676 19.9601 L 106.4118 19.9601 L 106.4118 19.413 L 106.9676 19.413 L 106.9676 19.9601 Z " stroke-width="0.07189342656815366"/>
  </g>
  <path id="ID0.6489545395597816" fill="#FF9400" stroke="#FF9400" stroke-width="1" d="M 1.75 1.75 L 133.75 1.75 L 133.75 16.75 L 1.75 16.75 L 1.75 1.75 Z "/>
  <path id="ID0.6489545395597816" fill="#CC7700" stroke="#FF9400" stroke-width="1" d="M 1.75 17.25 L 133.75 17.25 L 133.75 32.25 L 1.75 32.25 L 1.75 17.25 Z "/>
  <path id="ID0.8392949406988919" fill="none" stroke="#000000" stroke-width="2.029411792755127" d="M 1.7456 1.7456 L 134.1647 1.7456 L 134.1647 32.1868 L 1.7456 32.1868 L 1.7456 1.7456 Z "/>
  <g id="ID0.9616323201917112">
    <text id="ID0.16412566741928458" fill="#E5E5E5" text-anchor="start" font-family="Sans Serif" font-size="22" transform="matrix(0.762134 0 0 0.762134 7.6418 4.09758)" stroke-width="1" alignment-baseline="text-before-edge" xml:space="preserve"><tspan x="0" style="white-space: pre" dy="1.13em">SETTINGS</tspan></text>
    <text id="ID0.16412566741928458" fill="#FFFFFF" text-anchor="start" font-family="Sans Serif" font-size="22" transform="matrix(0.762134 0 0 0.762134 6.77515 4.09758)" stroke-width="1" alignment-baseline="text-before-edge" xml:space="preserve"><tspan x="0" style="white-space: pre" dy="1.13em">SETTINGS</tspan></text>
  </g>
  <g id="ID0.7488951468840241">
    <path id="ID0.7623475193977356" fill="#FFFFFF" stroke="none" d="M 115.25 8.65 C 117.526 8.65 119.589 9.574 121.082 11.068 C 122.576 12.561 123.5 14.624 123.5 16.9 C 123.5 19.176 122.576 21.239 121.082 22.732 C 119.589 24.226 117.526 25.15 115.25 25.15 C 112.974 25.15 110.911 24.226 109.418 22.732 C 107.924 21.239 107 19.176 107 16.9 C 107 14.624 107.924 12.561 109.418 11.068 C 110.911 9.574 112.974 8.65 115.25 8.65 Z " stroke-width="1"/>
    <path id="ID0.5525465356186032" fill="#FFFFFF" stroke="none" d="M 112.25 6.9 L 117.65 6.9 L 117.65 10.55 L 112.25 10.55 L 112.25 6.9 Z " stroke-width="1"/>
    <path id="ID0.5525465356186032" fill="#FFFFFF" stroke="none" d="M 104.8177 14.1904 L 107.2841 9.3866 L 110.5311 11.0537 L 108.0647 15.8575 L 104.8177 14.1904 Z " stroke-width="0.9999999849931899"/>
    <path id="ID0.5525465356186032" fill="#FFFFFF" stroke="none" d="M 106.5727 23.798 L 104.2525 18.9219 L 107.5484 17.3536 L 109.8686 22.2297 L 106.5727 23.798 Z " stroke-width="1.0000000055499143"/>
    <path id="ID0.5525465356186032" fill="#FFFFFF" stroke="none" d="M 116.4406 27.6364 L 111.0624 27.1518 L 111.39 23.5165 L 116.7682 24.0012 L 116.4406 27.6364 Z " stroke-width="1.0000000082616203"/>
    <path id="ID0.5525465356186032" fill="#FFFFFF" stroke="none" d="M 125.2536 22.5026 L 121.132 25.9915 L 118.7737 23.2056 L 122.8953 19.7167 L 125.2536 22.5026 Z " stroke-width="1.0000000065852994"/>
    <path id="ID0.5525465356186032" fill="#FFFFFF" stroke="none" d="M 123.4726 10.31 L 126.5091 14.7754 L 123.4908 16.8278 L 120.4543 12.3624 L 123.4726 10.31 Z " stroke-width="0.9999999936330433"/>
    <path id="ID0.8717183023691177" fill="#FF9400" stroke="none" d="M 115.05 12.1 C 116.498 12.1 117.811 12.688 118.761 13.639 C 119.712 14.589 120.3 15.902 120.3 17.35 C 120.3 18.798 119.712 20.111 118.761 21.061 C 117.811 22.012 116.498 22.6 115.05 22.6 C 113.602 22.6 112.289 22.012 111.339 21.061 C 110.388 20.111 109.8 18.798 109.8 17.35 C 109.8 15.902 110.388 14.589 111.339 13.639 C 112.289 12.688 113.602 12.1 115.05 12.1 Z " stroke-width="1"/>
  </g>
</svg>