<svg xmlns="http://www.w3.org/2000/svg" xmlns:xlink="http://www.w3.org/1999/xlink" version="1.1" width="137.2065741091482" height="59.744473126482184" viewBox="-0.6481381192561058 -1.05483813432416 137.2065741091482 59.744473126482184">
  <!-- Exported by Scratch - http://scratch.mit.edu/ -->
  <g id="ID0.9983036075718701">
    <g id="ID0.37403969932347536">
      <g id="ID0.5512953721918166">
        <path id="ID0.8577122259885073" fill="none" stroke="#E5E5E5" stroke-width="4.787476208757573" stroke-linecap="round" d="M 108.35 16.467 L 127.6 16.467 "/>
        <path id="ID0.8577122259885073" fill="none" stroke="#E5E5E5" stroke-width="4.787476208757573" stroke-linecap="round" d="M 108.7 28.6203 L 127.8 28.6203 "/>
        <path id="ID0.8577122259885073" fill="none" stroke="#E5E5E5" stroke-width="4.787476208757573" stroke-linecap="round" d="M 108.9 42.0793 L 128.3 42.3828 "/>
      </g>
      <g id="ID0.5512953721918166">
        <path id="ID0.8577122259885073" fill="none" stroke="#FFFFFF" stroke-width="4.787476208757573" stroke-linecap="round" d="M 106.95 17.8004 L 126.2 17.8004 "/>
        <path id="ID0.8577122259885073" fill="none" stroke="#FFFFFF" stroke-width="4.787476208757573" stroke-linecap="round" d="M 107.3 29.9536 L 126.4 29.9536 "/>
        <path id="ID0.8577122259885073" fill="none" stroke="#FFFFFF" stroke-width="4.787476208757573" stroke-linecap="round" d="M 107.5 43.4127 L 126.9 43.7161 "/>
      </g>
    </g>
    <g id="ID0.042299107648432255">
      <g id="ID0.2951776240952313">
        <path id="ID0.6735641770064831" fill="#E5E5E5" stroke="none" stroke-linecap="round" d="M 105.4766 17.3379 L 125.9317 17.3379 L 125.7538 37.5756 L 111.4175 37.5756 L 105.4766 17.3379 Z " stroke-width="1.0261718156542694"/>
        <path id="ID0.4860888053663075" fill="#E5E5E5" stroke="none" d="M 111.9651 35.5808 C 112.5834 35.5808 113.1441 36.0058 113.5496 36.6926 C 113.9551 37.3794 114.2063 38.3281 114.2063 39.3754 C 114.2063 40.4227 113.9551 41.3713 113.5496 42.0581 C 113.1441 42.7449 112.5834 43.1699 111.9651 43.1699 C 111.3469 43.1699 110.7862 42.7449 110.3807 42.0581 C 109.9751 41.3713 109.724 40.4227 109.724 39.3754 C 109.724 38.3281 109.9751 37.3794 110.3807 36.6926 C 110.7862 36.0058 111.3469 35.5808 111.9651 35.5808 Z " stroke-width="1.0261718156542694"/>
        <path id="ID0.4860888053663075" fill="#E5E5E5" stroke="none" d="M 124.8151 35.4919 C 125.4334 35.4919 125.9941 35.9169 126.3996 36.6037 C 126.8051 37.2906 127.0563 38.2392 127.0563 39.2865 C 127.0563 40.3338 126.8051 41.2824 126.3996 41.9692 C 125.9941 42.6561 125.4334 43.081 124.8151 43.081 C 124.1969 43.081 123.6362 42.6561 123.2307 41.9692 C 122.8251 41.2824 122.574 40.3338 122.574 39.2865 C 122.574 38.2392 122.8251 37.2906 123.2307 36.6037 C 123.6362 35.9169 124.1969 35.4919 124.8151 35.4919 Z " stroke-width="1.0261718156542694"/>
        <path id="ID0.8597310543991625" fill="none" stroke="#E5E5E5" stroke-width="2.052343631308539" stroke-linecap="round" d="M 124.3093 18.948 L 127.0841 10.9162 "/>
      </g>
      <g id="ID0.2951776240952313">
        <path id="ID0.6735641770064831" fill="#FFFFFF" stroke="none" stroke-linecap="round" d="M 104.5766 18.9379 L 125.0317 18.9379 L 124.8538 39.1756 L 110.5175 39.1756 L 104.5766 18.9379 Z " stroke-width="1.0261718156542694"/>
        <path id="ID0.4860888053663075" fill="#FFFFFF" stroke="none" d="M 111.0651 37.2697 C 111.6834 37.2697 112.2441 37.6947 112.6496 38.3815 C 113.0551 39.0683 113.3063 40.017 113.3063 41.0643 C 113.3063 42.1116 113.0551 43.0602 112.6496 43.747 C 112.2441 44.4338 111.6834 44.8588 111.0651 44.8588 C 110.4469 44.8588 109.8862 44.4338 109.4807 43.747 C 109.0751 43.0602 108.824 42.1116 108.824 41.0643 C 108.824 40.017 109.0751 39.0683 109.4807 38.3815 C 109.8862 37.6947 110.4469 37.2697 111.0651 37.2697 Z " stroke-width="1.0261718156542694"/>
        <path id="ID0.4860888053663075" fill="#FFFFFF" stroke="none" d="M 123.9151 37.0919 C 124.5334 37.0919 125.0941 37.5169 125.4996 38.2037 C 125.9051 38.8906 126.1563 39.8392 126.1563 40.8865 C 126.1563 41.9338 125.9051 42.8824 125.4996 43.5692 C 125.0941 44.2561 124.5334 44.681 123.9151 44.681 C 123.2969 44.681 122.7362 44.2561 122.3307 43.5692 C 121.9251 42.8824 121.674 41.9338 121.674 40.8865 C 121.674 39.8392 121.9251 38.8906 122.3307 38.2037 C 122.7362 37.5169 123.2969 37.0919 123.9151 37.0919 Z " stroke-width="1.0261718156542694"/>
        <path id="ID0.8597310543991625" fill="none" stroke="#FFFFFF" stroke-width="2.052343631308539" stroke-linecap="round" d="M 123.4093 20.6369 L 126.1841 12.6051 "/>
      </g>
    </g>
    <g id="ID0.6104965382255614">
      <g id="ID0.4420147663913667">
        <path id="ID0.688658619299531" fill="#E5E5E5" stroke="none" stroke-linecap="round" d="M 116.9774 50.9466 L 115.6241 49.2222 L 115.6241 49.2403 L 116.9774 47.5885 L 116.9774 50.9466 Z " stroke-width="0.1438186452837248"/>
        <path id="ID0.688658619299531" fill="#FFFFFF" stroke="none" stroke-linecap="round" d="M 117.0774 50.9466 L 115.7241 49.2222 L 115.7241 49.2403 L 117.0774 47.5885 L 117.0774 50.9466 Z " stroke-width="0.1438186452837248"/>
      </g>
      <path id="ID0.6687271576374769" fill="#FFFFFF" stroke="none" d="M 115.4492 46.3273 L 114.9497 46.3273 L 114.9497 44.7292 L 115.4492 44.7292 L 115.4492 46.3273 Z " stroke-width="0.12232850975655844"/>
      <path id="ID0.6687271576374769" fill="#FFFFFF" stroke="none" d="M 115.1492 48.4834 L 114.6497 48.4834 L 114.6497 46.0362 L 115.1492 46.0362 L 115.1492 48.4834 Z " stroke-width="0.17606244322749445"/>
      <path id="ID0.6687271576374769" fill="#FFFFFF" stroke="none" d="M 114.4992 45.7125 L 113.9997 45.7125 L 113.9997 44.7398 L 114.4992 44.7398 L 114.4992 45.7125 Z " stroke-width="0.0863781483386172"/>
    </g>
    <g id="ID0.7488951468840241">
      <path id="ID0.7623475193977356" fill="#FFFFFF" stroke="none" d="M 115.25 13.6056 C 117.526 13.6056 119.589 15.2482 121.082 17.9042 C 122.576 20.5584 123.5 24.226 123.5 28.2722 C 123.5 32.3184 122.576 35.986 121.082 38.6402 C 119.589 41.2962 117.526 42.9389 115.25 42.9389 C 112.974 42.9389 110.911 41.2962 109.418 38.6402 C 107.924 35.986 107 32.3184 107 28.2722 C 107 24.226 107.924 20.5584 109.418 17.9042 C 110.911 15.2482 112.974 13.6056 115.25 13.6056 Z " stroke-width="1.4423061176906105"/>
      <path id="ID0.5525465356186032" fill="#FFFFFF" stroke="none" d="M 112.25 10.4944 L 117.65 10.4944 L 117.65 16.9833 L 112.25 16.9833 L 112.25 10.4944 Z " stroke-width="1.4423061176906105"/>
      <path id="ID0.5525465356186032" fill="#FFFFFF" stroke="none" d="M 104.8177 23.4552 L 107.2841 14.915 L 110.5311 17.8788 L 108.0647 26.419 L 104.8177 23.4552 Z " stroke-width="1.392139608874444"/>
      <path id="ID0.5525465356186032" fill="#FFFFFF" stroke="none" d="M 106.5227 40.5354 L 104.2025 31.8667 L 107.4984 29.0786 L 109.8186 37.7473 L 106.5227 40.5354 Z " stroke-width="1.3975084002383076"/>
      <path id="ID0.5525465356186032" fill="#FFFFFF" stroke="none" d="M 116.4406 47.2704 L 111.0624 46.4088 L 111.39 39.9461 L 116.7682 40.8076 L 116.4406 47.2704 Z " stroke-width="1.4359382966152272"/>
      <path id="ID0.5525465356186032" fill="#FFFFFF" stroke="none" d="M 125.2536 38.3213 L 121.132 44.5237 L 118.7737 39.571 L 122.8953 33.3686 L 125.2536 38.3213 Z " stroke-width="1.3348503195741317"/>
      <path id="ID0.5525465356186032" fill="#FFFFFF" stroke="none" d="M 123.4726 16.5566 L 126.5091 24.4951 L 123.4908 28.1439 L 120.4543 20.2054 L 123.4726 16.5566 Z " stroke-width="1.3698738501264252"/>
      <path id="ID0.8717183023691177" fill="#FF9400" stroke="none" d="M 115.05 19.7389 C 116.498 19.7389 117.811 20.7842 118.761 22.4749 C 119.712 24.1638 120.3 26.498 120.3 29.0722 C 120.3 31.6464 119.712 33.9807 118.761 35.6696 C 117.811 37.3602 116.498 38.4056 115.05 38.4056 C 113.602 38.4056 112.289 37.3602 111.339 35.6696 C 110.388 33.9807 109.8 31.6464 109.8 29.0722 C 109.8 26.498 110.388 24.1638 111.339 22.4749 C 112.289 20.7842 113.602 19.7389 115.05 19.7389 Z " stroke-width="1.4423061176906105"/>
    </g>
    <g id="ID0.3024542797356844">
      <g id="ID0.45447447383776307">
        <g id="ID0.84568802267313">
          <path id="ID0.7356370552442968" fill="#E5E5E5" stroke="none" stroke-linecap="round" d="M 119.029 14.2679 C 120.5343 14.2764 122.2427 13.4502 123.5339 14.7496 C 124.3861 15.6119 124.4958 18.0061 124.4145 19.7475 C 124.3149 21.8875 123.8645 24.1492 122.975 25.6642 C 122.0862 27.1792 120.8581 28.1174 119.5032 28.1174 C 118.1484 28.1174 116.9202 27.1792 116.0315 25.6642 C 115.142 24.1492 114.68 21.8936 114.5919 19.7475 C 114.5222 17.9928 114.6143 15.813 115.4048 14.8701 C 116.4264 13.6549 117.8198 14.3173 119.029 14.2679 Z " stroke-width="0.977046093591727"/>
          <path id="ID0.755144601687789" fill="#E5E5E5" stroke="none" d="M 117.979 25.769 L 121.0952 25.769 L 121.0952 36.7884 L 117.979 36.7884 L 117.979 25.769 Z " stroke-width="0.977046093591727"/>
          <path id="ID0.7236620127223432" fill="#E5E5E5" stroke="none" stroke-linecap="round" d="M 114.9306 40.6421 L 118.2161 36.3066 L 121.0274 37.3905 L 124.1436 40.883 L 124.1436 42.6894 L 114.829 42.6292 L 114.9306 40.6421 Z " stroke-width="0.977046093591727"/>
        </g>
        <g id="ID0.84568802267313">
          <path id="ID0.7356370552442968" fill="#FFFFFF" stroke="none" stroke-linecap="round" d="M 118.721 15.4235 C 120.0419 15.4355 121.5553 14.6636 122.6839 15.9052 C 123.5144 16.8301 123.6458 19.1616 123.5645 20.9031 C 123.4649 23.0431 123.0145 25.3048 122.125 26.8198 C 121.2362 28.3348 120.0081 29.2729 118.6532 29.2729 C 117.2984 29.2729 116.0702 28.3348 115.1815 26.8198 C 114.292 25.3048 113.83 23.0491 113.7419 20.9031 C 113.6722 19.1484 113.7399 16.9 114.5548 16.0256 C 115.7424 14.7527 117.3282 15.4753 118.721 15.4235 Z " stroke-width="0.977046093591727"/>
          <path id="ID0.755144601687789" fill="#FFFFFF" stroke="none" d="M 117.129 26.9246 L 120.2452 26.9246 L 120.2452 37.9439 L 117.129 37.9439 L 117.129 26.9246 Z " stroke-width="0.977046093591727"/>
          <path id="ID0.7236620127223432" fill="#FFFFFF" stroke="none" stroke-linecap="round" d="M 113.979 41.0751 L 117.3661 37.4622 L 120.1774 37.4622 L 123.5645 41.2557 L 123.6323 43.7848 L 113.979 43.7848 L 113.979 41.0751 Z " stroke-width="0.977046093591727"/>
        </g>
      </g>
      <path id="ID0.5466492930427194" fill="none" stroke="#FFFFFF" stroke-width="1.954092187183454" d="M 111.1065 17.3704 L 116.4242 17.3704 L 116.4242 25.7403 L 111.1065 25.7403 L 111.1065 17.3704 Z "/>
      <path id="ID0.5466492930427194" fill="none" stroke="#FFFFFF" stroke-width="1.954092187183454" d="M 121.2065 17.3704 L 126.5242 17.3704 L 126.5242 25.7403 L 121.2065 25.7403 L 121.2065 17.3704 Z "/>
    </g>
    <path id="ID0.6489545395597816" fill="#FF9400" stroke="#FF9400" stroke-width="1.4423061176906105" d="M 1.75 1.3389 L 133.75 1.3389 L 133.75 28.0056 L 1.75 28.0056 L 1.75 1.3389 Z "/>
    <path id="ID0.6489545395597816" fill="#CC7700" stroke="#FF9400" stroke-width="1.4423061176906105" d="M 1.75 28.8944 L 133.75 28.8944 L 133.75 55.5611 L 1.75 55.5611 L 1.75 28.8944 Z "/>
  </g>
  <path id="ID0.8392949406988919" fill="none" stroke="#000000" stroke-width="2.929388705199327" d="M 1.7456 2.121 L 134.1647 2.121 L 134.1647 56.2959 L 1.7456 56.2959 L 1.7456 2.121 Z "/>
  <g id="ID0.327823665458709">
    <path id="ID0.2874125149101019" fill="#FFFFFF" stroke="#E5E5E5" stroke-width="0.5914796498467872" stroke-linejoin="round" d="M 103.6 9.7 C 101.0745 9.7 99.0249 11.8878 99.0249 14.5835 C 99.0249 20.0676 104.2075 21.5054 107.739 26.9271 C 111.0779 21.5388 116.4532 19.8926 116.4532 14.5835 C 116.4532 11.8878 114.4035 9.7 111.8781 9.7 C 110.0462 9.7 108.4696 10.8546 107.739 12.5157 C 107.0085 10.8546 105.4319 9.7 103.6 9.7 Z "/>
    <g id="ID0.2394838952459395">
      <text id="ID0.5552529511041939" fill="#E5E5E5" text-anchor="start" font-family="Sans Serif" font-size="22" transform="matrix(0.649712 0 0 0.649712 119.399 4.40086)" stroke-width="1" alignment-baseline="text-before-edge" xml:space="preserve"><tspan x="0" style="white-space: pre" dy="1.13em">+</tspan></text>
      <text id="ID0.5552529511041939" fill="#FFFFFF" text-anchor="start" font-family="Sans Serif" font-size="22" transform="matrix(0.649712 0 0 0.649712 118.949 4.75086)" stroke-width="1" alignment-baseline="text-before-edge" xml:space="preserve"><tspan x="0" style="white-space: pre" dy="1.13em">+</tspan></text>
    </g>
  </g>
  <g id="ID0.5993575742468238">
    <text id="ID0.16412566741928458" fill="#E5E5E5" text-anchor="start" font-family="Sans Serif" font-size="22" transform="matrix(0.85896 0 0 0.85896 5.66792 2.47312)" stroke-width="1" alignment-baseline="text-before-edge" xml:space="preserve"><tspan x="0" style="white-space: pre" dy="1.13em">BUY LIFE</tspan></text>
    <text id="ID0.16412566741928458" fill="#FFFFFF" text-anchor="start" font-family="Sans Serif" font-size="22" transform="matrix(0.85896 0 0 0.85896 4.71792 2.47312)" stroke-width="1" alignment-baseline="text-before-edge" xml:space="preserve"><tspan x="0" style="white-space: pre" dy="1.13em">BUY LIFE</tspan></text>
  </g>
  <g id="ID0.6093718651682138">
    <text id="ID0.16412566741928458" fill="#E5E5E5" text-anchor="start" font-family="Sans Serif" font-size="22" transform="matrix(0.85896 0 0 0.85896 5.51792 25.7231)" stroke-width="1" alignment-baseline="text-before-edge" xml:space="preserve"><tspan x="0" style="white-space: pre" dy="1.13em">COST:</tspan></text>
    <text id="ID0.16412566741928458" fill="#FFFFFF" text-anchor="start" font-family="Sans Serif" font-size="22" transform="matrix(0.85896 0 0 0.85896 4.61792 25.7231)" stroke-width="1" alignment-baseline="text-before-edge" xml:space="preserve"><tspan x="0" style="white-space: pre" dy="1.13em">COST:</tspan></text>
  </g>
</svg>