<svg xmlns="http://www.w3.org/2000/svg" xmlns:xlink="http://www.w3.org/1999/xlink" version="1.1" width="289.4240881187407" height="188.82055723495165" viewBox="18.853242576982183 7.08522194709937 289.4240881187407 188.82055723495165">
  <!-- Exported by Scratch - http://scratch.mit.edu/ -->
  <path id="ID0.798117998521775" fill="#006622" stroke="#000000" stroke-width="2.0000000445510753" d="M 220.6102 8.7504 C 229.6986 6.7268 239.2135 10.6353 247.243 18.5842 C 255.2715 26.5334 261.8156 38.5227 264.9635 52.6605 C 268.1114 66.7983 267.2723 80.4315 263.3748 91.036 C 259.4764 101.6408 252.5187 109.217 243.4303 111.2406 C 234.3418 113.2642 224.8269 109.3557 216.7974 101.4068 C 208.7689 93.4577 202.2248 81.4683 199.0769 67.3306 C 195.9291 53.1928 196.7682 39.5595 200.6656 28.955 C 204.564 18.3503 211.5217 10.774 220.6102 8.7504 Z "/>
  <g id="ID0.12708842661231756">
    <path id="ID0.14512195903807878" fill="#FFFF00" stroke="#000000" stroke-width="0.39092575604440655" d="M 140.0653 127.2342 L 144.0917 127.4391 L 144.1932 121.7026 L 176.9051 121.7026 L 177.1013 126.9329 L 181.1277 127.0414 L 180.451 104.433 L 139.4427 104.433 L 140.0653 127.2342 Z "/>
    <g id="ID0.5551520101726055">
      <path id="ID0.5600243406370282" fill="#000000" stroke="#000000" stroke-width="0.27463502333158785" d="M 159.6405 113.5307 L 160.3483 113.5307 L 160.3483 109.43 L 159.6405 109.43 L 159.6405 113.5307 Z "/>
      <path id="ID0.5600243406370282" fill="#000000" stroke="#000000" stroke-width="0.22576279158351012" d="M 159.4635 113.5008 L 160.1403 113.1778 L 158.3432 111.1988 L 157.7457 111.6316 L 159.4635 113.5008 Z "/>
      <path id="ID0.5600243406370282" fill="#000000" stroke="#000000" stroke-width="0.22576279158351012" d="M 160.3991 113.5255 L 159.6597 113.1778 L 161.4784 111.3337 L 162.0543 111.6316 L 160.3991 113.5255 Z "/>
    </g>
  </g>
  <path id="ID0.32777358684688807" fill="#995900" stroke="#000000" stroke-width="1.7738720452473358" stroke-linecap="round" d="M 19.9909 179.9968 L 35.1645 139.4938 L 46.6708 124.5114 L 77.6388 111.8886 L 120.1707 100.4335 L 229.6706 82.4046 L 237.672 123.9085 L 126.6604 140.4107 L 88.1642 151.0131 L 71.0152 162.0025 L 59.9922 179.9972 L 19.9909 179.9968 Z "/>
  <path id="ID0.798117998521775" fill="#006622" stroke="#000000" stroke-width="2.275314925381337" d="M 254.4902 36.9711 C 264.8298 34.669 275.6544 39.1155 284.7893 48.1587 C 293.923 57.2021 301.3679 70.8418 304.9491 86.9258 C 308.5303 103.0097 307.5757 118.5197 303.1418 130.584 C 298.7067 142.6486 290.7912 151.2677 280.4517 153.5699 C 270.1121 155.8721 259.2875 151.4255 250.1526 142.3824 C 241.0189 133.339 233.574 119.6992 229.9928 103.6153 C 226.4116 87.5313 227.3662 72.0214 231.8001 59.957 C 236.2352 47.8925 244.1507 39.2733 254.4902 36.9711 Z "/>
  <path id="ID0.798117998521775" fill="#006622" stroke="#000000" stroke-width="2.0000000445510753" d="M 255.1102 91.7504 C 264.1986 89.7268 273.7135 93.6353 281.743 101.5842 C 289.7715 109.5334 296.3156 121.5227 299.4635 135.6605 C 302.6114 149.7983 301.7723 163.4315 297.8748 174.036 C 293.9764 184.6408 287.0187 192.217 277.9303 194.2406 C 268.8418 196.2642 259.3269 192.3557 251.2974 184.4068 C 243.2689 176.4577 236.7248 164.4683 233.5769 150.3306 C 230.4291 136.1928 231.2682 122.5595 235.1656 111.955 C 239.064 101.3503 246.0217 93.774 255.1102 91.7504 Z "/>
  <path id="ID0.9249635813757777" fill="none" stroke="#663B00" stroke-width="2.000000002556252" stroke-linecap="round" d="M 43.9105 172.1871 L 56.4987 146.2403 L 63.7544 138.9975 "/>
  <path id="ID0.6482136840932071" fill="none" stroke="#663B00" stroke-width="1.999999936483653" stroke-linecap="round" d="M 54.1291 173.91 L 66.5134 152.5077 L 74.2629 146.7554 "/>
  <path id="ID0.5315173375420272" fill="none" stroke="#663B00" stroke-width="1.999999962685116" stroke-linecap="round" d="M 68.7403 136.464 L 97.6712 120.6445 "/>
  <path id="ID0.5493451301008463" fill="none" stroke="#663B00" stroke-width="2" stroke-linecap="round" d="M 26.5 173 L 45 143 "/>
  <path id="ID0.4200089005753398" fill="none" stroke="#663B00" stroke-width="1.9999999673334796" stroke-linecap="round" d="M 81.5544 144.5145 L 102.9488 131.069 "/>
  <path id="ID0.16531866462901235" fill="none" stroke="#663B00" stroke-width="2" stroke-linecap="round" d="M 119 115 L 168 106.5 "/>
  <path id="ID0.22418106673285365" fill="none" stroke="#663B00" stroke-width="2" stroke-linecap="round" d="M 128 127 L 148 124 "/>
  <path id="ID0.2494311728514731" fill="none" stroke="#663B00" stroke-width="2" stroke-linecap="round" d="M 146.5 134.5 L 205.5 126 "/>
  <path id="ID0.46190854953601956" fill="none" stroke="#663B00" stroke-width="2" stroke-linecap="round" d="M 169.5 121.5 L 209 115.5 "/>
  <path id="ID0.4265711773186922" fill="none" stroke="#663B00" stroke-width="2" stroke-linecap="round" d="M 186.5 104 L 211 100 "/>
  <path id="ID0.6770876375958323" fill="none" stroke="#663B00" stroke-width="2" stroke-linecap="round" d="M 158 99 L 215 89 "/>
  <path id="ID0.12289463821798563" fill="none" stroke="#663B00" stroke-width="2" stroke-linecap="round" d="M 218.5 120 L 227.5 119.5 "/>
  <path id="ID0.2901320783421397" fill="none" stroke="#663B00" stroke-width="2" stroke-linecap="round" d="M 219 103.5 L 226.5 102 "/>
  <path id="ID0.3234956315718591" fill="none" stroke="#000000" stroke-width="2" stroke-linecap="round" d="M 41.5 133 L 50 144 L 63.5 149 L 70.5 160 "/>
</svg>