<svg xmlns="http://www.w3.org/2000/svg" xmlns:xlink="http://www.w3.org/1999/xlink" version="1.1" width="214.3048858642578" height="38.64101028442383" viewBox="2.5756399631500244 -2.401441216468811 214.3048858642578 38.64101028442383">
  <!-- Exported by Scratch - http://scratch.mit.edu/ -->
  <g id="ID0.015444586053490639">
    <g id="ID0.9250210830941796">
      <path id="ID0.7267415402457118" fill="#FF0000" stroke="none" d="M 104.9067 15.8686 L 104.9159 14.5835 L 105.6139 14.5885 L 105.6048 15.8735 L 104.9067 15.8686 Z " stroke-width="0.03173088213287031"/>
      <path id="ID0.4627634370699525" fill="#FF0000" stroke="none" stroke-linecap="round" d="M 105.2351 16.5373 L 104.4628 15.8178 L 106.0652 15.8292 L 105.235 16.5531 L 105.2351 16.5373 Z " stroke-width="0.03173088213287031"/>
    </g>
    <g id="ID0.9250210830941796">
      <path id="ID0.7267415402457118" fill="#FF9400" stroke="none" d="M 104.9679 15.8837 L 104.9767 14.6478 L 105.5275 14.6517 L 105.5187 15.8876 L 104.9679 15.8837 Z " stroke-width="0.027913327377510653"/>
      <path id="ID0.4627634370699525" fill="#FF9400" stroke="none" stroke-linecap="round" d="M 105.2262 16.5265 L 104.6176 15.8354 L 105.8821 15.8445 L 105.2261 16.5417 L 105.2262 16.5265 Z " stroke-width="0.027913327377510653"/>
    </g>
    <g id="ID0.036269173957407475">
      <g id="ID0.9250210830941796">
        <path id="ID0.7267415402457118" fill="#FF0000" stroke="none" d="M 104.444 14.8734 L 104.422 17.9637 L 106.1007 17.9757 L 106.1227 14.8854 L 104.444 14.8734 Z " stroke-width="0.07630521672021828"/>
        <path id="ID0.4627634370699525" fill="#FF0000" stroke="none" stroke-linecap="round" d="M 105.2566 13.2768 L 103.375 14.9803 L 107.2283 15.0078 L 105.2569 13.2386 L 105.2566 13.2768 Z " stroke-width="0.07630521672021828"/>
      </g>
      <g id="ID0.9250210830941796">
        <path id="ID0.7267415402457118" fill="#FF9400" stroke="none" d="M 104.6175 14.8148 L 104.5963 17.7869 L 105.9209 17.7964 L 105.9421 14.8242 L 104.6175 14.8148 Z " stroke-width="0.0671249034157298"/>
        <path id="ID0.4627634370699525" fill="#FF9400" stroke="none" stroke-linecap="round" d="M 105.2607 13.2782 L 103.7737 14.9188 L 106.8144 14.9405 L 105.2609 13.2415 L 105.2607 13.2782 Z " stroke-width="0.0671249034157298"/>
      </g>
    </g>
  </g>
  <text id="ID0.03657922428101301" fill="#FF0000" text-anchor="start" font-family="Sans Serif" font-size="22" transform="matrix(1.21282 0 0 1.21282 5.42564 -3.03846)" stroke-width="1" alignment-baseline="text-before-edge" xml:space="preserve"><tspan x="0" style="white-space: pre" dy="1.13em">Collect Presents!</tspan></text>
  <text id="ID0.03657922428101301" fill="#FF9400" text-anchor="start" font-family="Sans Serif" font-size="22" transform="matrix(1.21282 0 0 1.21282 3.07564 -2.38846)" stroke-width="1" alignment-baseline="text-before-edge" xml:space="preserve"><tspan x="0" style="white-space: pre" dy="1.13em">Collect Presents!</tspan></text>
</svg>