<svg version="1.1" xmlns="http://www.w3.org/2000/svg" xmlns:xlink="http://www.w3.org/1999/xlink" width="83.97079" height="96.88577" viewBox="0,0,83.97079,96.88577"><defs><linearGradient x1="212.9" y1="191.0803" x2="272.4" y2="191.0803" gradientUnits="userSpaceOnUse" id="color-1"><stop offset="0" stop-color="#cccccc"/><stop offset="1" stop-color="#ffffff"/></linearGradient></defs><g transform="translate(-201.23134,-170.39617)"><g data-paper-data="{&quot;isPaintingLayer&quot;:true}" fill-rule="nonzero" stroke-linejoin="miter" stroke-miterlimit="10" stroke-dasharray="" stroke-dashoffset="0" style="mix-blend-mode: normal"><g fill="#ffb856" stroke-linecap="butt"><path d="M244.0234,243.6885l23.5196,-5.482l5.0184,21.5307l-23.5196,5.482z" stroke="none" stroke-width="0.87744"/><path d="M244.7566,246.112l23.7309,-5.5313l4.5405,19.4801l-23.7309,5.5313z" stroke="#000000" stroke-width="0.97009"/></g><g fill="#ffffff"><path d="M204.7506,214.887l4.3364,-14.1578l4.9241,-3.3504l7.0664,-1.1462l9.5593,1.9291l-4.8244,1.9551l-2.8527,5.9457l-3.0986,5.9012l-2.9612,9.3586l-3.6968,14.2734l-11.4567,-2.6757z" stroke="#000000" stroke-width="0.90323" stroke-linecap="round"/><path d="M203.3043,222.7484l12.381,2.9922l-1.4917,5.3687l-12.3809,-2.9921z" stroke="#000000" stroke-width="0.90303" stroke-linecap="butt"/><path d="M213.9219,225.9935l-9.8421,-1.7702" stroke="#d0cdd2" stroke-width="1.41439" stroke-linecap="round"/><path d="M213.4749,229.5108l-9.2952,-1.9298" stroke="#d0cdd2" stroke-width="1.4298" stroke-linecap="round"/><path d="M213.5503,227.7688l-9.37,-1.852" stroke="#d0cdd2" stroke-width="1.49727" stroke-linecap="round"/></g><path d="M215.15,204.2349l1.75,-3.008l2.5,-2.9632l4.5,-2.6938l8.5,-3.1427l10,-1.3469l17.75,3.5917l5,3.053l3,3.008l1.5,4.2652l1.5,5.4773l1.25,7.0038v10.2813l-1,9.4731l-2.5,7.9466h-52.5l-3.5,-9.9221v-7.9915v-13.5138l0.5,-4.759z" fill="url(#color-1)" stroke="none" stroke-width="0.95033" stroke-linecap="round"/><path d="M213.0321,223.25h59.55v6h-59.55z" fill="#ae6f00" stroke="none" stroke-width="1.00901" stroke-linecap="butt"/><path d="M213.9,223.125h58v6.125h-58z" fill="none" stroke="#000000" stroke-width="0.93958" stroke-linecap="butt"/><path d="M224.65,195.75l18,1.5l20.25,-1.75l4.25,3.75l2.5,7l2.5,7.5l0.25,11l-0.5,10.5l-2.5,9.25l-52.5,1l-3.5,-9.75v-27.25l2.25,-5.75l3.5,-4.75z" fill="none" stroke="#000000" stroke-width="1" stroke-linecap="round"/><g fill="#ffffff"><path d="M284.6092,237.4411l-12.6954,3.3475l-3.9638,-16.2972l-3.5893,-9.5731l-3.0431,-6.403l-4.5491,-6.7931l-5.7352,-3.7314l10.6043,-2.4429l7.9356,1.1621l5.6259,3.7542l5.3761,16.2377z" stroke="#000000" stroke-width="1.02196" stroke-linecap="round"/><path d="M284.3544,231.9009l-13.7157,3.7335l-1.8681,-6.1609l13.7157,-3.7335z" stroke="#000000" stroke-width="1.02179" stroke-linecap="butt"/><path d="M270.7496,229.7254l10.9261,-2.266" stroke="#d0cdd2" stroke-width="1.57827" stroke-linecap="round"/><path d="M271.3812,233.7737l10.3093,-2.4378" stroke="#d0cdd2" stroke-width="1.60917" stroke-linecap="round"/><path d="M271.2315,231.7654l10.3957,-2.3497" stroke="#d0cdd2" stroke-width="1.67727" stroke-linecap="round"/></g><g fill="#b37900" stroke-linecap="round"><g><path d="M231.6,172.5073l21.1423,0.9477l4.6311,6.0655l1.7451,6.8868l2.282,14.8477l-19.1958,1.9586l-15.907,-2.5904l-0.2685,-15.4796l1.8793,-7.5186z" stroke="#ffffff" stroke-width="2.60719"/><path d="M228.1775,196.2409l0.5617,-13.9l2.5275,-7.5818" stroke="#f9f9f9" stroke-width="2.3911"/><path d="M231.7161,196.2409l0.3931,-13.5209l1.6851,-7.7082" stroke="#f9f9f9" stroke-width="2.3911"/><path d="M235.4793,197.5045l0.2808,-12.7627l0.4494,-9.6036" stroke="#f9f9f9" stroke-width="2.3911"/><path d="M239.2425,175.1382l0.7302,7.4554l-0.5617,15.29" stroke="#f9f9f9" stroke-width="2.3911"/><path d="M242.2194,174.7591l1.4042,7.2027l0.8425,17.6277" stroke="#f9f9f9" stroke-width="2.3911"/><path d="M248.2293,180.4455l-1.7974,-4.5491z" stroke="#f9f9f9" stroke-width="2.3911"/><path d="M248.2293,180.4455v18.7018" stroke="#f9f9f9" stroke-width="2.3911"/><path d="M245.7579,174.9486l1.348,2.3378z" stroke="#f9f9f9" stroke-width="2.3911"/><path d="M248.5663,175.0118l2.6399,5.0546l0.7301,18.7018" stroke="#f9f9f9" stroke-width="2.3911"/><path d="M252.3295,174.7591l2.2467,5.56l1.2919,18.9545" stroke="#f9f9f9" stroke-width="2.3911"/></g><path d="M230.95,170.9659h21.5l6.25,8.2136l3.75,23.3773l-20.75,1.8955l-10.5,-1.5796l-7,-0.6318l0.5,-17.0591l1.75,-7.2659z" stroke="#000000" stroke-width="1.13947"/></g><g fill="#ffc158" stroke-linecap="butt"><path d="M218.7513,239.5875l23.2161,3.6416l-3.6076,22.9989l-23.2161,-3.6416z" stroke="none" stroke-width="0.88683"/><path d="M218.918,240.2398l22.7011,3.5608l-3.5936,22.9104l-22.7012,-3.5608z" stroke="#000000" stroke-width="0.99911"/></g></g></g></svg>