<svg xmlns="http://www.w3.org/2000/svg" xmlns:xlink="http://www.w3.org/1999/xlink" version="1.1" width="135.6328465525261" height="35.2030369822136" viewBox="0.13872565905494394 -1.1183575185115844 135.6328465525261 35.2030369822136">
  <!-- Exported by Scratch - http://scratch.mit.edu/ -->
  <path id="ID0.4053494790568948" fill="none" stroke="#FFFFFF" stroke-width="1" stroke-linecap="round" d="M 126.9 20.4 L 128.6 24.75 "/>
  <g id="ID0.327823665458709">
    <path id="ID0.2874125149101019" fill="#FFFFFF" stroke="#E5E5E5" stroke-width="0.5914796498467872" stroke-linejoin="round" d="M 108.6 9.45 C 106.0745 9.45 104.0249 11.6378 104.0249 14.3335 C 104.0249 19.8176 109.2075 21.2554 112.739 26.6771 C 116.0779 21.2888 121.4532 19.6426 121.4532 14.3335 C 121.4532 11.6378 119.4035 9.45 116.8781 9.45 C 115.0462 9.45 113.4696 10.6046 112.739 12.2657 C 112.0085 10.6046 110.4319 9.45 108.6 9.45 Z "/>
    <g id="ID0.2394838952459395">
      <text id="ID0.5552529511041939" fill="#E5E5E5" text-anchor="start" font-family="Sans Serif" font-size="22" transform="matrix(0.649712 0 0 0.649712 124.399 4.15086)" stroke-width="1" alignment-baseline="text-before-edge" xml:space="preserve"><tspan x="0" style="white-space: pre" dy="1.13em">+</tspan></text>
      <text id="ID0.5552529511041939" fill="#FFFFFF" text-anchor="start" font-family="Sans Serif" font-size="22" transform="matrix(0.649712 0 0 0.649712 123.949 4.50086)" stroke-width="1" alignment-baseline="text-before-edge" xml:space="preserve"><tspan x="0" style="white-space: pre" dy="1.13em">+</tspan></text>
    </g>
  </g>
  <g id="ID0.37403969932347536">
    <g id="ID0.5512953721918166">
      <path id="ID0.8577122259885073" fill="none" stroke="#E5E5E5" stroke-width="3.2137486521354734" stroke-linecap="round" d="M 108.35 10.2596 L 127.6 10.2596 "/>
      <path id="ID0.8577122259885073" fill="none" stroke="#E5E5E5" stroke-width="3.2137486521354734" stroke-linecap="round" d="M 108.7 17.0958 L 127.8 17.0958 "/>
      <path id="ID0.8577122259885073" fill="none" stroke="#E5E5E5" stroke-width="3.2137486521354734" stroke-linecap="round" d="M 108.9 24.6665 L 128.3 24.8372 "/>
    </g>
    <g id="ID0.5512953721918166">
      <path id="ID0.8577122259885073" fill="none" stroke="#FFFFFF" stroke-width="3.2137486521354734" stroke-linecap="round" d="M 106.95 11.0096 L 126.2 11.0096 "/>
      <path id="ID0.8577122259885073" fill="none" stroke="#FFFFFF" stroke-width="3.2137486521354734" stroke-linecap="round" d="M 107.3 17.8458 L 126.4 17.8458 "/>
      <path id="ID0.8577122259885073" fill="none" stroke="#FFFFFF" stroke-width="3.2137486521354734" stroke-linecap="round" d="M 107.5 25.4165 L 126.9 25.5872 "/>
    </g>
  </g>
  <g id="ID0.042299107648432255">
    <g id="ID0.2951776240952313">
      <path id="ID0.6735641770064831" fill="#E5E5E5" stroke="none" stroke-linecap="round" d="M 105.4766 10.7495 L 125.9317 10.7495 L 125.7538 22.1331 L 111.4175 22.1331 L 105.4766 10.7495 Z " stroke-width="0.711479902267456"/>
      <path id="ID0.4860888053663075" fill="#E5E5E5" stroke="none" d="M 111.9651 21.0111 C 112.5834 21.0111 113.1441 21.2501 113.5496 21.6365 C 113.9551 22.0228 114.2063 22.5564 114.2063 23.1455 C 114.2063 23.7346 113.9551 24.2682 113.5496 24.6546 C 113.1441 25.0409 112.5834 25.28 111.9651 25.28 C 111.3469 25.28 110.7862 25.0409 110.3807 24.6546 C 109.9751 24.2682 109.724 23.7346 109.724 23.1455 C 109.724 22.5564 109.9751 22.0228 110.3807 21.6365 C 110.7862 21.2501 111.3469 21.0111 111.9651 21.0111 Z " stroke-width="0.711479902267456"/>
      <path id="ID0.4860888053663075" fill="#E5E5E5" stroke="none" d="M 124.8151 20.9611 C 125.4334 20.9611 125.9941 21.2001 126.3996 21.5865 C 126.8051 21.9728 127.0563 22.5064 127.0563 23.0955 C 127.0563 23.6846 126.8051 24.2182 126.3996 24.6046 C 125.9941 24.9909 125.4334 25.23 124.8151 25.23 C 124.1969 25.23 123.6362 24.9909 123.2307 24.6046 C 122.8251 24.2182 122.574 23.6846 122.574 23.0955 C 122.574 22.5064 122.8251 21.9728 123.2307 21.5865 C 123.6362 21.2001 124.1969 20.9611 124.8151 20.9611 Z " stroke-width="0.711479902267456"/>
      <path id="ID0.8597310543991625" fill="none" stroke="#E5E5E5" stroke-width="1.422959804534912" stroke-linecap="round" d="M 124.3093 11.6551 L 127.0841 7.1372 "/>
    </g>
    <g id="ID0.2951776240952313">
      <path id="ID0.6735641770064831" fill="#FFFFFF" stroke="none" stroke-linecap="round" d="M 104.5766 11.6495 L 125.0317 11.6495 L 124.8538 23.0331 L 110.5175 23.0331 L 104.5766 11.6495 Z " stroke-width="0.711479902267456"/>
      <path id="ID0.4860888053663075" fill="#FFFFFF" stroke="none" d="M 111.0651 21.9611 C 111.6834 21.9611 112.2441 22.2001 112.6496 22.5865 C 113.0551 22.9728 113.3063 23.5064 113.3063 24.0955 C 113.3063 24.6846 113.0551 25.2182 112.6496 25.6046 C 112.2441 25.9909 111.6834 26.23 111.0651 26.23 C 110.4469 26.23 109.8862 25.9909 109.4807 25.6046 C 109.0751 25.2182 108.824 24.6846 108.824 24.0955 C 108.824 23.5064 109.0751 22.9728 109.4807 22.5865 C 109.8862 22.2001 110.4469 21.9611 111.0651 21.9611 Z " stroke-width="0.711479902267456"/>
      <path id="ID0.4860888053663075" fill="#FFFFFF" stroke="none" d="M 123.9151 21.8611 C 124.5334 21.8611 125.0941 22.1001 125.4996 22.4865 C 125.9051 22.8728 126.1563 23.4064 126.1563 23.9955 C 126.1563 24.5846 125.9051 25.1182 125.4996 25.5046 C 125.0941 25.8909 124.5334 26.13 123.9151 26.13 C 123.2969 26.13 122.7362 25.8909 122.3307 25.5046 C 121.9251 25.1182 121.674 24.5846 121.674 23.9955 C 121.674 23.4064 121.9251 22.8728 122.3307 22.4865 C 122.7362 22.1001 123.2969 21.8611 123.9151 21.8611 Z " stroke-width="0.711479902267456"/>
      <path id="ID0.8597310543991625" fill="none" stroke="#FFFFFF" stroke-width="1.422959804534912" stroke-linecap="round" d="M 123.4093 12.6051 L 126.1841 8.0872 "/>
    </g>
  </g>
  <g id="ID0.6104965382255614">
    <g id="ID0.4420147663913667">
      <path id="ID0.688658619299531" fill="#E5E5E5" stroke="none" stroke-linecap="round" d="M 116.9774 29.6544 L 115.6241 28.6844 L 115.6241 28.6946 L 116.9774 27.7654 L 116.9774 29.6544 Z " stroke-width="0.0970648265513506"/>
      <path id="ID0.688658619299531" fill="#FFFFFF" stroke="none" stroke-linecap="round" d="M 117.0774 29.6544 L 115.7241 28.6844 L 115.7241 28.6946 L 117.0774 27.7654 L 117.0774 29.6544 Z " stroke-width="0.0970648265513506"/>
    </g>
    <path id="ID0.6687271576374769" fill="#FFFFFF" stroke="none" d="M 115.4492 27.056 L 114.9497 27.056 L 114.9497 26.1571 L 115.4492 26.1571 L 115.4492 27.056 Z " stroke-width="0.08256089119688464"/>
    <path id="ID0.6687271576374769" fill="#FFFFFF" stroke="none" d="M 115.1492 28.2688 L 114.6497 28.2688 L 114.6497 26.8922 L 115.1492 26.8922 L 115.1492 28.2688 Z " stroke-width="0.10903884526566476"/>
    <path id="ID0.6687271576374769" fill="#FFFFFF" stroke="none" d="M 114.4992 26.7101 L 113.9997 26.7101 L 113.9997 26.163 L 114.4992 26.163 L 114.4992 26.7101 Z " stroke-width="0.06665042723912552"/>
  </g>
  <g id="ID0.7488951468840241">
    <path id="ID0.7623475193977356" fill="#FFFFFF" stroke="none" d="M 115.25 8.65 C 117.526 8.65 119.589 9.574 121.082 11.068 C 122.576 12.561 123.5 14.624 123.5 16.9 C 123.5 19.176 122.576 21.239 121.082 22.732 C 119.589 24.226 117.526 25.15 115.25 25.15 C 112.974 25.15 110.911 24.226 109.418 22.732 C 107.924 21.239 107 19.176 107 16.9 C 107 14.624 107.924 12.561 109.418 11.068 C 110.911 9.574 112.974 8.65 115.25 8.65 Z " stroke-width="1"/>
    <path id="ID0.5525465356186032" fill="#FFFFFF" stroke="none" d="M 112.25 6.9 L 117.65 6.9 L 117.65 10.55 L 112.25 10.55 L 112.25 6.9 Z " stroke-width="1"/>
    <path id="ID0.5525465356186032" fill="#FFFFFF" stroke="none" d="M 104.8177 14.1904 L 107.2841 9.3866 L 110.5311 11.0537 L 108.0647 15.8575 L 104.8177 14.1904 Z " stroke-width="0.9999999849931899"/>
    <path id="ID0.5525465356186032" fill="#FFFFFF" stroke="none" d="M 106.5227 23.798 L 104.2025 18.9219 L 107.4984 17.3536 L 109.8186 22.2297 L 106.5227 23.798 Z " stroke-width="1.0000000055499143"/>
    <path id="ID0.5525465356186032" fill="#FFFFFF" stroke="none" d="M 116.4406 27.5864 L 111.0624 27.1018 L 111.39 23.4665 L 116.7682 23.9512 L 116.4406 27.5864 Z " stroke-width="1.0000000082616203"/>
    <path id="ID0.5525465356186032" fill="#FFFFFF" stroke="none" d="M 125.2536 22.5526 L 121.132 26.0415 L 118.7737 23.2556 L 122.8953 19.7667 L 125.2536 22.5526 Z " stroke-width="1.0000000065852994"/>
    <path id="ID0.5525465356186032" fill="#FFFFFF" stroke="none" d="M 123.4726 10.31 L 126.5091 14.7754 L 123.4908 16.8278 L 120.4543 12.3624 L 123.4726 10.31 Z " stroke-width="0.9999999936330433"/>
    <path id="ID0.8717183023691177" fill="#FF9400" stroke="none" d="M 115.05 12.1 C 116.498 12.1 117.811 12.688 118.761 13.639 C 119.712 14.589 120.3 15.902 120.3 17.35 C 120.3 18.798 119.712 20.111 118.761 21.061 C 117.811 22.012 116.498 22.6 115.05 22.6 C 113.602 22.6 112.289 22.012 111.339 21.061 C 110.388 20.111 109.8 18.798 109.8 17.35 C 109.8 15.902 110.388 14.589 111.339 13.639 C 112.289 12.688 113.602 12.1 115.05 12.1 Z " stroke-width="1"/>
  </g>
  <g id="ID0.3024542797356844">
    <g id="ID0.45447447383776307">
      <g id="ID0.84568802267313">
        <path id="ID0.7356370552442968" fill="#E5E5E5" stroke="none" stroke-linecap="round" d="M 119.029 8.9726 C 120.5343 8.9773 122.2427 8.5126 123.5339 9.2436 C 124.3861 9.7286 124.4958 11.0753 124.4145 12.0548 C 124.3149 13.2586 123.8645 14.5308 122.975 15.383 C 122.0862 16.2352 120.8581 16.7629 119.5032 16.7629 C 118.1484 16.7629 116.9202 16.2352 116.0315 15.383 C 115.142 14.5308 114.68 13.262 114.5919 12.0548 C 114.5222 11.0678 114.6143 9.8417 115.4048 9.3113 C 116.4264 8.6278 117.8198 9.0004 119.029 8.9726 Z " stroke-width="0.6774193644523621"/>
        <path id="ID0.755144601687789" fill="#E5E5E5" stroke="none" d="M 117.979 15.4419 L 121.0952 15.4419 L 121.0952 21.6403 L 117.979 21.6403 L 117.979 15.4419 Z " stroke-width="0.6774193644523621"/>
        <path id="ID0.7236620127223432" fill="#E5E5E5" stroke="none" stroke-linecap="round" d="M 114.9306 23.8081 L 118.2161 21.3694 L 121.0274 21.979 L 124.1436 23.9436 L 124.1436 24.9597 L 114.829 24.9258 L 114.9306 23.8081 Z " stroke-width="0.6774193644523621"/>
      </g>
      <g id="ID0.84568802267313">
        <path id="ID0.7356370552442968" fill="#FFFFFF" stroke="none" stroke-linecap="round" d="M 118.721 9.6726 C 120.0419 9.6794 121.5553 9.2451 122.6839 9.9436 C 123.5144 10.4638 123.6458 11.7753 123.5645 12.7548 C 123.4649 13.9586 123.0145 15.2308 122.125 16.083 C 121.2362 16.9352 120.0081 17.4629 118.6532 17.4629 C 117.2984 17.4629 116.0702 16.9352 115.1815 16.083 C 114.292 15.2308 113.83 13.962 113.7419 12.7548 C 113.6722 11.7678 113.7399 10.5031 114.5548 10.0113 C 115.7424 9.2953 117.3282 9.7017 118.721 9.6726 Z " stroke-width="0.6774193644523621"/>
        <path id="ID0.755144601687789" fill="#FFFFFF" stroke="none" d="M 117.129 16.1419 L 120.2452 16.1419 L 120.2452 22.3403 L 117.129 22.3403 L 117.129 16.1419 Z " stroke-width="0.6774193644523621"/>
        <path id="ID0.7236620127223432" fill="#FFFFFF" stroke="none" stroke-linecap="round" d="M 113.979 24.1016 L 117.3661 22.0694 L 120.1774 22.0694 L 123.5645 24.2032 L 123.6323 25.6258 L 113.979 25.6258 L 113.979 24.1016 Z " stroke-width="0.6774193644523621"/>
      </g>
    </g>
    <path id="ID0.5466492930427194" fill="none" stroke="#FFFFFF" stroke-width="1.3548387289047241" d="M 111.1065 10.7677 L 116.4242 10.7677 L 116.4242 15.4758 L 111.1065 15.4758 L 111.1065 10.7677 Z "/>
    <path id="ID0.5466492930427194" fill="none" stroke="#FFFFFF" stroke-width="1.3548387289047241" d="M 121.2065 10.7677 L 126.5242 10.7677 L 126.5242 15.4758 L 121.2065 15.4758 L 121.2065 10.7677 Z "/>
  </g>
  <path id="ID0.6489545395597816" fill="#FF9400" stroke="#FF9400" stroke-width="1" d="M 1.75 1.75 L 133.75 1.75 L 133.75 16.75 L 1.75 16.75 L 1.75 1.75 Z "/>
  <path id="ID0.6489545395597816" fill="#CC7700" stroke="#FF9400" stroke-width="1" d="M 1.75 17.25 L 133.75 17.25 L 133.75 32.25 L 1.75 32.25 L 1.75 17.25 Z "/>
  <path id="ID0.8392949406988919" fill="none" stroke="#000000" stroke-width="2.029411792755127" d="M 1.7456 1.7456 L 134.1647 1.7456 L 134.1647 32.1868 L 1.7456 32.1868 L 1.7456 1.7456 Z "/>
  <g id="ID0.21886784909293056">
    <text id="ID0.16412566741928458" fill="#E5E5E5" text-anchor="start" font-family="Sans Serif" font-size="22" transform="matrix(1.06354 0 0 1.06354 8.77708 -0.940615)" stroke-width="1" alignment-baseline="text-before-edge" xml:space="preserve"><tspan x="0" style="white-space: pre" dy="1.13em">BACK</tspan></text>
    <text id="ID0.16412566741928458" fill="#FFFFFF" text-anchor="start" font-family="Sans Serif" font-size="22" transform="matrix(1.06354 0 0 1.06354 7.62708 -0.940615)" stroke-width="1" alignment-baseline="text-before-edge" xml:space="preserve"><tspan x="0" style="white-space: pre" dy="1.13em">BACK</tspan></text>
  </g>
  <g id="ID0.8273691358044744">
    <g id="ID0.8239631494507194">
      <path id="ID0.9477608436718583" fill="#E5E5E5" stroke="none" d="M 100.55 23.4 L 117.95 23.4 L 117.95 26.7 L 100.55 26.7 L 100.55 23.4 Z " stroke-width="1"/>
      <path id="ID0.9477608436718583" fill="#E5E5E5" stroke="none" d="M 118.418 8.9425 L 118.4825 26.3424 L 115.1825 26.3546 L 115.1181 8.9547 L 118.418 8.9425 Z " stroke-width="1.0000000028993221"/>
      <path id="ID0.9477608436718583" fill="#E5E5E5" stroke="none" d="M 100.9 9 L 118.3 9 L 118.3 12.3 L 100.9 12.3 L 100.9 9 Z " stroke-width="1"/>
      <path id="ID0.7126721567474306" fill="#E5E5E5" stroke="none" d="M 98.2389 12.2415 L 100.5874 9.8526 L 106.0785 15.2505 L 103.73 17.6395 L 98.2389 12.2415 Z " stroke-width="0.9491178994170032"/>
      <path id="ID0.7126721567474306" fill="#E5E5E5" stroke="none" d="M 106.2111 7.1915 L 103.8626 4.8026 L 98.3715 10.2006 L 100.72 12.5895 L 106.2111 7.1915 Z " stroke-width="0.9491179411385479"/>
    </g>
    <g id="ID0.8239631494507194">
      <path id="ID0.9477608436718583" fill="#FFFFFF" stroke="none" d="M 99.45 23.9 L 116.85 23.9 L 116.85 27.2 L 99.45 27.2 L 99.45 23.9 Z " stroke-width="1"/>
      <path id="ID0.9477608436718583" fill="#FFFFFF" stroke="none" d="M 117.318 9.4425 L 117.3825 26.8424 L 114.0825 26.8546 L 114.0181 9.4547 L 117.318 9.4425 Z " stroke-width="1.0000000028993221"/>
      <path id="ID0.9477608436718583" fill="#FFFFFF" stroke="none" d="M 99.75 9.5 L 117.15 9.5 L 117.15 12.8 L 99.75 12.8 L 99.75 9.5 Z " stroke-width="1"/>
      <path id="ID0.7126721567474306" fill="#FFFFFF" stroke="none" d="M 97.1389 12.7415 L 99.4874 10.3526 L 104.9785 15.7505 L 102.63 18.1395 L 97.1389 12.7415 Z " stroke-width="0.9491178994170032"/>
      <path id="ID0.7126721567474306" fill="#FFFFFF" stroke="none" d="M 105.1111 7.6915 L 102.7626 5.3026 L 97.2715 10.7006 L 99.62 13.0895 L 105.1111 7.6915 Z " stroke-width="0.9491179411385479"/>
    </g>
  </g>
</svg>