<svg xmlns="http://www.w3.org/2000/svg" xmlns:xlink="http://www.w3.org/1999/xlink" version="1.1" width="134.44850969314575" height="32.533812046051025" viewBox="0.7308940887451172 0.7308940887451172 134.44850969314575 32.533812046051025">
  <!-- Exported by Scratch - http://scratch.mit.edu/ -->
  <g id="ID0.6104965382255614">
    <g id="ID0.4420147663913667">
      <path id="ID0.688658619299531" fill="#E5E5E5" stroke="none" stroke-linecap="round" d="M 109.7385 22.9044 L 108.2325 21.9344 L 108.2325 21.9446 L 109.7385 21.0154 L 109.7385 22.9044 Z " stroke-width="0.10210582613945007"/>
      <path id="ID0.688658619299531" fill="#FFFFFF" stroke="none" stroke-linecap="round" d="M 109.8385 22.9044 L 108.3325 21.9344 L 108.3325 21.9446 L 109.8385 21.0154 L 109.8385 22.9044 Z " stroke-width="0.10210582613945007"/>
    </g>
    <path id="ID0.6687271576374769" fill="#FFFFFF" stroke="none" d="M 108.0176 20.306 L 107.4618 20.306 L 107.4618 19.4071 L 108.0176 19.4071 L 108.0176 20.306 Z " stroke-width="0.08684863895177841"/>
    <path id="ID0.6687271576374769" fill="#FFFFFF" stroke="none" d="M 107.7176 21.5188 L 107.1618 21.5188 L 107.1618 20.1422 L 107.7176 20.1422 L 107.7176 21.5188 Z " stroke-width="0.11232032367039421"/>
    <path id="ID0.6687271576374769" fill="#FFFFFF" stroke="none" d="M 106.9676 19.9601 L 106.4118 19.9601 L 106.4118 19.413 L 106.9676 19.413 L 106.9676 19.9601 Z " stroke-width="0.07189342656815366"/>
  </g>
  <path id="ID0.6489545395597816" fill="#FF9400" stroke="#FF9400" stroke-width="1" d="M 1.75 1.75 L 133.75 1.75 L 133.75 16.75 L 1.75 16.75 L 1.75 1.75 Z "/>
  <path id="ID0.6489545395597816" fill="#CC7700" stroke="#FF9400" stroke-width="1" d="M 1.75 17.25 L 133.75 17.25 L 133.75 32.25 L 1.75 32.25 L 1.75 17.25 Z "/>
  <path id="ID0.8392949406988919" fill="none" stroke="#000000" stroke-width="2.029411792755127" d="M 1.7456 1.7456 L 134.1647 1.7456 L 134.1647 32.1868 L 1.7456 32.1868 L 1.7456 1.7456 Z "/>
  <g id="ID0.22547684190794826">
    <text id="ID0.16412566741928458" fill="#E5E5E5" text-anchor="start" font-family="Sans Serif" font-size="22" transform="matrix(0.659555 0 0 0.659555 4.26911 6.17134)" stroke-width="1" alignment-baseline="text-before-edge" xml:space="preserve"><tspan x="0" style="white-space: pre" dy="1.13em">HIGHSCORES</tspan></text>
    <text id="ID0.16412566741928458" fill="#FFFFFF" text-anchor="start" font-family="Sans Serif" font-size="22" transform="matrix(0.659555 0 0 0.659555 3.51911 6.22134)" stroke-width="1" alignment-baseline="text-before-edge" xml:space="preserve"><tspan x="0" style="white-space: pre" dy="1.13em">HIGHSCORES</tspan></text>
  </g>
  <g id="ID0.3024542797356844">
    <g id="ID0.45447447383776307">
      <g id="ID0.84568802267313">
        <path id="ID0.7356370552442968" fill="#E5E5E5" stroke="none" stroke-linecap="round" d="M 118.9984 8.9387 C 120.5036 8.9435 122.2121 8.4787 123.5032 9.2097 C 124.3554 9.6947 124.4652 11.0414 124.3839 12.021 C 124.2843 13.2247 123.8338 14.4969 122.9444 15.3491 C 122.0556 16.2013 120.8274 16.729 119.4726 16.729 C 118.1177 16.729 116.8896 16.2013 116.0008 15.3491 C 115.1114 14.4969 114.6494 13.2281 114.5613 12.021 C 114.4915 11.034 114.5836 9.8078 115.3742 9.2774 C 116.3957 8.5939 117.7892 8.9665 118.9984 8.9387 Z " stroke-width="0.6774193644523621"/>
        <path id="ID0.755144601687789" fill="#E5E5E5" stroke="none" d="M 117.9484 15.4081 L 121.0645 15.4081 L 121.0645 21.6065 L 117.9484 21.6065 L 117.9484 15.4081 Z " stroke-width="0.6774193644523621"/>
        <path id="ID0.7236620127223432" fill="#E5E5E5" stroke="none" stroke-linecap="round" d="M 114.9 23.7742 L 118.1855 21.3355 L 120.9968 21.9452 L 124.1129 23.9097 L 124.1129 24.9258 L 114.7984 24.8919 L 114.9 23.7742 Z " stroke-width="0.6774193644523621"/>
      </g>
      <g id="ID0.84568802267313">
        <path id="ID0.7356370552442968" fill="#FFFFFF" stroke="none" stroke-linecap="round" d="M 118.6936 9.65 C 120.0145 9.6568 121.5279 9.2226 122.6565 9.921 C 123.487 10.4412 123.6184 11.7527 123.5371 12.7323 C 123.4375 13.936 122.987 15.2082 122.0976 16.0604 C 121.2088 16.9126 119.9806 17.4403 118.6258 17.4403 C 117.271 17.4403 116.0428 16.9126 115.154 16.0604 C 114.2646 15.2082 113.8026 13.9394 113.7145 12.7323 C 113.6447 11.7453 113.7125 10.4805 114.5274 9.9887 C 115.7149 9.2727 117.3008 9.6791 118.6936 9.65 Z " stroke-width="0.6774193644523621"/>
        <path id="ID0.755144601687789" fill="#FFFFFF" stroke="none" d="M 117.1016 16.1194 L 120.2177 16.1194 L 120.2177 22.3177 L 117.1016 22.3177 L 117.1016 16.1194 Z " stroke-width="0.6774193644523621"/>
        <path id="ID0.7236620127223432" fill="#FFFFFF" stroke="none" stroke-linecap="round" d="M 113.9516 24.079 L 117.3387 22.0468 L 120.15 22.0468 L 123.5371 24.1806 L 123.6048 25.6032 L 113.9516 25.6032 L 113.9516 24.079 Z " stroke-width="0.6774193644523621"/>
      </g>
    </g>
    <path id="ID0.5466492930427194" fill="none" stroke="#FFFFFF" stroke-width="1.3548387289047241" d="M 111.1065 10.7677 L 116.4242 10.7677 L 116.4242 15.4758 L 111.1065 15.4758 L 111.1065 10.7677 Z "/>
    <path id="ID0.5466492930427194" fill="none" stroke="#FFFFFF" stroke-width="1.3548387289047241" d="M 121.2 10.7677 L 126.5177 10.7677 L 126.5177 15.4758 L 121.2 15.4758 L 121.2 10.7677 Z "/>
  </g>
</svg>