<svg xmlns="http://www.w3.org/2000/svg" xmlns:xlink="http://www.w3.org/1999/xlink" version="1.1" width="47.652099609375" height="44.36442565917969" viewBox="0.04050004482269287 -0.3718268871307373 47.652099609375 44.36442565917969">
  <!-- Exported by Scratch - http://scratch.mit.edu/ -->
  <g id="ID0.13645795872434974">
    <g id="ID0.9928622245788574">
      <g id="ID0.7250804053619504">
        <g id="Box_3_">
          <path id="Box_Fill_3_" fill="#961212" d="M 4.9942 10.7604 L 6.4453 35.7893 L 21.302 43.1371 L 39.4691 35.1432 L 41.1947 10.7604 L 21.7863 5.5123 L 4.9942 10.7604 " stroke-width="0.8097629547119141"/>
          <path id="Box_Top_3_" fill="#B72020" d="M 4.9942 10.7604 L 21.6778 16.1162 L 41.3259 10.7604 L 21.7863 5.5123 L 4.9942 10.7604 " stroke-width="0.8097629547119141"/>
          <path id="Box_Side_3_" fill="#A81616" d="M 21.6778 16.1162 L 21.302 43.1371 L 39.4691 35.1432 L 41.3259 10.7604 L 21.6778 16.1162 " stroke-width="0.8097629547119141"/>
          <path id="Box_Outline_3_" d="M 21.2931 43.4926 L 6.1319 35.9958 L 4.6574 10.5264 L 21.779 5.1754 L 41.5364 10.5183 L 39.7776 35.361 L 21.2931 43.4926 L 21.2931 43.4926 Z M 6.7555 35.5853 L 21.3093 42.7816 L 39.1606 34.9269 L 40.8546 11.0033 L 21.7911 5.8475 L 5.3311 10.9928 L 6.7555 35.5853 L 6.7555 35.5853 Z " stroke-width="0.8097629547119141" fill="undefined"/>
        </g>
        <path id="R_Ribbon_3_" fill="#F9C780" stroke="#000000" stroke-width="0.40488147735595703" d="M 11.4513 8.6331 L 28.6928 14.2043 C 28.6928 14.2043 27.9235 40.575 27.8449 40.6107 C 27.7664 40.6463 34.2218 38.0089 34.2218 38.0089 L 35.3717 12.3823 L 17.1439 6.7326 L 11.4513 8.6331 Z "/>
        <path id="L_Ribbon_3_" fill="#F9C780" stroke="#000000" stroke-width="0.40488147735595703" d="M 28.0846 7.127 L 10.316 12.469 L 10.7346 38.2721 L 15.8313 40.7929 L 15.7495 14.2124 L 34.221 8.8226 L 28.0846 7.127 "/>
        <g id="Bow_3_">
          <g id="ID0.261370524764061">
            <path id="ID0.258471533190459" fill="#F9C780" d="M 33.5951 12.5702 C 28.1632 12.5702 23.3086 11.6171 22.0778 11.3556 L 22.9596 10.1425 C 24.2739 10.213 25.5687 10.2486 26.8117 10.2486 C 26.8125 10.2486 26.8125 10.2486 26.8133 10.2486 C 39.3638 10.2486 44.7455 6.7261 46.1132 5.6322 C 45.9213 7.2047 44.4086 9.1878 44.3916 9.2097 L 44.2135 9.4405 L 44.4928 9.5263 C 45.2524 9.7603 45.969 9.8389 46.463 9.8624 C 43.3203 11.66 38.9962 12.5702 33.5951 12.5702 L 33.5951 12.5702 Z " stroke-width="0.8097629547119141"/>
            <path id="ID0.22370942682027817" d="M 45.8144 6.1091 C 45.4306 7.5149 44.2475 9.0672 44.2329 9.0866 L 43.8782 9.549 L 44.4354 9.7206 C 44.9131 9.8672 45.3739 9.9547 45.7755 10.0057 C 42.7195 11.5742 38.631 12.3678 33.5959 12.3678 C 28.5591 12.3678 24.018 11.545 22.4268 11.2211 L 23.06 10.3506 C 24.3395 10.4179 25.6019 10.4519 26.8149 10.4519 C 38.3686 10.4511 43.9001 7.4638 45.8144 6.1091 M 46.3326 5.1754 C 46.3326 5.1754 41.4384 10.0462 26.8141 10.0462 C 25.5671 10.0462 24.252 10.0114 22.8608 9.9344 L 21.7312 11.4867 C 21.7312 11.4867 27.2319 12.7726 33.5942 12.7726 C 38.2771 12.7726 43.4272 12.0762 47.1926 9.6567 C 47.1926 9.6567 47.0557 9.6688 46.8225 9.6688 C 46.3521 9.6688 45.488 9.621 44.5528 9.3336 C 44.5536 9.3336 46.4387 6.8849 46.3326 5.1754 L 46.3326 5.1754 Z " stroke-width="0.8097629547119141" fill="undefined"/>
          </g>
          <g id="ID0.022066988050937653">
            <path id="ID0.09162097191438079" fill="#F9C780" d="M 10.4002 12.9063 C 6.4923 12.9063 3.3666 11.9953 1.0985 10.1968 C 1.4629 10.1717 1.9835 10.0899 2.5334 9.8559 L 2.7407 9.7684 L 2.6313 9.5716 C 2.6192 9.5506 1.5689 7.6485 1.3916 6.0808 C 2.5658 7.3076 6.5271 10.5855 15.3228 10.5855 C 16.2103 10.5855 17.1334 10.5515 18.0687 10.4826 L 18.71 11.6997 C 17.7966 11.9669 14.3033 12.9063 10.4002 12.9063 L 10.4002 12.9063 Z " stroke-width="0.8097629547119141"/>
            <path id="ID0.5009593297727406" d="M 1.6953 6.6549 C 3.3067 8.1076 7.3587 10.7879 15.3219 10.7879 C 16.1722 10.7879 17.0548 10.7563 17.9504 10.694 L 18.4144 11.5734 C 17.2419 11.9005 13.9988 12.7038 10.4002 12.7038 C 6.7619 12.7038 3.8144 11.9078 1.6191 10.3361 C 1.9188 10.2826 2.2597 10.1927 2.6127 10.0429 L 3.0281 9.8664 L 2.8087 9.4729 C 2.7982 9.455 2.0094 8.0282 1.6953 6.6549 M 1.1673 5.5123 C 1.0887 7.2201 2.4548 9.6704 2.4548 9.6704 C 1.7779 9.9579 1.1511 10.0057 0.8094 10.0057 C 0.6401 10.0057 0.5405 9.9935 0.5405 9.9935 C 3.2719 12.4123 7.0041 13.1087 10.4002 13.1087 C 15.0134 13.1087 19.0031 11.8228 19.0031 11.8228 L 18.1853 10.2713 C 17.1779 10.3482 16.2248 10.383 15.3219 10.383 C 4.7141 10.383 1.1673 5.5123 1.1673 5.5123 L 1.1673 5.5123 Z " stroke-width="0.8097629547119141" fill="undefined"/>
          </g>
          <path id="ID0.2103307875804603" fill="#F9C780" stroke="#000000" stroke-width="0.40488147735595703" d="M 21.302 8.1764 C 21.302 8.1764 25.9047 4.5584 27.5996 2.6206 C 29.2944 0.6829 33.2736 -1.0832 33.7991 1.2181 C 34.3247 3.5195 34.302 3.3324 35.7142 4.4629 C 37.1281 5.5933 38.0957 8.54 33.655 10.115 C 29.2142 11.6892 25.044 11.9993 22.5005 11.6365 C 19.957 11.2722 20.4866 8.8226 21.302 8.1764 Z "/>
          <path id="ID0.125349217094481" fill="#F9C780" stroke="#000000" stroke-width="0.40488147735595703" d="M 18.757 7.7124 C 18.757 7.7124 16.403 5.1617 15.1916 4.4086 C 13.9802 3.6555 12.5801 1.6368 11.4237 3.1972 C 10.2666 4.7576 8.6519 5.135 7.5215 6.2387 C 6.3911 7.3416 7.7903 8.1489 9.8633 9.0647 C 11.9363 9.979 16.9131 10.6511 18.757 10.7604 C 20.6016 10.8673 19.7125 8.459 18.757 7.7124 Z "/>
          <path id="ID0.03181919315829873" fill="#F9C780" stroke="#000000" stroke-width="0.40488147735595703" d="M 18.4484 11.7556 C 19.2606 12.2107 19.7279 12.6981 22.1653 12.0017 C 22.6195 11.8738 22.7005 11.2722 22.0543 9.9798 C 21.4097 8.6882 22.9167 7.9878 21.2478 7.6647 C 19.5789 7.3416 18.1253 7.5035 18.1796 8.6331 C 18.2339 9.7636 17.2573 11.0916 18.4484 11.7556 Z "/>
        </g>
      </g>
    </g>
  </g>
</svg>