<svg xmlns="http://www.w3.org/2000/svg" xmlns:xlink="http://www.w3.org/1999/xlink" version="1.1" width="41.0984992980957" height="38.27277374267578" viewBox="0.08310002088546753 -0.30927085876464844 41.0984992980957 38.27277374267578">
  <!-- Exported by Scratch - http://scratch.mit.edu/ -->
  <g id="ID0.13645795872434974">
    <g id="ID0.9928622245788574">
      <g id="ID0.7250804053619504">
        <g id="Box_3_">
          <path id="Box_Fill_3_" fill="#961212" d="M 4.4111 9.3294 L 5.6584 30.8424 L 18.4281 37.158 L 34.0431 30.287 L 35.5263 9.3294 L 18.8443 4.8186 L 4.4111 9.3294 " stroke-width="0.69601054491649"/>
          <path id="Box_Top_3_" fill="#B72020" d="M 4.4111 9.3294 L 18.751 13.9328 L 35.639 9.3294 L 18.8443 4.8186 L 4.4111 9.3294 " stroke-width="0.69601054491649"/>
          <path id="Box_Side_3_" fill="#A81616" d="M 18.751 13.9328 L 18.4281 37.158 L 34.0431 30.287 L 35.639 9.3294 L 18.751 13.9328 " stroke-width="0.69601054491649"/>
          <path id="Box_Outline_3_" d="M 18.4204 37.4635 L 5.389 31.0199 L 4.1216 9.1283 L 18.838 4.529 L 35.82 9.1213 L 34.3082 30.4742 L 18.4204 37.4635 L 18.4204 37.4635 Z M 5.9249 30.667 L 18.4343 36.8524 L 33.7779 30.1011 L 35.2339 9.5382 L 18.8485 5.1067 L 4.7007 9.5292 L 5.9249 30.667 L 5.9249 30.667 Z " stroke-width="0.69601054491649" fill="undefined"/>
        </g>
        <path id="R_Ribbon_3_" fill="#F9C780" stroke="#000000" stroke-width="0.348005272458245" d="M 9.9611 7.501 L 24.7806 12.2895 C 24.7806 12.2895 24.1193 34.9558 24.0518 34.9864 C 23.9843 35.0171 29.5329 32.7502 29.5329 32.7502 L 30.5213 10.7235 L 14.8541 5.8674 L 9.9611 7.501 Z "/>
        <path id="L_Ribbon_3_" fill="#F9C780" stroke="#000000" stroke-width="0.348005272458245" d="M 24.2579 6.2064 L 8.9853 10.798 L 9.3451 32.9764 L 13.7258 35.143 L 13.6555 12.2965 L 29.5322 7.6638 L 24.2579 6.2064 "/>
        <g id="Bow_3_">
          <g id="ID0.261370524764061">
            <path id="ID0.258471533190459" fill="#F9C780" d="M 28.9942 10.885 C 24.3254 10.885 20.1528 10.0658 19.0948 9.841 L 19.8528 8.7983 C 20.9824 8.8589 22.0953 8.8895 23.1637 8.8895 C 23.1644 8.8895 23.1644 8.8895 23.1651 8.8895 C 33.9526 8.8895 38.5783 5.8619 39.7538 4.9216 C 39.5889 6.2732 38.2887 7.9777 38.2741 7.9965 L 38.121 8.1949 L 38.3611 8.2687 C 39.014 8.4698 39.6299 8.5373 40.0545 8.5575 C 37.3533 10.1027 33.6366 10.885 28.9942 10.885 L 28.9942 10.885 Z " stroke-width="0.69601054491649"/>
            <path id="ID0.22370942682027817" d="M 39.497 5.3315 C 39.1671 6.5398 38.1502 7.874 38.1377 7.8907 L 37.8328 8.2882 L 38.3117 8.4357 C 38.7223 8.5617 39.1184 8.6369 39.4636 8.6807 C 36.8368 10.0289 33.3227 10.711 28.9949 10.711 C 24.6657 10.711 20.7625 10.0038 19.3948 9.7254 L 19.9391 8.9772 C 21.0388 9.035 22.1239 9.0642 23.1665 9.0642 C 33.0972 9.0635 37.8516 6.4959 39.497 5.3315 M 39.9424 4.529 C 39.9424 4.529 35.7358 8.7155 23.1658 8.7155 C 22.094 8.7155 20.9636 8.6856 19.7679 8.6195 L 18.797 9.9537 C 18.797 9.9537 23.525 11.059 28.9935 11.059 C 33.0185 11.059 37.4452 10.4604 40.6816 8.3807 C 40.6816 8.3807 40.564 8.3912 40.3635 8.3912 C 39.9592 8.3912 39.2165 8.3501 38.4126 8.103 C 38.4133 8.103 40.0336 5.9983 39.9424 4.529 L 39.9424 4.529 Z " stroke-width="0.69601054491649" fill="undefined"/>
          </g>
          <g id="ID0.022066988050937653">
            <path id="ID0.09162097191438079" fill="#F9C780" d="M 9.0577 11.1738 C 5.6987 11.1738 3.0121 10.3908 1.0626 8.845 C 1.3758 8.8234 1.8233 8.7531 2.2959 8.552 L 2.4741 8.4768 L 2.3802 8.3077 C 2.3697 8.2896 1.467 6.6546 1.3146 5.3072 C 2.3238 6.3616 5.7287 9.1791 13.2887 9.1791 C 14.0516 9.1791 14.845 9.1498 15.6489 9.0907 L 16.2001 10.1368 C 15.415 10.3665 12.4124 11.1738 9.0577 11.1738 L 9.0577 11.1738 Z " stroke-width="0.69601054491649"/>
            <path id="ID0.5009593297727406" d="M 1.5756 5.8006 C 2.9606 7.0493 6.4435 9.3531 13.288 9.3531 C 14.0188 9.3531 14.7775 9.3259 15.5473 9.2723 L 15.9461 10.0282 C 14.9383 10.3094 12.1507 10.9998 9.0577 10.9998 C 5.9305 10.9998 3.397 10.3156 1.5101 8.9647 C 1.7677 8.9188 2.0607 8.8415 2.3641 8.7127 L 2.7212 8.561 L 2.5326 8.2227 C 2.5235 8.2074 1.8456 6.9811 1.5756 5.8006 M 1.1218 4.8186 C 1.0543 6.2864 2.2284 8.3926 2.2284 8.3926 C 1.6466 8.6397 1.1078 8.6807 0.8141 8.6807 C 0.6687 8.6807 0.5831 8.6703 0.5831 8.6703 C 2.9307 10.7493 6.1386 11.3478 9.0577 11.3478 C 13.0228 11.3478 16.4521 10.2426 16.4521 10.2426 L 15.7491 8.909 C 14.8833 8.9751 14.0641 9.0051 13.288 9.0051 C 4.1703 9.0051 1.1218 4.8186 1.1218 4.8186 L 1.1218 4.8186 Z " stroke-width="0.69601054491649" fill="undefined"/>
          </g>
          <path id="ID0.2103307875804603" fill="#F9C780" stroke="#000000" stroke-width="0.348005272458245" d="M 18.4281 7.1084 C 18.4281 7.1084 22.3842 3.9987 23.8409 2.3331 C 25.2977 0.6675 28.7179 -0.8505 29.1696 1.1276 C 29.6213 3.1057 29.6018 2.9449 30.8157 3.9165 C 32.0309 4.8882 32.8626 7.4209 29.0457 8.7747 C 25.2288 10.1277 21.6443 10.3943 19.4582 10.0825 C 17.272 9.7693 17.7272 7.6638 18.4281 7.1084 Z "/>
          <path id="ID0.125349217094481" fill="#F9C780" stroke="#000000" stroke-width="0.348005272458245" d="M 16.2405 6.7096 C 16.2405 6.7096 14.2172 4.5172 13.176 3.8699 C 12.1347 3.2226 10.9313 1.4874 9.9374 2.8287 C 8.9428 4.1699 7.555 4.4942 6.5834 5.4429 C 5.6117 6.3908 6.8144 7.0848 8.5962 7.872 C 10.378 8.6577 14.6557 9.2354 16.2405 9.3294 C 17.826 9.4213 17.0618 7.3513 16.2405 6.7096 Z "/>
          <path id="ID0.03181919315829873" fill="#F9C780" stroke="#000000" stroke-width="0.348005272458245" d="M 15.9753 10.1848 C 16.6734 10.576 17.075 10.995 19.17 10.3964 C 19.5605 10.2864 19.6301 9.7693 19.0747 8.6584 C 18.5206 7.5483 19.8159 6.9463 18.3814 6.6686 C 16.947 6.3908 15.6976 6.53 15.7443 7.501 C 15.7909 8.4726 14.9515 9.6141 15.9753 10.1848 Z "/>
        </g>
      </g>
    </g>
  </g>
</svg>