<svg version="1.1" xmlns="http://www.w3.org/2000/svg" xmlns:xlink="http://www.w3.org/1999/xlink" width="72.74804" height="106.22694" viewBox="0,0,72.74804,106.22694"><defs><linearGradient x1="212.9" y1="191.0803" x2="272.4" y2="191.0803" gradientUnits="userSpaceOnUse" id="color-1"><stop offset="0" stop-color="#cccccc"/><stop offset="1" stop-color="#ffffff"/></linearGradient></defs><g transform="translate(-204.17599,-163.21799)"><g data-paper-data="{&quot;isPaintingLayer&quot;:true}" fill-rule="nonzero" stroke-linejoin="miter" stroke-miterlimit="10" stroke-dasharray="" stroke-dashoffset="0" style="mix-blend-mode: normal"><g fill="#ffffff"><path d="M275.85,187.5l-1.75,18.5l-4.25,5.25l-6.75,3l-9.75,-0.25l4.35,-5.25l2.75,-8.25l1.5,-7.5l1.4,-11l0.5,-18.25l11.75,0.75z" stroke="#000000" stroke-width="1" stroke-linecap="round"/><path d="M275.8754,177.4427l-12.7157,-0.935l0.5133,-6.9811l12.7157,0.935z" stroke="#000000" stroke-width="1" stroke-linecap="butt"/><path d="M264.85,175.8l10,-0.01" stroke="#d0cdd2" stroke-width="1.4145" stroke-linecap="round"/><path d="M264.6645,171.345l9.4902,0.31" stroke="#d0cdd2" stroke-width="1.52562" stroke-linecap="round"/><path d="M274.45,173.7156l-9.55,-0.1969" stroke="#d0cdd2" stroke-width="1.54364" stroke-linecap="round"/></g><g fill="#ffffff"><path d="M205.5,165.5l11.75,-0.75l1.1,18.5l1.25,12.25l2,8l1.75,8l4.4,3.5l-9.75,0.25l-6.75,-3l-4.25,-5.25l-1.75,-18.5z" stroke="#000000" stroke-width="1" stroke-linecap="round"/><path d="M204.7113,171.4616l12.7157,-0.935l0.5133,6.9811l-12.7157,0.935z" stroke="#000000" stroke-width="1" stroke-linecap="butt"/><path d="M206.25,176.79l10,0.01" stroke="#d0cdd2" stroke-width="1.4145" stroke-linecap="round"/><path d="M206.9453,172.655l9.4902,-0.31" stroke="#d0cdd2" stroke-width="1.52562" stroke-linecap="round"/><path d="M206.65,174.7156l9.55,-0.1969" stroke="#d0cdd2" stroke-width="1.54364" stroke-linecap="round"/></g><g fill="#ffc958" stroke-linecap="butt"><path d="M241.4214,243.0333l23.3059,-6.3291l6.8794,25.3325l-23.3059,6.3291z" stroke="none" stroke-width="0.95669"/><path d="M242.3658,245.8855l23.5154,-6.386l6.2242,22.9199l-23.5153,6.386z" stroke="#000000" stroke-width="1.04232"/></g><g fill="#ffc159" stroke-linecap="butt"><path d="M219.3385,235.1417l22.4731,6.8708l-7.6748,25.103l-22.4731,-6.8708z" stroke="none" stroke-width="0.94509"/><path d="M218.6199,238.0591l21.9747,6.7184l-6.9439,22.7122l-21.9746,-6.7184z" stroke="#000000" stroke-width="1.01069"/></g><path d="M215.15,204.2349l1.75,-3.008l2.5,-2.9632l4.5,-2.6938l8.5,-3.1427l10,-1.3469l17.75,3.5917l5,3.053l3,3.008l1.5,4.2652l1.5,5.4773l1.25,7.0038v10.2813l-1,9.4731l-2.5,7.9466h-52.5l-3.5,-9.9221v-7.9915v-13.5138l0.5,-4.759z" fill="url(#color-1)" stroke="none" stroke-width="0.95033" stroke-linecap="round"/><path d="M213.0321,223.25h59.55v6h-59.55z" fill="#b38400" stroke="none" stroke-width="1.00901" stroke-linecap="butt"/><path d="M213.9,223.125h58v6.125h-58z" fill="none" stroke="#000000" stroke-width="0.93958" stroke-linecap="butt"/><path d="M224.65,195.75l18,1.5l20.25,-1.75l4.25,3.75l2.5,7l2.5,7.5l0.25,11l-0.5,10.5l-2.5,9.25l-52.5,1l-3.5,-9.75v-27.25l2.25,-5.75l3.5,-4.75z" fill="none" stroke="#000000" stroke-width="1" stroke-linecap="round"/><g fill="#b38200" stroke-linecap="round"><g><path d="M231.6,172.5073l21.1423,0.9477l4.6311,6.0655l1.7451,6.8868l2.282,14.8477l-19.1958,1.9586l-15.907,-2.5904l-0.2685,-15.4796l1.8793,-7.5186z" stroke="#ffffff" stroke-width="2.60719"/><path d="M228.1775,196.2409l0.5617,-13.9l2.5275,-7.5818" stroke="#f9f9f9" stroke-width="2.3911"/><path d="M231.7161,196.2409l0.3931,-13.5209l1.6851,-7.7082" stroke="#f9f9f9" stroke-width="2.3911"/><path d="M235.4793,197.5045l0.2808,-12.7627l0.4494,-9.6036" stroke="#f9f9f9" stroke-width="2.3911"/><path d="M239.2425,175.1382l0.7302,7.4554l-0.5617,15.29" stroke="#f9f9f9" stroke-width="2.3911"/><path d="M242.2194,174.7591l1.4042,7.2027l0.8425,17.6277" stroke="#f9f9f9" stroke-width="2.3911"/><path d="M246.4319,175.8964l1.7974,4.5491z" stroke="#f9f9f9" stroke-width="2.3911"/><path d="M248.2293,180.4455v18.7018" stroke="#f9f9f9" stroke-width="2.3911"/><path d="M245.7579,174.9486l1.348,2.3378z" stroke="#f9f9f9" stroke-width="2.3911"/><path d="M248.5663,175.0118l2.6399,5.0546l0.7301,18.7018" stroke="#f9f9f9" stroke-width="2.3911"/><path d="M252.3295,174.7591l2.2467,5.56l1.2919,18.9545" stroke="#f9f9f9" stroke-width="2.3911"/></g><path d="M230.95,170.9659h21.5l6.25,8.2136l3.75,23.3773l-20.75,1.8955l-10.5,-1.5796l-7,-0.6318l0.5,-17.0591l1.75,-7.2659z" stroke="#000000" stroke-width="1.13947"/></g></g></g></svg>