<svg xmlns="http://www.w3.org/2000/svg" xmlns:xlink="http://www.w3.org/1999/xlink" version="1.1" width="213.546875" height="261.3806457519531" viewBox="2.5756399631500244 -2.140625 213.546875 261.3806457519531">
  <!-- Exported by Scratch - http://scratch.mit.edu/ -->
  <text id="ID0.8999183955602348" fill="#FF0000" text-anchor="start" font-family="Sans Serif" font-size="22" transform="matrix(1 0 0 1 56.15 -2.5)" stroke-width="1" alignment-baseline="text-before-edge" xml:space="preserve"><tspan x="0" style="white-space: pre" dy="1.13em">(When Near)</tspan></text>
  <text id="ID0.03657922428101301" fill="#FF0000" text-anchor="start" font-family="Sans Serif" font-size="22" transform="matrix(1.21282 0 0 1.21282 5.42564 219.962)" stroke-width="1" alignment-baseline="text-before-edge" xml:space="preserve"><tspan x="0" style="white-space: pre" dy="1.13em">Avoid Obstacles!</tspan></text>
  <text id="ID0.03657922428101301" fill="#FF9400" text-anchor="start" font-family="Sans Serif" font-size="22" transform="matrix(1.21282 0 0 1.21282 3.07564 220.612)" stroke-width="1" alignment-baseline="text-before-edge" xml:space="preserve"><tspan x="0" style="white-space: pre" dy="1.13em">Avoid Obstacles!</tspan></text>
  <g id="ID0.015444586053490639">
    <g id="ID0.9250210830941796">
      <path id="ID0.7267415402457118" fill="#FF0000" stroke="none" d="M 125.0675 61.933 L 124.9474 78.7741 L 115.7991 78.7089 L 115.9192 61.8677 L 125.0675 61.933 Z " stroke-width="0.4158415760747115"/>
      <path id="ID0.4627634370699525" fill="#FF0000" stroke="none" stroke-linecap="round" d="M 120.7636 53.1694 L 130.8847 62.5982 L 109.8852 62.4485 L 120.765 52.9615 L 120.7636 53.1694 Z " stroke-width="0.4158415760747115"/>
    </g>
    <g id="ID0.9250210830941796">
      <path id="ID0.7267415402457118" fill="#FF9400" stroke="none" d="M 124.266 61.7345 L 124.1505 77.9319 L 116.9315 77.8804 L 117.047 61.683 L 124.266 61.7345 Z " stroke-width="0.3658115145222857"/>
      <path id="ID0.4627634370699525" fill="#FF9400" stroke="none" stroke-linecap="round" d="M 120.8805 53.3113 L 128.8556 62.3672 L 112.2848 62.249 L 120.8819 53.1113 L 120.8805 53.3113 Z " stroke-width="0.3658115145222857"/>
    </g>
    <g id="ID0.036269173957407475">
      <g id="ID0.9250210830941796">
        <path id="ID0.7267415402457118" fill="#FF0000" stroke="none" d="M 131.131 74.9744 L 131.4198 34.4755 L 109.4204 34.3186 L 109.1315 74.8175 L 131.131 74.9744 Z " stroke-width="0.9999999826915525"/>
        <path id="ID0.4627634370699525" fill="#FF0000" stroke="none" stroke-linecap="round" d="M 120.4815 95.899 L 145.1413 73.5743 L 94.6426 73.2142 L 120.4779 96.399 L 120.4815 95.899 Z " stroke-width="0.9999999826915525"/>
      </g>
      <g id="ID0.9250210830941796">
        <path id="ID0.7267415402457118" fill="#FF9400" stroke="none" d="M 128.8581 75.7432 L 129.1359 36.7923 L 111.7759 36.6684 L 111.4981 75.6194 L 128.8581 75.7432 Z " stroke-width="0.8796895564823961"/>
        <path id="ID0.4627634370699525" fill="#FF9400" stroke="none" stroke-linecap="round" d="M 120.4286 95.8809 L 139.9156 74.3794 L 100.0666 74.0952 L 120.4251 96.3618 L 120.4286 95.8809 Z " stroke-width="0.8796895564823961"/>
      </g>
    </g>
  </g>
  <text id="ID0.8999183955602348" fill="#FF9400" text-anchor="start" font-family="Sans Serif" font-size="22" transform="matrix(1 0 0 1 55 -0.9)" stroke-width="1" alignment-baseline="text-before-edge" xml:space="preserve"><tspan x="0" style="white-space: pre" dy="1.13em">(When Near)</tspan></text>
</svg>