<svg version="1.1" xmlns="http://www.w3.org/2000/svg" xmlns:xlink="http://www.w3.org/1999/xlink" width="86.64797" height="92.92359" viewBox="0,0,86.64797,92.92359"><defs><linearGradient x1="212.9" y1="191.0803" x2="272.4" y2="191.0803" gradientUnits="userSpaceOnUse" id="color-1"><stop offset="0" stop-color="#cccccc"/><stop offset="1" stop-color="#ffffff"/></linearGradient></defs><g transform="translate(-202.54708,-170.39616)"><g data-paper-data="{&quot;isPaintingLayer&quot;:true}" fill-rule="nonzero" stroke-linejoin="miter" stroke-miterlimit="10" stroke-dasharray="" stroke-dashoffset="0" style="mix-blend-mode: normal"><g fill="#ffbe50" stroke-linecap="butt"><path d="M239.785,238.6851l23.0477,-6.927l6.5722,19.5766l-23.0478,6.9269z" stroke="none" stroke-width="0.84941"/><path d="M240.7038,240.8126l23.2549,-6.9892l5.9462,17.7121l-23.2548,6.9892z" stroke="#000000" stroke-width="0.94418"/></g><g fill="#ffffff"><path d="M206.6066,211.7956l4.7593,-11.8806l5.016,-2.7753l7.0863,-0.8994l9.4801,1.7131l-4.8739,1.6013l-3.028,4.9798l-3.2722,4.9401l-3.2405,7.8524l-4.1245,11.9838l-11.3508,-2.3594z" stroke="#000000" stroke-width="0.84697" stroke-linecap="round"/><path d="M204.9733,218.4472l12.2633,2.6344l-1.6524,4.5066l-12.2633,-2.6344z" stroke="#000000" stroke-width="0.84524" stroke-linecap="butt"/><path d="M205.6411,219.5795l9.7671,1.5819" stroke="#d0cdd2" stroke-width="1.39933" stroke-linecap="round"/><path d="M214.8354,224.2044l-9.2166,-1.7113" stroke="#d0cdd2" stroke-width="1.36976" stroke-linecap="round"/><path d="M214.9828,222.7532l-9.2935,-1.6465" stroke="#d0cdd2" stroke-width="1.46022" stroke-linecap="round"/></g><path d="M215.15,204.2349l1.75,-3.008l2.5,-2.9632l4.5,-2.6938l8.5,-3.1427l10,-1.3469l17.75,3.5917l5,3.053l3,3.008l1.5,4.2652l1.5,5.4773l1.25,7.0038v10.2813l-1,9.4731l-2.5,7.9466h-52.5l-3.5,-9.9221v-7.9915v-13.5138l0.5,-4.759z" fill="url(#color-1)" stroke="none" stroke-width="0.95033" stroke-linecap="round"/><path d="M213.0321,223.25h59.55v6h-59.55z" fill="#b06500" stroke="none" stroke-width="1.00901" stroke-linecap="butt"/><path d="M213.9,223.125h58v6.125h-58z" fill="none" stroke="#000000" stroke-width="0.93958" stroke-linecap="butt"/><path d="M224.65,195.75l18,1.5l20.25,-1.75l4.25,3.75l2.5,7l2.5,7.5l0.25,11l-0.5,10.5l-2.5,9.25l-52.5,1l-3.5,-9.75v-27.25l2.25,-5.75l3.5,-4.75z" fill="none" stroke="#000000" stroke-width="1" stroke-linecap="round"/><g fill="#ffffff"><path d="M288.5461,232.3022l-13.4379,4.0704l-5.3694,-14.5718l-4.5112,-8.459l-3.7087,-5.6066l-5.3561,-5.8428l-6.4254,-2.9513l11.2483,-3.0773l8.6199,0.4288l6.3095,2.9808l6.8854,14.4048z" stroke="#000000" stroke-width="1.03677" stroke-linecap="round"/><path d="M287.9025,227.2067l-14.5099,4.5044l-2.4277,-5.4791l14.5099,-4.5044z" stroke="#000000" stroke-width="1.03514" stroke-linecap="butt"/><path d="M273.1223,226.2829l11.6067,-2.9413" stroke="#d0cdd2" stroke-width="1.6934" stroke-linecap="round"/><path d="M284.9816,226.9164l-10.9311,3.049" stroke="#d0cdd2" stroke-width="1.66886" stroke-linecap="round"/><path d="M284.8296,225.1439l-11.0302,2.9754" stroke="#d0cdd2" stroke-width="1.77235" stroke-linecap="round"/></g><g fill="#ad7500" stroke-linecap="round"><g><path d="M231.6,172.5073l21.1423,0.9477l4.6311,6.0655l1.7451,6.8868l2.282,14.8477l-19.1958,1.9586l-15.907,-2.5904l-0.2685,-15.4796l1.8793,-7.5186z" stroke="#ffffff" stroke-width="2.60719"/><path d="M228.1775,196.2409l0.5617,-13.9l2.5275,-7.5818" stroke="#f9f9f9" stroke-width="2.3911"/><path d="M231.7161,196.2409l0.3931,-13.5209l1.6851,-7.7082" stroke="#f9f9f9" stroke-width="2.3911"/><path d="M235.4793,197.5045l0.2808,-12.7627l0.4494,-9.6036" stroke="#f9f9f9" stroke-width="2.3911"/><path d="M239.2425,175.1382l0.7302,7.4554l-0.5617,15.29" stroke="#f9f9f9" stroke-width="2.3911"/><path d="M242.2194,174.7591l1.4042,7.2027l0.8425,17.6277" stroke="#f9f9f9" stroke-width="2.3911"/><path d="M246.4319,175.8964l1.7974,4.5491z" stroke="#f9f9f9" stroke-width="2.3911"/><path d="M248.2293,199.1473v-18.7018" stroke="#f9f9f9" stroke-width="2.3911"/><path d="M245.7579,174.9486l1.348,2.3378z" stroke="#f9f9f9" stroke-width="2.3911"/><path d="M248.5663,175.0118l2.6399,5.0546l0.7301,18.7018" stroke="#f9f9f9" stroke-width="2.3911"/><path d="M252.3295,174.7591l2.2467,5.56l1.2919,18.9545" stroke="#f9f9f9" stroke-width="2.3911"/></g><path d="M230.95,170.9659h21.5l6.25,8.2136l3.75,23.3773l-20.75,1.8955l-10.5,-1.5796l-7,-0.6318l0.5,-17.0591l1.75,-7.2659z" stroke="#000000" stroke-width="1.13947"/></g><g fill="#ffc750" stroke-linecap="butt"><path d="M218.437,235.7707l22.5049,6.5783l-6.5434,19.9833l-22.505,-6.5783z" stroke="none" stroke-width="0.84376"/><path d="M218.5532,236.3943l22.0058,6.4324l-6.5183,19.9064l-22.0058,-6.4323z" stroke="#000000" stroke-width="0.95271"/></g></g></g></svg>