<svg version="1.1" xmlns="http://www.w3.org/2000/svg" xmlns:xlink="http://www.w3.org/1999/xlink" width="72.67654" height="88.41284" viewBox="0,0,72.67654,88.41284"><defs><linearGradient x1="212.9" y1="204.1934" x2="272.4" y2="204.1934" gradientUnits="userSpaceOnUse" id="color-1"><stop offset="0" stop-color="#cccccc"/><stop offset="1" stop-color="#ffffff"/></linearGradient></defs><g transform="translate(-204.21173,-180.98275)"><g data-paper-data="{&quot;isPaintingLayer&quot;:true}" fill-rule="nonzero" stroke-linejoin="miter" stroke-miterlimit="10" stroke-dasharray="" stroke-dashoffset="0" style="mix-blend-mode: normal"><g fill="#ffffff"><path d="M275.8,201.2162l-1.75,15.3837l-4.25,4.3657l-6.75,2.4946l-9.75,-0.2079l4.35,-4.3656l2.75,-6.8603l1.5,-6.2367l1.4,-9.1471l0.5,-15.1758l11.75,0.6237z" stroke="#000000" stroke-width="0.91964" stroke-linecap="round"/><path d="M275.8754,192.853l-12.7157,-0.7775l0.5133,-5.8052l12.7157,0.7775z" stroke="#000000" stroke-width="0.9195" stroke-linecap="butt"/><path d="M264.8,191.4454l10,-0.0083" stroke="#d0cdd2" stroke-width="1.41441" stroke-linecap="round"/><path d="M264.6145,187.7824l9.4902,0.2578" stroke="#d0cdd2" stroke-width="1.4458" stroke-linecap="round"/><path d="M264.9,189.59l9.55,0.1637" stroke="#d0cdd2" stroke-width="1.50489" stroke-linecap="round"/></g><g fill="#ffffff"><path d="M205.5,182.922l11.75,-0.6236l1.1,15.3837l1.25,10.1865l2,6.6524l1.75,6.6525l4.4,2.9104l-9.75,0.2079l-6.75,-2.4947l-4.25,-4.3656l-1.75,-15.3838z" stroke="#000000" stroke-width="0.91964" stroke-linecap="round"/><path d="M204.7113,187.8794l12.7157,-0.7775l0.5133,5.8052l-12.7157,0.7775z" stroke="#000000" stroke-width="0.9195" stroke-linecap="butt"/><path d="M206.25,192.2687l10,0.0083" stroke="#d0cdd2" stroke-width="1.41441" stroke-linecap="round"/><path d="M206.9453,188.8718l9.4902,-0.2578" stroke="#d0cdd2" stroke-width="1.4458" stroke-linecap="round"/><path d="M216.2,190.4216l-9.55,0.1637" stroke="#d0cdd2" stroke-width="1.50489" stroke-linecap="round"/></g><g fill="#ffa652" stroke-linecap="butt"><path d="M241.4267,247.3958l23.3059,-5.263l6.8794,21.0654l-23.3059,5.2629z" stroke="none" stroke-width="0.8716"/><path d="M242.3779,249.7703l23.5153,-5.3103l6.2243,19.0591l-23.5153,5.3103z" stroke="#000000" stroke-width="0.96292"/></g><g fill="#ffa754" stroke-linecap="butt"><path d="M219.3471,240.8468l22.4731,5.7134l-7.6748,20.8745l-22.4731,-5.7135z" stroke="none" stroke-width="0.85903"/><path d="M218.6635,243.2846l21.9747,5.5866l-6.9439,18.8865l-21.9746,-5.5867z" stroke="#000000" stroke-width="0.9289"/></g><path d="M215.15,215.1322l1.75,-2.5014l2.5,-2.464l4.5,-2.24l8.5,-2.6134l10,-1.12l17.75,2.9867l5,2.5387l3,2.5013l1.5,3.5467l1.5,4.5547l1.25,5.8241v8.5494l-1,7.8774l-2.5,6.608h-52.5l-3.5,-8.2507v-6.6454v-11.2374l0.5,-3.9574z" fill="url(#color-1)" stroke="none" stroke-width="0.88247" stroke-linecap="round"/><path d="M213.0321,230.9442h59.55v4.9893h-59.55z" fill="#ae6f00" stroke="none" stroke-width="0.92944" stroke-linecap="butt"/><path d="M213.9,230.8403h58v5.0932h-58z" fill="none" stroke="#000000" stroke-width="0.87448" stroke-linecap="butt"/><path d="M224.65,208.0765l18,1.2473l20.25,-1.4552l4.25,3.1183l2.5,5.8209l2.5,6.2366l0.25,9.1471l-0.5,8.7313l-2.5,7.6919l-52.5,0.8316l-3.5,-8.1077v-22.6598l2.25,-4.7814l3.5,-3.9499z" fill="none" stroke="#000000" stroke-width="0.91964" stroke-linecap="round"/><g fill="#af7600" stroke-linecap="round"><g><path d="M231.6,188.7489l21.1423,0.7881l4.6311,5.0438l1.7451,5.7267l2.282,12.3467l-19.1958,1.6287l-15.907,-2.1541l-0.2685,-12.8721l1.8793,-6.2521z" stroke="#ffffff" stroke-width="2.41084"/><path d="M228.1775,208.4847l0.5617,-11.5586l2.5275,-6.3047" stroke="#f9f9f9" stroke-width="2.17534"/><path d="M231.7161,208.4847l0.3931,-11.2433l1.6851,-6.4098" stroke="#f9f9f9" stroke-width="2.17534"/><path d="M235.4793,209.5355l0.2808,-10.6129l0.4494,-7.9859" stroke="#f9f9f9" stroke-width="2.17534"/><path d="M239.2425,190.9367l0.7302,6.1996l-0.5617,12.7144" stroke="#f9f9f9" stroke-width="2.17534"/><path d="M242.2194,190.6214l1.4042,5.9895l0.8425,14.6584" stroke="#f9f9f9" stroke-width="2.17534"/><path d="M246.4319,191.5671l1.7974,3.7829z" stroke="#f9f9f9" stroke-width="2.17534"/><path d="M248.2293,195.35v15.5515" stroke="#f9f9f9" stroke-width="2.17534"/><path d="M247.1059,192.723l-1.348,-1.9439z" stroke="#f9f9f9" stroke-width="2.17534"/><path d="M248.5663,190.8316l2.6399,4.2031l0.7301,15.5516" stroke="#f9f9f9" stroke-width="2.17534"/><path d="M252.3295,190.6214l2.2467,4.6235l1.2919,15.7617" stroke="#f9f9f9" stroke-width="2.17534"/></g><path d="M230.95,187.4672h21.5l6.25,6.8301l3.75,19.4394l-20.75,1.5762l-10.5,-1.3135l-7,-0.5254l0.5,-14.1855l1.75,-6.042z" stroke="#000000" stroke-width="1.0257"/></g></g></g></svg>