<svg xmlns="http://www.w3.org/2000/svg" xmlns:xlink="http://www.w3.org/1999/xlink" version="1.1" width="90.0958001613617" height="121.74538969993591" viewBox="0.47385144233703613 -0.14314866065979004 90.0958001613617 121.74538969993591">
  <defs>
    <linearGradient id="grad_1" x2="1">
      <stop offset="0" stop-color="#000000" stop-opacity="1"/>
      <stop offset="1" stop-color="#FFFFFF" stop-opacity="1"/>
    </linearGradient>
  <linearGradient id="grad_1-.6327683329582214,0,0,0.6327683329582214,-107.9,-43.05" x2="59.4672" x1="26.0887" y1="0.7692" y2="0.7692" gradientUnits="userSpaceOnUse">
      <stop offset="0" stop-color="#000000" stop-opacity="1"/>
      <stop offset="1" stop-color="#FFFFFF" stop-opacity="1"/>
    </linearGradient></defs>
  <!-- Exported by Scratch - http://scratch.mit.edu/ -->
  <path id="ID0.5154043189249933" fill="#FFFFFF" stroke="#000000" stroke-width="1.8246972560882568" d="M 42.5692 77.8096 C 48.484 77.8096 53.844 80.2118 57.7261 84.0929 C 61.6072 87.9749 64.0094 93.335 64.0094 99.2498 C 64.0094 105.1645 61.6072 110.5246 57.7261 114.4066 C 53.844 118.2877 48.484 120.6899 42.5692 120.6899 C 36.6545 120.6899 31.2944 118.2877 27.4124 114.4066 C 23.5313 110.5246 21.129 105.1645 21.129 99.2498 C 21.129 93.335 23.5313 87.9749 27.4124 84.0929 C 31.2944 80.2118 36.6545 77.8096 42.5692 77.8096 Z "/>
  <path id="ID0.5154043189249933" fill="#FFFFFF" stroke="#000000" stroke-width="1.5367231369018555" d="M 42.7144 45.8729 C 47.6957 45.8729 52.2098 47.896 55.4792 51.1646 C 58.7478 54.434 60.7709 58.9481 60.7709 63.9294 C 60.7709 68.9107 58.7478 73.4248 55.4792 76.6942 C 52.2098 79.9628 47.6957 81.9859 42.7144 81.9859 C 37.7331 81.9859 33.219 79.9628 29.9496 76.6942 C 26.681 73.4248 24.6579 68.9107 24.6579 63.9294 C 24.6579 58.9481 26.681 54.434 29.9496 51.1646 C 33.219 47.896 37.7331 45.8729 42.7144 45.8729 Z "/>
  <path id="ID0.5154043189249933" fill="#FFFFFF" stroke="#000000" stroke-width="1.2655366659164429" d="M 42.5119 19.3924 C 46.6141 19.3924 50.3316 21.0584 53.024 23.7502 C 55.7158 26.4427 57.3819 30.1602 57.3819 34.2624 C 57.3819 38.3647 55.7158 42.0822 53.024 44.7746 C 50.3316 47.4664 46.6141 49.1325 42.5119 49.1325 C 38.4096 49.1325 34.6921 47.4664 31.9997 44.7746 C 29.3079 42.0822 27.6418 38.3647 27.6418 34.2624 C 27.6418 30.1602 29.3079 26.4427 31.9997 23.7502 C 34.6921 21.0584 38.4096 19.3924 42.5119 19.3924 Z "/>
  <path id="ID0.23604942951351404" fill="#FF9400" stroke="#000000" stroke-width="1.1339220563268098" stroke-linecap="round" d="M 41.5669 34.6819 L 60.2336 36.8979 L 60.2336 36.8979 L 41.5669 39.6063 L 41.5669 34.6819 Z "/>
  <path id="ID0.2024403978139162" fill="none" stroke="#995900" stroke-width="1.2655366659164429" stroke-linecap="round" d="M 1.3862 49.0972 L 33.341 63.0181 "/>
  <path id="ID0.15972138429060578" fill="none" stroke="#995900" stroke-width="1.2655366659164429" stroke-linecap="round" d="M 53.9059 62.0689 L 85.8607 44.6678 "/>
  <path id="ID0.7694241642020643" fill="none" stroke="#995900" stroke-width="1.2655366659164429" stroke-linecap="round" d="M 80.1658 47.8316 L 89.6573 50.0463 "/>
  <path id="ID0.2513976385816932" fill="none" stroke="#995900" stroke-width="1.2655366659164429" stroke-linecap="round" d="M 16.2562 55.7412 L 1.3862 56.6904 "/>
  <path id="ID0.6230552736669779" fill="#000000" stroke="none" d="M 36.8212 26.4757 C 37.3888 26.4757 37.9026 26.7237 38.2746 27.1249 C 38.6473 27.5255 38.8777 28.0791 38.8777 28.6904 C 38.8777 29.3016 38.6473 29.8553 38.2746 30.2559 C 37.9026 30.657 37.3888 30.9051 36.8212 30.9051 C 36.2536 30.9051 35.7398 30.657 35.3677 30.2559 C 34.995 29.8553 34.7647 29.3016 34.7647 28.6904 C 34.7647 28.0791 34.995 27.5255 35.3677 27.1249 C 35.7398 26.7237 36.2536 26.4757 36.8212 26.4757 Z " stroke-width="0.6327683329582214"/>
  <path id="ID0.6230552736669779" fill="#000000" stroke="none" d="M 48.2212 26.8757 C 48.7888 26.8757 49.3026 27.1237 49.6746 27.5249 C 50.0473 27.9255 50.2777 28.4791 50.2777 29.0904 C 50.2777 29.7016 50.0473 30.2553 49.6746 30.6559 C 49.3026 31.057 48.7888 31.3051 48.2212 31.3051 C 47.6536 31.3051 47.1398 31.057 46.7677 30.6559 C 46.395 30.2553 46.1647 29.7016 46.1647 29.0904 C 46.1647 28.4791 46.395 27.9255 46.7677 27.5249 C 47.1398 27.1237 47.6536 26.8757 48.2212 26.8757 Z " stroke-width="0.6327683329582214"/>
  <path id="ID0.6230552736669779" fill="#000000" stroke="none" d="M 36.6712 26.3757 C 37.2388 26.3757 37.7526 26.6237 38.1246 27.0249 C 38.4973 27.4255 38.7277 27.9791 38.7277 28.5904 C 38.7277 29.2016 38.4973 29.7553 38.1246 30.1559 C 37.7526 30.557 37.2388 30.8051 36.6712 30.8051 C 36.1036 30.8051 35.5898 30.557 35.2177 30.1559 C 34.845 29.7553 34.6147 29.2016 34.6147 28.5904 C 34.6147 27.9791 34.845 27.4255 35.2177 27.0249 C 35.5898 26.6237 36.1036 26.3757 36.6712 26.3757 Z " stroke-width="0.6327683329582214"/>
  <path id="ID0.5900516249239445" fill="none" stroke="#000000" stroke-width="1.2655366659164429" stroke-linecap="round" d="M 34.9229 41.1876 L 39.8268 44.5096 L 48.6856 44.1932 "/>
  <path id="ID0.39983783988282084" fill="url(#grad_1-.6327683329582214,0,0,0.6327683329582214,-107.9,-43.05)" stroke="#000000" stroke-width="1.2655366659164429" stroke-linecap="round" d="M 26.0887 21.6506 L 36.0548 21.176 L 35.7384 11.0517 L 31.6254 3.6167 L 49.6593 0.7692 L 48.7102 9.7862 L 49.1847 20.8596 L 59.4672 21.3342 L 59.4672 23.7071 L 26.0887 23.7071 L 26.0887 21.6506 Z "/>
  <path id="ID0.6041218284517527" fill="#FF0000" stroke="none" stroke-linecap="round" d="M 35.2556 13.6621 L 49.4929 13.6621 L 49.4929 17.7751 L 35.2556 17.7751 L 35.2556 13.6621 Z " stroke-width="0.6327683329582214"/>
</svg>