<svg version="1.1" xmlns="http://www.w3.org/2000/svg" xmlns:xlink="http://www.w3.org/1999/xlink" width="80.64804" height="98.86368" viewBox="0,0,80.64804,98.86368"><defs><linearGradient x1="212.9" y1="191.0803" x2="272.4" y2="191.0803" gradientUnits="userSpaceOnUse" id="color-1"><stop offset="0" stop-color="#ffffff"/><stop offset="1" stop-color="#ffffff"/></linearGradient></defs><g transform="translate(-202.82599,-170.39167)"><g data-paper-data="{&quot;isPaintingLayer&quot;:true}" fill-rule="nonzero" stroke-linejoin="miter" stroke-miterlimit="10" stroke-dasharray="" stroke-dashoffset="0" style="mix-blend-mode: normal"><g fill="#ffac4e" stroke-linecap="butt"><path d="M244.5509,241.85h24.15v26.25h-24.15z" stroke="none" stroke-width="0.95669"/><path d="M244.7149,244.85h24.367v23.75h-24.367z" stroke="#000000" stroke-width="1.04232"/></g><g fill="#ffa550" stroke-linecap="butt"><path d="M216.3406,242h23.5v26.25h-23.5z" stroke="none" stroke-width="0.94509"/><path d="M216.5064,245h22.9787v23.75h-22.9787z" stroke="#000000" stroke-width="1.01069"/></g><path d="M215.15,204.2349l1.75,-3.008l2.5,-2.9632l4.5,-2.6938l8.5,-3.1427l10,-1.3469l17.75,3.5917l5,3.053l3,3.008l1.5,4.2652l1.5,5.4773l1.25,7.0038v10.2813l-1,9.4731l-2.5,7.9466h-52.5l-3.5,-9.9221v-7.9915v-13.5138l0.5,-4.759z" fill="url(#color-1)" stroke="none" stroke-width="0.95033" stroke-linecap="round"/><path d="M213.0321,223.25h59.55v6h-59.55z" fill="#b08100" stroke="none" stroke-width="1.00901" stroke-linecap="butt"/><path d="M213.9,223.125h58v6.125h-58z" fill="none" stroke="#000000" stroke-width="0.93958" stroke-linecap="butt"/><path d="M224.65,195.75l18,1.5l20.25,-1.75l4.25,3.75l2.5,7l2.5,7.5l0.25,11l-0.5,10.5l-2.5,9.25l-52.5,1l-3.5,-9.75v-27.25l2.25,-5.75l3.5,-4.75z" fill="none" stroke="#000000" stroke-width="1" stroke-linecap="round"/><g fill="#ffffff"><path d="M203.9,222.5l1.75,-18.5l4.25,-5.25l6.75,-3l9.75,0.25l-4.4,3.5l-1.75,8l-2,8l-1.25,12.25l-1.1,18.5l-11.75,-0.75z" stroke="#000000" stroke-width="1" stroke-linecap="round"/><path d="M203.8746,232.5573l12.7157,0.935l-0.5133,6.9811l-12.7157,-0.935z" stroke="#000000" stroke-width="1" stroke-linecap="butt"/><path d="M204.9,234.21l10,-0.01" stroke="#d0cdd2" stroke-width="1.4145" stroke-linecap="round"/><path d="M215.0855,238.655l-9.4902,-0.31" stroke="#d0cdd2" stroke-width="1.52562" stroke-linecap="round"/><path d="M214.85,236.4813l-9.55,-0.1969" stroke="#d0cdd2" stroke-width="1.54364" stroke-linecap="round"/></g><g fill="#ffffff"><path d="M282.15,245l-11.75,0.75l-0.5,-18.25l-1.4,-11l-1.5,-7.5l-2.75,-8.25l-4.35,-5.25l9.75,-0.25l6.75,3l4.25,5.25l1.75,18.5z" stroke="#000000" stroke-width="1" stroke-linecap="round"/><path d="M282.9387,239.0384l-12.7157,0.935l-0.5133,-6.9811l12.7157,-0.935z" stroke="#000000" stroke-width="1" stroke-linecap="butt"/><path d="M281.4,233.71l-10,-0.01" stroke="#d0cdd2" stroke-width="1.4145" stroke-linecap="round"/><path d="M280.7047,237.845l-9.4902,0.31" stroke="#d0cdd2" stroke-width="1.52562" stroke-linecap="round"/><path d="M281,235.7844l-9.55,0.1969" stroke="#d0cdd2" stroke-width="1.54364" stroke-linecap="round"/></g><g fill="#a97200" stroke-linecap="round"><g><path d="M231.6,172.4777l21.1423,0.9478l4.6311,6.0654l1.7451,6.8868l2.282,14.8478l-19.1958,1.9586l-15.907,-2.5905l-0.2685,-15.4795l1.8793,-7.5186z" stroke="#ffffff" stroke-width="2.60719"/><path d="M228.1775,196.2341l0.5617,-13.9l2.5275,-7.5818" stroke="#f9f9f9" stroke-width="2.3911"/><path d="M231.7161,196.2341l0.3931,-13.5209l1.6851,-7.7082" stroke="#f9f9f9" stroke-width="2.3911"/><path d="M235.4793,197.4977l0.2808,-12.7627l0.4494,-9.6036" stroke="#f9f9f9" stroke-width="2.3911"/><path d="M239.2425,175.1314l0.7302,7.4554l-0.5617,15.29" stroke="#f9f9f9" stroke-width="2.3911"/><path d="M242.2194,174.7523l1.4042,7.2027l0.8425,17.6277" stroke="#f9f9f9" stroke-width="2.3911"/><path d="M248.2293,180.4386l-1.7974,-4.5491z" stroke="#f9f9f9" stroke-width="2.3911"/><path d="M248.2293,180.4386v18.7019" stroke="#f9f9f9" stroke-width="2.3911"/><path d="M247.1059,177.2795l-1.348,-2.3377z" stroke="#f9f9f9" stroke-width="2.3911"/><path d="M248.5663,175.005l2.6399,5.0545l0.7301,18.7019" stroke="#f9f9f9" stroke-width="2.3911"/><path d="M252.3295,174.7523l2.2467,5.56l1.2919,18.9545" stroke="#f9f9f9" stroke-width="2.3911"/></g><path d="M230.95,170.9614h21.5l6.25,8.2136l3.75,23.3773l-20.75,1.8954l-10.5,-1.5795l-7,-0.6318l0.5,-17.0591l1.75,-7.2659z" stroke="#000000" stroke-width="1.13947"/></g></g></g></svg>