<svg version="1.1" xmlns="http://www.w3.org/2000/svg" xmlns:xlink="http://www.w3.org/1999/xlink" width="72.60394" height="64.16771" viewBox="0,0,72.60394,64.16771"><defs><linearGradient x1="212.9" y1="222.1424" x2="272.4" y2="222.1424" gradientUnits="userSpaceOnUse" id="color-1"><stop offset="0" stop-color="#cccccc"/><stop offset="1" stop-color="#ffffff"/></linearGradient></defs><g transform="translate(-204.24803,-205.23988)"><g data-paper-data="{&quot;isPaintingLayer&quot;:true}" fill-rule="nonzero" stroke-linejoin="miter" stroke-miterlimit="10" stroke-dasharray="" stroke-dashoffset="0" style="mix-blend-mode: normal"><g fill="#ffffff"><path d="M275.8,219.9557l-1.75,11.1295l-4.25,3.1584l-6.75,1.8048l-9.75,-0.1504l4.35,-3.1584l2.75,-4.9631l1.5,-4.512l1.4,-6.6175l0.5,-10.9791l11.75,0.4512z" stroke="#000000" stroke-width="0.8252" stroke-linecap="round"/><path d="M275.8754,213.8981l-12.7157,-0.5625l0.5133,-4.1998l12.7157,0.5625z" stroke="#000000" stroke-width="0.82454" stroke-linecap="butt"/><path d="M264.8,212.8849l10,-0.006" stroke="#d0cdd2" stroke-width="1.41432" stroke-linecap="round"/><path d="M264.6145,210.2563l9.4902,0.1865" stroke="#d0cdd2" stroke-width="1.35534" stroke-linecap="round"/><path d="M264.9,211.5644l9.55,0.1184" stroke="#d0cdd2" stroke-width="1.46238" stroke-linecap="round"/></g><g fill="#ffffff"><path d="M205.5,206.7341l11.75,-0.4512l1.1,11.1294l1.25,7.3695l2,4.8128l1.75,4.8127l4.4,2.1056l-9.75,0.1504l-6.75,-1.8048l-4.25,-3.1583l-1.75,-11.1295z" stroke="#000000" stroke-width="0.8252" stroke-linecap="round"/><path d="M204.7113,210.3132l12.7157,-0.5625l0.5133,4.1998l-12.7157,0.5625z" stroke="#000000" stroke-width="0.82454" stroke-linecap="butt"/><path d="M216.25,213.4998l-10,-0.006" stroke="#d0cdd2" stroke-width="1.41432" stroke-linecap="round"/><path d="M216.4355,210.8351l-9.4902,0.1865" stroke="#d0cdd2" stroke-width="1.35534" stroke-linecap="round"/><path d="M216.2,212.1431l-9.55,0.1185" stroke="#d0cdd2" stroke-width="1.46238" stroke-linecap="round"/></g><g fill="#ffbf52" stroke-linecap="butt"><path d="M241.4267,253.3959l23.3059,-3.8075l6.8794,15.2398l-23.3059,3.8076z" stroke="none" stroke-width="0.76571"/><path d="M242.3779,255.1383l23.5153,-3.8418l6.2243,13.7885l-23.5153,3.8417z" stroke="#000000" stroke-width="0.86601"/></g><g fill="#ffb754" stroke-linecap="butt"><path d="M219.3471,248.6684l22.4731,4.1334l-7.6748,15.1018l-22.4731,-4.1334z" stroke="none" stroke-width="0.75043"/><path d="M218.6635,250.4513l21.9747,4.0417l-6.9439,13.6635l-21.9746,-4.0417z" stroke="#000000" stroke-width="0.82732"/></g><path d="M215.15,230.0561l1.75,-1.8096l2.5,-1.7827l4.5,-1.6205l8.5,-1.8907l10,-0.8102l17.75,2.1607l5,1.8366l3,1.8097l1.5,2.5658l1.5,3.2952l1.25,4.2134v6.1851l-1,5.699l-2.5,4.7806h-52.5l-3.5,-5.969v-4.8077v-8.1298l0.5,-2.8629z" fill="url(#color-1)" stroke="none" stroke-width="0.80368" stroke-linecap="round"/><path d="M213.0321,241.5007h59.55v3.6095h-59.55z" fill="#009933" stroke="none" stroke-width="0.8361" stroke-linecap="butt"/><path d="M213.9,241.4242h58v3.6847h-58z" fill="#b17800" stroke="#000000" stroke-width="0.79909" stroke-linecap="butt"/><path d="M224.65,224.957l18,0.9023l20.25,-1.0527l4.25,2.2559l2.5,4.2112l2.5,4.5119l0.25,6.6175l-0.5,6.3168l-2.5,5.5647l-52.5,0.6016l-3.5,-5.8655v-16.3934l2.25,-3.4592l3.5,-2.8576z" fill="none" stroke="#000000" stroke-width="0.8252" stroke-linecap="round"/><g fill="#b17800" stroke-linecap="round"><g><path d="M231.6,210.9922l21.1423,0.5701l4.6311,3.6489l1.7451,4.1431l2.282,8.9323l-19.1958,1.1783l-15.907,-1.5584l-0.2685,-9.3124l1.8793,-4.5232z" stroke="#ffffff" stroke-width="2.18167"/><path d="M228.1775,225.2488l0.5617,-8.3622l2.5275,-4.5611" stroke="#f9f9f9" stroke-width="1.91823"/><path d="M231.7161,225.2488l0.3931,-8.1341l1.6851,-4.6372" stroke="#f9f9f9" stroke-width="1.91823"/><path d="M235.4793,226.009l0.2808,-7.678l0.4494,-5.7775" stroke="#f9f9f9" stroke-width="1.91823"/><path d="M239.2425,212.5535l0.7302,4.4852l-0.5617,9.1983" stroke="#f9f9f9" stroke-width="1.91823"/><path d="M242.2194,212.3255l1.4042,4.3331l0.8425,10.6047" stroke="#f9f9f9" stroke-width="1.91823"/><path d="M248.2293,215.7463l-1.7974,-2.7367z" stroke="#f9f9f9" stroke-width="1.91823"/><path d="M248.2293,226.9972v-11.2509" stroke="#f9f9f9" stroke-width="1.91823"/><path d="M247.1059,213.8459l-1.348,-1.4064z" stroke="#f9f9f9" stroke-width="1.91823"/><path d="M248.5663,212.4775l2.6399,3.0408l0.7301,11.2509" stroke="#f9f9f9" stroke-width="1.91823"/><path d="M252.3295,212.3255l2.2467,3.3448l1.2919,11.4029" stroke="#f9f9f9" stroke-width="1.91823"/></g><path d="M230.95,210.0363h21.5l6.25,4.9412l3.75,14.0636l-20.75,1.1403l-10.5,-0.9502l-7,-0.3801l0.5,-10.2626l1.75,-4.3712z" stroke="#000000" stroke-width="0.88823"/></g></g></g></svg>