<svg version="1.1" xmlns="http://www.w3.org/2000/svg" xmlns:xlink="http://www.w3.org/1999/xlink" width="91.22842" height="94.02467" viewBox="0,0,91.22842,94.02467"><defs><linearGradient x1="212.9" y1="191.0803" x2="272.4" y2="191.0803" gradientUnits="userSpaceOnUse" id="color-1"><stop offset="0" stop-color="#cccccc"/><stop offset="1" stop-color="#ffffff"/></linearGradient></defs><g transform="translate(-195.67164,-170.39616)"><g data-paper-data="{&quot;isPaintingLayer&quot;:true}" fill-rule="nonzero" stroke-linejoin="miter" stroke-miterlimit="10" stroke-dasharray="" stroke-dashoffset="0" style="mix-blend-mode: normal"><g fill="#cccccc"><path d="M286.3504,230.6515l-11.2498,3.216l-4.4011,-13.9557l-3.7196,-8.165l-3.0658,-5.4446l-4.4406,-5.7421l-5.3507,-3.0703l9.4148,-2.3816l7.1987,0.7972l5.2536,3.0928l5.6686,13.8677z" stroke="#000000" stroke-width="0.90345" stroke-linecap="round"/><path d="M285.8395,225.8942l-12.1479,3.5753l-1.9963,-5.2661l12.1479,-3.5754z" stroke="#000000" stroke-width="0.90276" stroke-linecap="butt"/><path d="M273.4958,224.2745l9.7134,-2.2373" stroke="#d0cdd2" stroke-width="1.40977" stroke-linecap="round"/><path d="M283.3983,225.4573l-9.1497,2.3695" stroke="#d0cdd2" stroke-width="1.42821" stroke-linecap="round"/><path d="M274.01,226.1302l9.232,-2.2958" stroke="#d0cdd2" stroke-width="1.49384" stroke-linecap="round"/></g><g fill="#ffaf54" stroke-linecap="butt"><path d="M220.8664,235.0384l21.8824,8.2218l-8.0147,18.1193l-21.8824,-8.2219z" stroke="none" stroke-width="0.82035"/><path d="M220.0741,237.168l21.3969,8.0395l-7.2514,16.3936l-21.3969,-8.0394z" stroke="#000000" stroke-width="0.89439"/></g><path d="M215.15,204.2349l1.75,-3.008l2.5,-2.9632l4.5,-2.6938l8.5,-3.1427l10,-1.3469l17.75,3.5917l5,3.053l3,3.008l1.5,4.2652l1.5,5.4773l1.25,7.0038v10.2813l-1,9.4731l-2.5,7.9466h-52.5l-3.5,-9.9221v-7.9915v-13.5138l0.5,-4.759z" fill="url(#color-1)" stroke="none" stroke-width="0.95033" stroke-linecap="round"/><path d="M213.0321,223.25h59.55v6h-59.55z" fill="#009933" stroke="none" stroke-width="1.00901" stroke-linecap="butt"/><path d="M213.9,223.125h58v6.125h-58z" fill="#ad7500" stroke="#000000" stroke-width="0.93958" stroke-linecap="butt"/><path d="M224.65,195.75l18,1.5l20.25,-1.75l4.25,3.75l2.5,7l2.5,7.5l0.25,11l-0.5,10.5l-2.5,9.25l-52.5,1l-3.5,-9.75v-27.25l2.25,-5.75l3.5,-4.75z" fill="none" stroke="#000000" stroke-width="1" stroke-linecap="round"/><g fill="#ffffff"><path d="M205.4726,212.3032l9.3524,-13.7947l6.5353,-2.4028l8.2031,0.3678l9.9802,4.1234l-5.9769,0.9708l-5.0713,5.5652l-5.3299,5.4644l-6.2871,9.0976l-8.6802,14.0566l-11.8446,-5.321z" stroke="#000000" stroke-width="1.00075" stroke-linecap="round"/><path d="M201.3354,220.1873l12.7677,5.8549l-3.3771,5.2649l-12.7677,-5.855z" stroke="#000000" stroke-width="0.99911" stroke-linecap="butt"/><path d="M201.7772,221.7848l10.3448,4.0204" stroke="#d0cdd2" stroke-width="1.56963" stroke-linecap="round"/><path d="M210.4594,229.4479l-9.6872,-4.0658" stroke="#d0cdd2" stroke-width="1.58516" stroke-linecap="round"/><path d="M201.3191,223.6729l9.7951,4.0012" stroke="#d0cdd2" stroke-width="1.66086" stroke-linecap="round"/></g><g fill="#ab6b00" stroke-linecap="round"><g><path d="M231.6,172.5073l21.1423,0.9477l4.6311,6.0655l1.7451,6.8868l2.282,14.8477l-19.1958,1.9586l-15.907,-2.5904l-0.2685,-15.4796l1.8793,-7.5186z" stroke="#ffffff" stroke-width="2.60719"/><path d="M228.1775,196.2409l0.5617,-13.9l2.5275,-7.5818" stroke="#f9f9f9" stroke-width="2.3911"/><path d="M231.7161,196.2409l0.3931,-13.5209l1.6851,-7.7082" stroke="#f9f9f9" stroke-width="2.3911"/><path d="M235.4793,197.5045l0.2808,-12.7627l0.4494,-9.6036" stroke="#f9f9f9" stroke-width="2.3911"/><path d="M239.2425,175.1382l0.7302,7.4554l-0.5617,15.29" stroke="#f9f9f9" stroke-width="2.3911"/><path d="M242.2194,174.7591l1.4042,7.2027l0.8425,17.6277" stroke="#f9f9f9" stroke-width="2.3911"/><path d="M246.4319,175.8964l1.7974,4.5491z" stroke="#f9f9f9" stroke-width="2.3911"/><path d="M248.2293,180.4455v18.7018" stroke="#f9f9f9" stroke-width="2.3911"/><path d="M245.7579,174.9486l1.348,2.3378z" stroke="#f9f9f9" stroke-width="2.3911"/><path d="M248.5663,175.0118l2.6399,5.0546l0.7301,18.7018" stroke="#f9f9f9" stroke-width="2.3911"/><path d="M252.3295,174.7591l2.2467,5.56l1.2919,18.9545" stroke="#f9f9f9" stroke-width="2.3911"/></g><path d="M230.95,170.9659h21.5l6.25,8.2136l3.75,23.3773l-20.75,1.8955l-10.5,-1.5796l-7,-0.6318l0.5,-17.0591l1.75,-7.2659z" stroke="#000000" stroke-width="1.13947"/></g><g fill="#ffa550" stroke-linecap="butt"><path d="M243.8401,243.7315l22.6715,-8.0136l8.0121,19.7064l-22.6715,8.0136z" stroke="none" stroke-width="0.85985"/><path d="M244.1369,243.9841l22.8752,-8.0855l8.0545,19.8106l-22.8752,8.0856z" stroke="#000000" stroke-width="0.99293"/></g></g></g></svg>