<svg version="1.1" xmlns="http://www.w3.org/2000/svg" xmlns:xlink="http://www.w3.org/1999/xlink" width="94.21563" height="92.47678" viewBox="0,0,94.21563,92.47678"><defs><linearGradient x1="212.9" y1="191.0803" x2="272.4" y2="191.0803" gradientUnits="userSpaceOnUse" id="color-1"><stop offset="0" stop-color="#cccccc"/><stop offset="1" stop-color="#ffffff"/></linearGradient></defs><g transform="translate(-194.25386,-170.39617)"><g data-paper-data="{&quot;isPaintingLayer&quot;:true}" fill-rule="nonzero" stroke-linejoin="miter" stroke-miterlimit="10" stroke-dasharray="" stroke-dashoffset="0" style="mix-blend-mode: normal"><g fill="#ffffff"><path d="M287.8856,222.4897l-10.6451,4.5796l-6.3115,-11.188l-4.822,-6.359l-3.7931,-4.1447l-5.1914,-4.1742l-5.7123,-1.7463l8.9525,-3.5683l7.2147,-0.4947l5.6197,1.7813l7.5496,10.9062z" stroke="#000000" stroke-width="0.8558" stroke-linecap="round"/><path d="M286.6699,218.5021l-11.4804,5.0328l-2.7128,-4.167l11.4805,-5.0328z" stroke="#000000" stroke-width="0.85373" stroke-linecap="butt"/><path d="M283.518,215.6166l-9.2674,3.4939" stroke="#d0cdd2" stroke-width="1.40068" stroke-linecap="round"/><path d="M284.2276,218.5254l-8.6926,3.5147" stroke="#d0cdd2" stroke-width="1.37871" stroke-linecap="round"/><path d="M283.8185,217.1968l-8.7843,3.4652" stroke="#d0cdd2" stroke-width="1.4652" stroke-linecap="round"/></g><g fill="#ffac4e" stroke-linecap="butt"><path d="M225.5929,227.7753l17.556,15.4344l-13.9089,14.1098l-17.5559,-15.4344z" stroke="none" stroke-width="0.82035"/><path d="M224.0947,229.4615l17.1666,15.0921l-12.5842,12.7661l-17.1666,-15.0921z" stroke="#000000" stroke-width="0.89439"/></g><path d="M215.15,204.2349l1.75,-3.008l2.5,-2.9632l4.5,-2.6938l8.5,-3.1427l10,-1.3469l17.75,3.5917l5,3.053l3,3.008l1.5,4.2652l1.5,5.4773l1.25,7.0038v10.2813l-1,9.4731l-2.5,7.9466h-52.5l-3.5,-9.9221v-7.9915v-13.5138l0.5,-4.759z" fill="url(#color-1)" stroke="none" stroke-width="0.95033" stroke-linecap="round"/><path d="M213.0321,223.25h59.55v6h-59.55z" fill="#009933" stroke="none" stroke-width="1.00901" stroke-linecap="butt"/><path d="M213.9,223.125h58v6.125h-58z" fill="#af6e00" stroke="#000000" stroke-width="0.93958" stroke-linecap="butt"/><path d="M224.65,195.75l18,1.5l20.25,-1.75l4.25,3.75l2.5,7l2.5,7.5l0.25,11l-0.5,10.5l-2.5,9.25l-52.5,1l-3.5,-9.75v-27.25l2.25,-5.75l3.5,-4.75z" fill="none" stroke="#000000" stroke-width="1" stroke-linecap="round"/><g fill="#ffffff"><path d="M207.1078,207.9884l11.7798,-11.2201l7.3106,-1.2224l8.7455,1.5599l10.1724,5.2596l-6.5298,-0.0038l-6.1439,4.3328l-6.4082,4.2022l-7.8966,7.3819l-11.0927,11.5598l-12.0182,-6.6328z" stroke="#000000" stroke-width="1.018" stroke-linecap="round"/><path d="M201.6587,214.5907l12.9397,7.2588l-4.2898,4.3109l-12.9397,-7.2588z" stroke="#000000" stroke-width="1.01354" stroke-linecap="butt"/><path d="M201.8953,216.1083l10.5762,5.2198" stroke="#d0cdd2" stroke-width="1.66783" stroke-linecap="round"/><path d="M210.2713,224.4426l-9.8656,-5.1632" stroke="#d0cdd2" stroke-width="1.64069" stroke-linecap="round"/><path d="M211.1703,222.9167l-9.9895,-5.1202" stroke="#d0cdd2" stroke-width="1.7442" stroke-linecap="round"/></g><g fill="#ad7400" stroke-linecap="round"><g><path d="M231.6,172.5073l21.1423,0.9477l4.6311,6.0655l1.7451,6.8868l2.282,14.8477l-19.1958,1.9586l-15.907,-2.5904l-0.2685,-15.4796l1.8793,-7.5186z" stroke="#ffffff" stroke-width="2.60719"/><path d="M228.1775,196.2409l0.5617,-13.9l2.5275,-7.5818" stroke="#f9f9f9" stroke-width="2.3911"/><path d="M231.7161,196.2409l0.3931,-13.5209l1.6851,-7.7082" stroke="#f9f9f9" stroke-width="2.3911"/><path d="M235.4793,197.5045l0.2808,-12.7627l0.4494,-9.6036" stroke="#f9f9f9" stroke-width="2.3911"/><path d="M239.2425,175.1382l0.7302,7.4554l-0.5617,15.29" stroke="#f9f9f9" stroke-width="2.3911"/><path d="M242.2194,174.7591l1.4042,7.2027l0.8425,17.6277" stroke="#f9f9f9" stroke-width="2.3911"/><path d="M246.4319,175.8964l1.7974,4.5491z" stroke="#f9f9f9" stroke-width="2.3911"/><path d="M248.2293,180.4455v18.7018" stroke="#f9f9f9" stroke-width="2.3911"/><path d="M245.7579,174.9486l1.348,2.3378z" stroke="#f9f9f9" stroke-width="2.3911"/><path d="M248.5663,175.0118l2.6399,5.0546l0.7301,18.7018" stroke="#f9f9f9" stroke-width="2.3911"/><path d="M252.3295,174.7591l2.2467,5.56l1.2919,18.9545" stroke="#f9f9f9" stroke-width="2.3911"/></g><path d="M230.95,170.9659h21.5l6.25,8.2136l3.75,23.3773l-20.75,1.8955l-10.5,-1.5796l-7,-0.6318l0.5,-17.0591l1.75,-7.2659z" stroke="#000000" stroke-width="1.13947"/></g><g fill="#ffaf54" stroke-linecap="butt"><path d="M244.6088,244.7104l20.0886,-13.2159l12.5035,17.2104l-20.0887,13.2159z" stroke="none" stroke-width="0.85985"/><path d="M244.9258,244.8963l20.2691,-13.3347l12.5697,17.3015l-20.2692,13.3346z" stroke="#000000" stroke-width="0.99293"/></g></g></g></svg>